<?xml version="1.0" encoding="utf-8" standalone="no"?>
<!DOCTYPE svg PUBLIC "-//W3C//DTD SVG 1.1//EN"
  "http://www.w3.org/Graphics/SVG/1.1/DTD/svg11.dtd">
<svg xmlns:xlink="http://www.w3.org/1999/xlink" width="720pt" height="252pt" viewBox="0 0 720 252" xmlns="http://www.w3.org/2000/svg" version="1.1">
 <metadata>
  <rdf:RDF xmlns:dc="http://purl.org/dc/elements/1.1/" xmlns:cc="http://creativecommons.org/ns#" xmlns:rdf="http://www.w3.org/1999/02/22-rdf-syntax-ns#">
   <cc:Work>
    <dc:type rdf:resource="http://purl.org/dc/dcmitype/StillImage"/>
    <dc:date>1980-01-01T00:00:00+00:00</dc:date>
    <dc:format>image/svg+xml</dc:format>
    <dc:creator>
     <cc:Agent>
      <dc:title>Matplotlib v3.10.8, https://matplotlib.org/</dc:title>
     </cc:Agent>
    </dc:creator>
   </cc:Work>
  </rdf:RDF>
 </metadata>
 <defs>
  <style type="text/css">*{stroke-linejoin: round; stroke-linecap: butt}</style>
 </defs>
 <g id="figure_1">
  <g id="patch_1">
   <path d="M 0 252
L 720 252
L 720 0
L 0 0
L 0 252
z
" style="fill: none; opacity: 0"/>
  </g>
  <g id="axes_1">
   <g id="patch_2">
    <path d="M 33.64 210.04
L 705.940069 210.04
L 705.940069 10.8
L 33.64 10.8
z
" style="fill: #16213e"/>
   </g>
   <g id="matplotlib.axis_1">
    <g id="xtick_1">
     <g id="line2d_1">
      <path d="M 59.465946 210.04
L 59.465946 10.8
" clip-path="url(#pf4ed42fc29)" style="fill: none; stroke: #2a2a4a; stroke-width: 0.5; stroke-linecap: square"/>
     </g>
     <g id="line2d_2">
      <defs>
       <path id="m5244df7de3" d="M 0 0
L 0 3.5
" style="stroke: #ffffff"/>
      </defs>
      <g>
       <use xlink:href="#m5244df7de3" x="59.465946" y="210.04" style="fill: #ffffff; stroke: #ffffff"/>
      </g>
     </g>
     <g id="text_1">
      <!-- -2s -->
      <g style="fill: #ffffff" transform="translate(51.876102 224.638438) scale(0.1 -0.1)">
       <defs>
        <path id="DejaVuSans-2d" d="M 313 2009
L 1997 2009
L 1997 1497
L 313 1497
L 313 2009
z
" transform="scale(0.015625)"/>
        <path id="DejaVuSans-32" d="M 1228 531
L 3431 531
L 3431 0
L 469 0
L 469 531
Q 828 903 1448 1529
Q 2069 2156 2228 2338
Q 2531 2678 2651 2914
Q 2772 3150 2772 3378
Q 2772 3750 2511 3984
Q 2250 4219 1831 4219
Q 1534 4219 1204 4116
Q 875 4013 500 3803
L 500 4441
Q 881 4594 1212 4672
Q 1544 4750 1819 4750
Q 2544 4750 2975 4387
Q 3406 4025 3406 3419
Q 3406 3131 3298 2873
Q 3191 2616 2906 2266
Q 2828 2175 2409 1742
Q 1991 1309 1228 531
z
" transform="scale(0.015625)"/>
        <path id="DejaVuSans-73" d="M 2834 3397
L 2834 2853
Q 2591 2978 2328 3040
Q 2066 3103 1784 3103
Q 1356 3103 1142 2972
Q 928 2841 928 2578
Q 928 2378 1081 2264
Q 1234 2150 1697 2047
L 1894 2003
Q 2506 1872 2764 1633
Q 3022 1394 3022 966
Q 3022 478 2636 193
Q 2250 -91 1575 -91
Q 1294 -91 989 -36
Q 684 19 347 128
L 347 722
Q 666 556 975 473
Q 1284 391 1588 391
Q 1994 391 2212 530
Q 2431 669 2431 922
Q 2431 1156 2273 1281
Q 2116 1406 1581 1522
L 1381 1569
Q 847 1681 609 1914
Q 372 2147 372 2553
Q 372 3047 722 3315
Q 1072 3584 1716 3584
Q 2034 3584 2315 3537
Q 2597 3491 2834 3397
z
" transform="scale(0.015625)"/>
       </defs>
       <use xlink:href="#DejaVuSans-2d"/>
       <use xlink:href="#DejaVuSans-32" transform="translate(36.083984 0)"/>
       <use xlink:href="#DejaVuSans-73" transform="translate(99.707031 0)"/>
      </g>
     </g>
    </g>
    <g id="xtick_2">
     <g id="line2d_3">
      <path d="M 165.435486 210.04
L 165.435486 10.8
" clip-path="url(#pf4ed42fc29)" style="fill: none; stroke: #2a2a4a; stroke-width: 0.5; stroke-linecap: square"/>
     </g>
     <g id="line2d_4">
      <g>
       <use xlink:href="#m5244df7de3" x="165.435486" y="210.04" style="fill: #ffffff; stroke: #ffffff"/>
      </g>
     </g>
     <g id="text_2">
      <!-- 48s -->
      <g style="fill: #ffffff" transform="translate(156.468299 224.638438) scale(0.1 -0.1)">
       <defs>
        <path id="DejaVuSans-34" d="M 2419 4116
L 825 1625
L 2419 1625
L 2419 4116
z
M 2253 4666
L 3047 4666
L 3047 1625
L 3713 1625
L 3713 1100
L 3047 1100
L 3047 0
L 2419 0
L 2419 1100
L 313 1100
L 313 1709
L 2253 4666
z
" transform="scale(0.015625)"/>
        <path id="DejaVuSans-38" d="M 2034 2216
Q 1584 2216 1326 1975
Q 1069 1734 1069 1313
Q 1069 891 1326 650
Q 1584 409 2034 409
Q 2484 409 2743 651
Q 3003 894 3003 1313
Q 3003 1734 2745 1975
Q 2488 2216 2034 2216
z
M 1403 2484
Q 997 2584 770 2862
Q 544 3141 544 3541
Q 544 4100 942 4425
Q 1341 4750 2034 4750
Q 2731 4750 3128 4425
Q 3525 4100 3525 3541
Q 3525 3141 3298 2862
Q 3072 2584 2669 2484
Q 3125 2378 3379 2068
Q 3634 1759 3634 1313
Q 3634 634 3220 271
Q 2806 -91 2034 -91
Q 1263 -91 848 271
Q 434 634 434 1313
Q 434 1759 690 2068
Q 947 2378 1403 2484
z
M 1172 3481
Q 1172 3119 1398 2916
Q 1625 2713 2034 2713
Q 2441 2713 2670 2916
Q 2900 3119 2900 3481
Q 2900 3844 2670 4047
Q 2441 4250 2034 4250
Q 1625 4250 1398 4047
Q 1172 3844 1172 3481
z
" transform="scale(0.015625)"/>
       </defs>
       <use xlink:href="#DejaVuSans-34"/>
       <use xlink:href="#DejaVuSans-38" transform="translate(63.623047 0)"/>
       <use xlink:href="#DejaVuSans-73" transform="translate(127.246094 0)"/>
      </g>
     </g>
    </g>
    <g id="xtick_3">
     <g id="line2d_5">
      <path d="M 271.405026 210.04
L 271.405026 10.8
" clip-path="url(#pf4ed42fc29)" style="fill: none; stroke: #2a2a4a; stroke-width: 0.5; stroke-linecap: square"/>
     </g>
     <g id="line2d_6">
      <g>
       <use xlink:href="#m5244df7de3" x="271.405026" y="210.04" style="fill: #ffffff; stroke: #ffffff"/>
      </g>
     </g>
     <g id="text_3">
      <!-- 98s -->
      <g style="fill: #ffffff" transform="translate(262.437839 224.638438) scale(0.1 -0.1)">
       <defs>
        <path id="DejaVuSans-39" d="M 703 97
L 703 672
Q 941 559 1184 500
Q 1428 441 1663 441
Q 2288 441 2617 861
Q 2947 1281 2994 2138
Q 2813 1869 2534 1725
Q 2256 1581 1919 1581
Q 1219 1581 811 2004
Q 403 2428 403 3163
Q 403 3881 828 4315
Q 1253 4750 1959 4750
Q 2769 4750 3195 4129
Q 3622 3509 3622 2328
Q 3622 1225 3098 567
Q 2575 -91 1691 -91
Q 1453 -91 1209 -44
Q 966 3 703 97
z
M 1959 2075
Q 2384 2075 2632 2365
Q 2881 2656 2881 3163
Q 2881 3666 2632 3958
Q 2384 4250 1959 4250
Q 1534 4250 1286 3958
Q 1038 3666 1038 3163
Q 1038 2656 1286 2365
Q 1534 2075 1959 2075
z
" transform="scale(0.015625)"/>
       </defs>
       <use xlink:href="#DejaVuSans-39"/>
       <use xlink:href="#DejaVuSans-38" transform="translate(63.623047 0)"/>
       <use xlink:href="#DejaVuSans-73" transform="translate(127.246094 0)"/>
      </g>
     </g>
    </g>
    <g id="xtick_4">
     <g id="line2d_7">
      <path d="M 377.374566 210.04
L 377.374566 10.8
" clip-path="url(#pf4ed42fc29)" style="fill: none; stroke: #2a2a4a; stroke-width: 0.5; stroke-linecap: square"/>
     </g>
     <g id="line2d_8">
      <g>
       <use xlink:href="#m5244df7de3" x="377.374566" y="210.04" style="fill: #ffffff; stroke: #ffffff"/>
      </g>
     </g>
     <g id="text_4">
      <!-- 148s -->
      <g style="fill: #ffffff" transform="translate(365.226129 224.638438) scale(0.1 -0.1)">
       <defs>
        <path id="DejaVuSans-31" d="M 794 531
L 1825 531
L 1825 4091
L 703 3866
L 703 4441
L 1819 4666
L 2450 4666
L 2450 531
L 3481 531
L 3481 0
L 794 0
L 794 531
z
" transform="scale(0.015625)"/>
       </defs>
       <use xlink:href="#DejaVuSans-31"/>
       <use xlink:href="#DejaVuSans-34" transform="translate(63.623047 0)"/>
       <use xlink:href="#DejaVuSans-38" transform="translate(127.246094 0)"/>
       <use xlink:href="#DejaVuSans-73" transform="translate(190.869141 0)"/>
      </g>
     </g>
    </g>
    <g id="xtick_5">
     <g id="line2d_9">
      <path d="M 483.344106 210.04
L 483.344106 10.8
" clip-path="url(#pf4ed42fc29)" style="fill: none; stroke: #2a2a4a; stroke-width: 0.5; stroke-linecap: square"/>
     </g>
     <g id="line2d_10">
      <g>
       <use xlink:href="#m5244df7de3" x="483.344106" y="210.04" style="fill: #ffffff; stroke: #ffffff"/>
      </g>
     </g>
     <g id="text_5">
      <!-- 198s -->
      <g style="fill: #ffffff" transform="translate(471.195669 224.638438) scale(0.1 -0.1)">
       <use xlink:href="#DejaVuSans-31"/>
       <use xlink:href="#DejaVuSans-39" transform="translate(63.623047 0)"/>
       <use xlink:href="#DejaVuSans-38" transform="translate(127.246094 0)"/>
       <use xlink:href="#DejaVuSans-73" transform="translate(190.869141 0)"/>
      </g>
     </g>
    </g>
    <g id="xtick_6">
     <g id="line2d_11">
      <path d="M 589.313646 210.04
L 589.313646 10.8
" clip-path="url(#pf4ed42fc29)" style="fill: none; stroke: #2a2a4a; stroke-width: 0.5; stroke-linecap: square"/>
     </g>
     <g id="line2d_12">
      <g>
       <use xlink:href="#m5244df7de3" x="589.313646" y="210.04" style="fill: #ffffff; stroke: #ffffff"/>
      </g>
     </g>
     <g id="text_6">
      <!-- 248s -->
      <g style="fill: #ffffff" transform="translate(577.165209 224.638438) scale(0.1 -0.1)">
       <use xlink:href="#DejaVuSans-32"/>
       <use xlink:href="#DejaVuSans-34" transform="translate(63.623047 0)"/>
       <use xlink:href="#DejaVuSans-38" transform="translate(127.246094 0)"/>
       <use xlink:href="#DejaVuSans-73" transform="translate(190.869141 0)"/>
      </g>
     </g>
    </g>
    <g id="xtick_7">
     <g id="line2d_13">
      <path d="M 695.283186 210.04
L 695.283186 10.8
" clip-path="url(#pf4ed42fc29)" style="fill: none; stroke: #2a2a4a; stroke-width: 0.5; stroke-linecap: square"/>
     </g>
     <g id="line2d_14">
      <g>
       <use xlink:href="#m5244df7de3" x="695.283186" y="210.04" style="fill: #ffffff; stroke: #ffffff"/>
      </g>
     </g>
     <g id="text_7">
      <!-- 298s -->
      <g style="fill: #ffffff" transform="translate(683.134749 224.638438) scale(0.1 -0.1)">
       <use xlink:href="#DejaVuSans-32"/>
       <use xlink:href="#DejaVuSans-39" transform="translate(63.623047 0)"/>
       <use xlink:href="#DejaVuSans-38" transform="translate(127.246094 0)"/>
       <use xlink:href="#DejaVuSans-73" transform="translate(190.869141 0)"/>
      </g>
     </g>
    </g>
    <g id="text_8">
     <!-- time (s) -->
     <g style="fill: #ffffff" transform="translate(350.398628 238.316563) scale(0.1 -0.1)">
      <defs>
       <path id="DejaVuSans-74" d="M 1172 4494
L 1172 3500
L 2356 3500
L 2356 3053
L 1172 3053
L 1172 1153
Q 1172 725 1289 603
Q 1406 481 1766 481
L 2356 481
L 2356 0
L 1766 0
Q 1100 0 847 248
Q 594 497 594 1153
L 594 3053
L 172 3053
L 172 3500
L 594 3500
L 594 4494
L 1172 4494
z
" transform="scale(0.015625)"/>
       <path id="DejaVuSans-69" d="M 603 3500
L 1178 3500
L 1178 0
L 603 0
L 603 3500
z
M 603 4863
L 1178 4863
L 1178 4134
L 603 4134
L 603 4863
z
" transform="scale(0.015625)"/>
       <path id="DejaVuSans-6d" d="M 3328 2828
Q 3544 3216 3844 3400
Q 4144 3584 4550 3584
Q 5097 3584 5394 3201
Q 5691 2819 5691 2113
L 5691 0
L 5113 0
L 5113 2094
Q 5113 2597 4934 2840
Q 4756 3084 4391 3084
Q 3944 3084 3684 2787
Q 3425 2491 3425 1978
L 3425 0
L 2847 0
L 2847 2094
Q 2847 2600 2669 2842
Q 2491 3084 2119 3084
Q 1678 3084 1418 2786
Q 1159 2488 1159 1978
L 1159 0
L 581 0
L 581 3500
L 1159 3500
L 1159 2956
Q 1356 3278 1631 3431
Q 1906 3584 2284 3584
Q 2666 3584 2933 3390
Q 3200 3197 3328 2828
z
" transform="scale(0.015625)"/>
       <path id="DejaVuSans-65" d="M 3597 1894
L 3597 1613
L 953 1613
Q 991 1019 1311 708
Q 1631 397 2203 397
Q 2534 397 2845 478
Q 3156 559 3463 722
L 3463 178
Q 3153 47 2828 -22
Q 2503 -91 2169 -91
Q 1331 -91 842 396
Q 353 884 353 1716
Q 353 2575 817 3079
Q 1281 3584 2069 3584
Q 2775 3584 3186 3129
Q 3597 2675 3597 1894
z
M 3022 2063
Q 3016 2534 2758 2815
Q 2500 3097 2075 3097
Q 1594 3097 1305 2825
Q 1016 2553 972 2059
L 3022 2063
z
" transform="scale(0.015625)"/>
       <path id="DejaVuSans-20" transform="scale(0.015625)"/>
       <path id="DejaVuSans-28" d="M 1984 4856
Q 1566 4138 1362 3434
Q 1159 2731 1159 2009
Q 1159 1288 1364 580
Q 1569 -128 1984 -844
L 1484 -844
Q 1016 -109 783 600
Q 550 1309 550 2009
Q 550 2706 781 3412
Q 1013 4119 1484 4856
L 1984 4856
z
" transform="scale(0.015625)"/>
       <path id="DejaVuSans-29" d="M 513 4856
L 1013 4856
Q 1481 4119 1714 3412
Q 1947 2706 1947 2009
Q 1947 1309 1714 600
Q 1481 -109 1013 -844
L 513 -844
Q 928 -128 1133 580
Q 1338 1288 1338 2009
Q 1338 2731 1133 3434
Q 928 4138 513 4856
z
" transform="scale(0.015625)"/>
      </defs>
      <use xlink:href="#DejaVuSans-74"/>
      <use xlink:href="#DejaVuSans-69" transform="translate(39.208984 0)"/>
      <use xlink:href="#DejaVuSans-6d" transform="translate(66.992188 0)"/>
      <use xlink:href="#DejaVuSans-65" transform="translate(164.404297 0)"/>
      <use xlink:href="#DejaVuSans-20" transform="translate(225.927734 0)"/>
      <use xlink:href="#DejaVuSans-28" transform="translate(257.714844 0)"/>
      <use xlink:href="#DejaVuSans-73" transform="translate(296.728516 0)"/>
      <use xlink:href="#DejaVuSans-29" transform="translate(348.828125 0)"/>
     </g>
    </g>
   </g>
   <g id="matplotlib.axis_2">
    <g id="ytick_1">
     <g id="line2d_15">
      <path d="M 33.64 200.983636
L 705.940069 200.983636
" clip-path="url(#pf4ed42fc29)" style="fill: none; stroke: #2a2a4a; stroke-width: 0.5; stroke-linecap: square"/>
     </g>
     <g id="line2d_16">
      <defs>
       <path id="m22f4cc73c6" d="M 0 0
L -3.5 0
" style="stroke: #ffffff"/>
      </defs>
      <g>
       <use xlink:href="#m22f4cc73c6" x="33.64" y="200.983636" style="fill: #ffffff; stroke: #ffffff"/>
      </g>
     </g>
     <g id="text_9">
      <!-- 0.0 -->
      <g style="fill: #ffffff" transform="translate(10.736875 204.782855) scale(0.1 -0.1)">
       <defs>
        <path id="DejaVuSans-30" d="M 2034 4250
Q 1547 4250 1301 3770
Q 1056 3291 1056 2328
Q 1056 1369 1301 889
Q 1547 409 2034 409
Q 2525 409 2770 889
Q 3016 1369 3016 2328
Q 3016 3291 2770 3770
Q 2525 4250 2034 4250
z
M 2034 4750
Q 2819 4750 3233 4129
Q 3647 3509 3647 2328
Q 3647 1150 3233 529
Q 2819 -91 2034 -91
Q 1250 -91 836 529
Q 422 1150 422 2328
Q 422 3509 836 4129
Q 1250 4750 2034 4750
z
" transform="scale(0.015625)"/>
        <path id="DejaVuSans-2e" d="M 684 794
L 1344 794
L 1344 0
L 684 0
L 684 794
z
" transform="scale(0.015625)"/>
       </defs>
       <use xlink:href="#DejaVuSans-30"/>
       <use xlink:href="#DejaVuSans-2e" transform="translate(63.623047 0)"/>
       <use xlink:href="#DejaVuSans-30" transform="translate(95.410156 0)"/>
      </g>
     </g>
    </g>
    <g id="ytick_2">
     <g id="line2d_17">
      <path d="M 33.64 164.758182
L 705.940069 164.758182
" clip-path="url(#pf4ed42fc29)" style="fill: none; stroke: #2a2a4a; stroke-width: 0.5; stroke-linecap: square"/>
     </g>
     <g id="line2d_18">
      <g>
       <use xlink:href="#m22f4cc73c6" x="33.64" y="164.758182" style="fill: #ffffff; stroke: #ffffff"/>
      </g>
     </g>
     <g id="text_10">
      <!-- 0.2 -->
      <g style="fill: #ffffff" transform="translate(10.736875 168.557401) scale(0.1 -0.1)">
       <use xlink:href="#DejaVuSans-30"/>
       <use xlink:href="#DejaVuSans-2e" transform="translate(63.623047 0)"/>
       <use xlink:href="#DejaVuSans-32" transform="translate(95.410156 0)"/>
      </g>
     </g>
    </g>
    <g id="ytick_3">
     <g id="line2d_19">
      <path d="M 33.64 128.532727
L 705.940069 128.532727
" clip-path="url(#pf4ed42fc29)" style="fill: none; stroke: #2a2a4a; stroke-width: 0.5; stroke-linecap: square"/>
     </g>
     <g id="line2d_20">
      <g>
       <use xlink:href="#m22f4cc73c6" x="33.64" y="128.532727" style="fill: #ffffff; stroke: #ffffff"/>
      </g>
     </g>
     <g id="text_11">
      <!-- 0.4 -->
      <g style="fill: #ffffff" transform="translate(10.736875 132.331946) scale(0.1 -0.1)">
       <use xlink:href="#DejaVuSans-30"/>
       <use xlink:href="#DejaVuSans-2e" transform="translate(63.623047 0)"/>
       <use xlink:href="#DejaVuSans-34" transform="translate(95.410156 0)"/>
      </g>
     </g>
    </g>
    <g id="ytick_4">
     <g id="line2d_21">
      <path d="M 33.64 92.307273
L 705.940069 92.307273
" clip-path="url(#pf4ed42fc29)" style="fill: none; stroke: #2a2a4a; stroke-width: 0.5; stroke-linecap: square"/>
     </g>
     <g id="line2d_22">
      <g>
       <use xlink:href="#m22f4cc73c6" x="33.64" y="92.307273" style="fill: #ffffff; stroke: #ffffff"/>
      </g>
     </g>
     <g id="text_12">
      <!-- 0.6 -->
      <g style="fill: #ffffff" transform="translate(10.736875 96.106491) scale(0.1 -0.1)">
       <defs>
        <path id="DejaVuSans-36" d="M 2113 2584
Q 1688 2584 1439 2293
Q 1191 2003 1191 1497
Q 1191 994 1439 701
Q 1688 409 2113 409
Q 2538 409 2786 701
Q 3034 994 3034 1497
Q 3034 2003 2786 2293
Q 2538 2584 2113 2584
z
M 3366 4563
L 3366 3988
Q 3128 4100 2886 4159
Q 2644 4219 2406 4219
Q 1781 4219 1451 3797
Q 1122 3375 1075 2522
Q 1259 2794 1537 2939
Q 1816 3084 2150 3084
Q 2853 3084 3261 2657
Q 3669 2231 3669 1497
Q 3669 778 3244 343
Q 2819 -91 2113 -91
Q 1303 -91 875 529
Q 447 1150 447 2328
Q 447 3434 972 4092
Q 1497 4750 2381 4750
Q 2619 4750 2861 4703
Q 3103 4656 3366 4563
z
" transform="scale(0.015625)"/>
       </defs>
       <use xlink:href="#DejaVuSans-30"/>
       <use xlink:href="#DejaVuSans-2e" transform="translate(63.623047 0)"/>
       <use xlink:href="#DejaVuSans-36" transform="translate(95.410156 0)"/>
      </g>
     </g>
    </g>
    <g id="ytick_5">
     <g id="line2d_23">
      <path d="M 33.64 56.081818
L 705.940069 56.081818
" clip-path="url(#pf4ed42fc29)" style="fill: none; stroke: #2a2a4a; stroke-width: 0.5; stroke-linecap: square"/>
     </g>
     <g id="line2d_24">
      <g>
       <use xlink:href="#m22f4cc73c6" x="33.64" y="56.081818" style="fill: #ffffff; stroke: #ffffff"/>
      </g>
     </g>
     <g id="text_13">
      <!-- 0.8 -->
      <g style="fill: #ffffff" transform="translate(10.736875 59.881037) scale(0.1 -0.1)">
       <use xlink:href="#DejaVuSans-30"/>
       <use xlink:href="#DejaVuSans-2e" transform="translate(63.623047 0)"/>
       <use xlink:href="#DejaVuSans-38" transform="translate(95.410156 0)"/>
      </g>
     </g>
    </g>
    <g id="ytick_6">
     <g id="line2d_25">
      <path d="M 33.64 19.856364
L 705.940069 19.856364
" clip-path="url(#pf4ed42fc29)" style="fill: none; stroke: #2a2a4a; stroke-width: 0.5; stroke-linecap: square"/>
     </g>
     <g id="line2d_26">
      <g>
       <use xlink:href="#m22f4cc73c6" x="33.64" y="19.856364" style="fill: #ffffff; stroke: #ffffff"/>
      </g>
     </g>
     <g id="text_14">
      <!-- 1.0 -->
      <g style="fill: #ffffff" transform="translate(10.736875 23.655582) scale(0.1 -0.1)">
       <use xlink:href="#DejaVuSans-31"/>
       <use xlink:href="#DejaVuSans-2e" transform="translate(63.623047 0)"/>
       <use xlink:href="#DejaVuSans-30" transform="translate(95.410156 0)"/>
      </g>
     </g>
    </g>
   </g>
   <g id="line2d_27">
    <path d="M 64.199093 95.630664
L 64.792858 116.078709
L 66.138327 104.896861
L 67.779523 102.980895
L 68.667777 101.564344
L 70.008255 100.152385
L 71.055513 102.696191
L 71.795561 106.341905
L 73.429991 103.871116
L 75.389135 98.388108
L 76.415801 93.117104
L 77.456776 99.21619
L 78.949365 96.940036
L 80.88528 95.656178
L 82.07398 94.451648
L 83.262641 91.50142
L 85.073682 109.147292
L 85.795485 112.478127
L 87.443408 133.112601
L 88.165588 136.241099
L 91.597007 158.19358
L 92.786367 165.90263
L 93.096965 163.765326
L 94.130413 154.159947
L 95.617734 154.505017
L 96.971674 155.099707
L 97.705531 153.088613
L 100.397203 133.892272
L 100.990356 122.482762
L 102.322284 125.932895
L 103.075407 123.707287
L 104.579264 127.414574
L 105.318586 136.806706
L 112.295164 149.924867
L 113.04003 119.504758
L 116.622861 103.716069
L 117.370308 113.332032
L 118.85715 99.799759
L 119.904248 83.784402
L 121.24772 76.060088
L 121.696235 70.904264
L 123.024717 78.127381
L 123.782027 81.241312
L 124.998677 76.516963
L 132.847435 98.519175
L 133.608475 80.98273
L 135.096959 62.740775
L 136.604487 102.382649
L 137.776301 128.54074
L 138.985112 120.157509
L 139.278351 124.708839
L 140.604939 100.797033
L 142.55202 75.121172
L 142.703189 44.042471
L 144.926182 47.141507
L 145.072018 55.426355
L 146.412699 64.364473
L 147.451022 51.969352
L 148.654772 35.741038
L 150.574306 20.27511
L 164.720083 163.877868
L 165.326095 183.980632
L 167.10998 186.76572
L 167.852423 170.099526
L 169.333249 157.386357
L 169.632503 148.372875
L 171.120299 139.46887
L 173.063658 134.728544
L 174.126775 131.578164
L 174.417022 127.753368
L 176.501567 121.407764
L 177.700785 126.160077
L 177.993934 127.837943
L 179.934624 129.73728
L 181.265434 130.417793
L 182.60539 132.639003
L 183.344124 126.128745
L 184.989076 130.478026
L 186.155805 134.300028
L 187.348756 123.832198
L 187.938191 124.186768
L 188.680854 102.653454
L 189.869638 107.53823
L 191.505669 96.178318
L 192.531618 84.247747
L 194.470431 100.400235
L 194.612382 95.749473
L 194.612382 200.983636
L 211.000821 200.983636
L 211.000821 200.334105
L 213.99014 163.86483
L 215.174137 180.038829
L 216.666628 162.671562
L 217.710437 155.634292
L 219.198635 154.597792
L 221.278863 176.824426
L 223.369092 181.00947
L 224.422719 167.03703
L 225.007471 161.498424
L 225.899302 141.934691
L 227.977175 137.940769
L 228.433215 136.708435
L 230.203221 128.499993
L 230.957341 120.79912
L 232.575283 108.930124
L 233.340469 113.91947
L 234.661578 114.283506
L 235.258247 127.785667
L 237.495142 158.400729
L 237.940959 159.651913
L 238.831899 156.124803
L 241.065252 166.645105
L 242.12909 150.972285
L 243.305023 138.332964
L 243.751997 130.131466
L 245.245799 125.325644
L 246.884707 113.402125
L 247.488176 118.294975
L 248.669411 103.323827
L 249.721562 119.670057
L 250.906768 118.411765
L 252.093634 117.388921
L 253.132609 120.297051
L 253.132609 200.983636
L 287.81955 200.983636
L 287.81955 171.921917
L 289.028151 191.180408
L 289.028151 200.983636
L 334.879867 200.983636
L 334.879867 193.392763
L 335.323436 165.510902
L 336.384602 161.194695
L 336.384602 200.983636
L 401.010889 200.983636
L 401.010889 161.67918
L 402.059815 162.287941
L 403.12009 164.968239
L 404.286057 166.863738
L 405.479596 145.882277
L 406.827856 140.113218
L 407.426469 139.39371
L 409.191411 129.036738
L 409.351733 116.04754
L 412.786653 135.689839
L 412.934538 141.191183
L 414.708006 150.534511
L 415.44633 150.620347
L 417.238159 164.331568
L 418.57535 177.26887
L 419.78473 165.137613
L 420.218168 180.985217
L 421.708826 167.841477
L 422.755932 156.135275
L 424.5503 140.025297
L 424.838642 142.588115
L 426.463594 121.032297
L 428.25368 111.875306
L 428.698254 120.056617
L 429.587589 105.19815
L 429.587589 200.983636
L 453.122894 200.983636
L 453.122894 173.717288
L 454.788808 155.410945
L 455.511049 149.131915
L 457.295265 153.450084
L 457.899012 143.110198
L 459.078813 132.266971
L 459.821351 132.062749
L 461.313602 136.530696
L 462.662403 137.82376
L 463.404857 134.191636
L 465.045274 132.620676
L 466.392859 146.018089
L 467.276175 166.127274
L 468.171001 171.555147
L 470.401448 188.800576
L 470.548969 192.81725
L 471.737131 186.508618
L 473.821995 193.20239
L 474.276175 200.983636
L 476.066493 194.090519
L 476.95871 188.524404
L 477.691153 167.276034
L 489.164418 113.103668
L 489.164418 200.983636
L 535.615375 200.983636
L 535.615375 149.077102
L 536.070486 74.636523
L 536.070486 200.983636
L 562.424969 200.983636
L 562.424969 99.155798
L 562.872336 117.757374
L 564.075568 109.367133
L 566.158179 92.441558
L 566.304875 99.36961
L 567.797467 76.492033
L 573.606105 19.856364
L 575.39397 24.797438
L 576.280817 50.883369
L 577.776623 68.55182
L 579.104952 91.977597
L 579.410619 107.069193
L 581.336318 112.555918
L 581.9358 106.751793
L 584.024109 99.77089
L 584.76986 114.615347
L 586.254475 114.676468
L 586.706517 111.50596
L 588.20001 97.952996
L 590.133659 73.401969
L 591.315355 83.894267
L 592.657823 83.426483
L 593.703379 87.193307
L 595.193705 94.485311
L 597.721763 112.564773
L 607.849676 170.095215
L 608.896117 139.947167
L 610.680887 135.985632
L 611.866243 120.268747
L 612.611986 116.57068
L 613.649183 117.498449
L 615.451788 127.305195
L 615.598052 136.850689
L 616.944488 132.963769
L 618.125041 130.299059
L 620.215806 129.408823
L 621.409645 138.22189
L 621.706859 138.806314
L 623.082867 144.380037
L 624.830058 145.894678
L 625.501373 146.18386
L 626.465023 129.31887
L 628.305197 131.64466
L 629.142199 135.354045
L 629.904579 135.682311
L 631.535612 134.267715
L 632.272034 124.529061
L 634.22051 119.719683
L 635.423355 123.18983
L 636.612379 125.514157
L 637.499523 136.61493
L 640.333969 144.415663
L 641.669049 149.419943
L 642.846295 143.805636
L 644.043569 137.45476
L 646.127061 135.526334
L 646.727254 131.603804
L 648.956528 115.057715
L 651.034368 92.323848
L 652.532257 62.571103
L 653.558056 53.965792
L 654.761581 55.640228
L 656.851271 40.571566
L 657.144692 37.253119
L 658.935958 42.025507
L 660.431772 41.166331
L 661.312719 54.369993
L 662.800562 71.63758
L 664.002634 81.315973
L 664.899033 102.379623
L 665.634114 109.756712
L 666.546844 110.918649
L 667.800763 142.656788
L 669.954694 145.80323
L 670.992582 146.380051
L 671.883206 143.222319
L 673.357477 143.200156
L 675.01794 149.266728
L 675.380975 149.423181
L 675.380975 149.423181
" clip-path="url(#pf4ed42fc29)" style="fill: none; stroke: #4cdc29; stroke-width: 1.5; stroke-linecap: square"/>
   </g>
   <g id="line2d_28">
    <path d="M 94.130413 210.04
L 94.130413 10.8
" clip-path="url(#pf4ed42fc29)" style="fill: none; stroke-dasharray: 3.7,1.6; stroke-dashoffset: 0; stroke: #30123b"/>
   </g>
   <g id="line2d_29">
    <path d="M 119.904248 210.04
L 119.904248 10.8
" clip-path="url(#pf4ed42fc29)" style="fill: none; stroke-dasharray: 3.7,1.6; stroke-dashoffset: 0; stroke: #4146ac"/>
   </g>
   <g id="line2d_30">
    <path d="M 133.608475 210.04
L 133.608475 10.8
" clip-path="url(#pf4ed42fc29)" style="fill: none; stroke-dasharray: 3.7,1.6; stroke-dashoffset: 0; stroke: #4776ee"/>
   </g>
   <g id="line2d_31">
    <path d="M 142.703189 210.04
L 142.703189 10.8
" clip-path="url(#pf4ed42fc29)" style="fill: none; stroke-dasharray: 3.7,1.6; stroke-dashoffset: 0; stroke: #3aa3fc"/>
   </g>
   <g id="line2d_32">
    <path d="M 192.531618 210.04
L 192.531618 10.8
" clip-path="url(#pf4ed42fc29)" style="fill: none; stroke-dasharray: 3.7,1.6; stroke-dashoffset: 0; stroke: #1bd0d5"/>
   </g>
   <g id="line2d_33">
    <path d="M 194.612382 210.04
L 194.612382 10.8
" clip-path="url(#pf4ed42fc29)" style="fill: none; stroke-dasharray: 3.7,1.6; stroke-dashoffset: 0; stroke: #25eca7"/>
   </g>
   <g id="line2d_34">
    <path d="M 225.899302 210.04
L 225.899302 10.8
" clip-path="url(#pf4ed42fc29)" style="fill: none; stroke-dasharray: 3.7,1.6; stroke-dashoffset: 0; stroke: #61fc6c"/>
   </g>
   <g id="line2d_35">
    <path d="M 242.12909 210.04
L 242.12909 10.8
" clip-path="url(#pf4ed42fc29)" style="fill: none; stroke-dasharray: 3.7,1.6; stroke-dashoffset: 0; stroke: #a4fc3c"/>
   </g>
   <g id="line2d_36">
    <path d="M 253.132609 210.04
L 253.132609 10.8
" clip-path="url(#pf4ed42fc29)" style="fill: none; stroke-dasharray: 3.7,1.6; stroke-dashoffset: 0; stroke: #d2e935"/>
   </g>
   <g id="line2d_37">
    <path d="M 409.351733 210.04
L 409.351733 10.8
" clip-path="url(#pf4ed42fc29)" style="fill: none; stroke-dasharray: 3.7,1.6; stroke-dashoffset: 0; stroke: #f4c73a"/>
   </g>
   <g id="line2d_38">
    <path d="M 420.218168 210.04
L 420.218168 10.8
" clip-path="url(#pf4ed42fc29)" style="fill: none; stroke-dasharray: 3.7,1.6; stroke-dashoffset: 0; stroke: #fe9b2d"/>
   </g>
   <g id="line2d_39">
    <path d="M 429.587589 210.04
L 429.587589 10.8
" clip-path="url(#pf4ed42fc29)" style="fill: none; stroke-dasharray: 3.7,1.6; stroke-dashoffset: 0; stroke: #f36315"/>
   </g>
   <g id="line2d_40">
    <path d="M 573.606105 210.04
L 573.606105 10.8
" clip-path="url(#pf4ed42fc29)" style="fill: none; stroke-dasharray: 3.7,1.6; stroke-dashoffset: 0; stroke: #da3907"/>
   </g>
   <g id="line2d_41">
    <path d="M 584.76986 210.04
L 584.76986 10.8
" clip-path="url(#pf4ed42fc29)" style="fill: none; stroke-dasharray: 3.7,1.6; stroke-dashoffset: 0; stroke: #b21a01"/>
   </g>
   <g id="line2d_42">
    <path d="M 656.851271 210.04
L 656.851271 10.8
" clip-path="url(#pf4ed42fc29)" style="fill: none; stroke-dasharray: 3.7,1.6; stroke-dashoffset: 0; stroke: #7a0403"/>
   </g>
   <g id="line2d_43">
    <path d="M 94.130413 210.04
L 94.130413 10.8
" clip-path="url(#pf4ed42fc29)" style="fill: none; stroke-dasharray: 3.7,1.6; stroke-dashoffset: 0; stroke: #30123b"/>
   </g>
   <g id="line2d_44">
    <path d="M 119.904248 210.04
L 119.904248 10.8
" clip-path="url(#pf4ed42fc29)" style="fill: none; stroke-dasharray: 3.7,1.6; stroke-dashoffset: 0; stroke: #4146ac"/>
   </g>
   <g id="line2d_45">
    <path d="M 133.608475 210.04
L 133.608475 10.8
" clip-path="url(#pf4ed42fc29)" style="fill: none; stroke-dasharray: 3.7,1.6; stroke-dashoffset: 0; stroke: #4776ee"/>
   </g>
   <g id="line2d_46">
    <path d="M 142.703189 210.04
L 142.703189 10.8
" clip-path="url(#pf4ed42fc29)" style="fill: none; stroke-dasharray: 3.7,1.6; stroke-dashoffset: 0; stroke: #3aa3fc"/>
   </g>
   <g id="line2d_47">
    <path d="M 192.531618 210.04
L 192.531618 10.8
" clip-path="url(#pf4ed42fc29)" style="fill: none; stroke-dasharray: 3.7,1.6; stroke-dashoffset: 0; stroke: #1bd0d5"/>
   </g>
   <g id="line2d_48">
    <path d="M 194.612382 210.04
L 194.612382 10.8
" clip-path="url(#pf4ed42fc29)" style="fill: none; stroke-dasharray: 3.7,1.6; stroke-dashoffset: 0; stroke: #25eca7"/>
   </g>
   <g id="line2d_49">
    <path d="M 225.899302 210.04
L 225.899302 10.8
" clip-path="url(#pf4ed42fc29)" style="fill: none; stroke-dasharray: 3.7,1.6; stroke-dashoffset: 0; stroke: #61fc6c"/>
   </g>
   <g id="line2d_50">
    <path d="M 242.12909 210.04
L 242.12909 10.8
" clip-path="url(#pf4ed42fc29)" style="fill: none; stroke-dasharray: 3.7,1.6; stroke-dashoffset: 0; stroke: #a4fc3c"/>
   </g>
   <g id="line2d_51">
    <path d="M 253.132609 210.04
L 253.132609 10.8
" clip-path="url(#pf4ed42fc29)" style="fill: none; stroke-dasharray: 3.7,1.6; stroke-dashoffset: 0; stroke: #d2e935"/>
   </g>
   <g id="line2d_52">
    <path d="M 409.351733 210.04
L 409.351733 10.8
" clip-path="url(#pf4ed42fc29)" style="fill: none; stroke-dasharray: 3.7,1.6; stroke-dashoffset: 0; stroke: #f4c73a"/>
   </g>
   <g id="line2d_53">
    <path d="M 420.218168 210.04
L 420.218168 10.8
" clip-path="url(#pf4ed42fc29)" style="fill: none; stroke-dasharray: 3.7,1.6; stroke-dashoffset: 0; stroke: #fe9b2d"/>
   </g>
   <g id="line2d_54">
    <path d="M 429.587589 210.04
L 429.587589 10.8
" clip-path="url(#pf4ed42fc29)" style="fill: none; stroke-dasharray: 3.7,1.6; stroke-dashoffset: 0; stroke: #f36315"/>
   </g>
   <g id="line2d_55">
    <path d="M 573.606105 210.04
L 573.606105 10.8
" clip-path="url(#pf4ed42fc29)" style="fill: none; stroke-dasharray: 3.7,1.6; stroke-dashoffset: 0; stroke: #da3907"/>
   </g>
   <g id="line2d_56">
    <path d="M 584.76986 210.04
L 584.76986 10.8
" clip-path="url(#pf4ed42fc29)" style="fill: none; stroke-dasharray: 3.7,1.6; stroke-dashoffset: 0; stroke: #b21a01"/>
   </g>
   <g id="line2d_57">
    <path d="M 656.851271 210.04
L 656.851271 10.8
" clip-path="url(#pf4ed42fc29)" style="fill: none; stroke-dasharray: 3.7,1.6; stroke-dashoffset: 0; stroke: #7a0403"/>
   </g>
   <g id="patch_3">
    <path d="M 33.64 210.04
L 33.64 10.8
" style="fill: none; stroke: #ffffff; stroke-linejoin: miter; stroke-linecap: square"/>
   </g>
   <g id="patch_4">
    <path d="M 705.940069 210.04
L 705.940069 10.8
" style="fill: none; stroke: #ffffff; stroke-linejoin: miter; stroke-linecap: square"/>
   </g>
   <g id="patch_5">
    <path d="M 33.639999 210.04
L 705.940069 210.04
" style="fill: none; stroke: #ffffff; stroke-linejoin: miter; stroke-linecap: square"/>
   </g>
   <g id="patch_6">
    <path d="M 33.639999 10.8
L 705.940069 10.8
" style="fill: none; stroke: #ffffff; stroke-linejoin: miter; stroke-linecap: square"/>
   </g>
   <g id="legend_1">
    <g id="patch_7">
     <path d="M 614.910382 33.478125
L 698.940069 33.478125
Q 700.940069 33.478125 700.940069 31.478125
L 700.940069 17.8
Q 700.940069 15.8 698.940069 15.8
L 614.910382 15.8
Q 612.910382 15.8 612.910382 17.8
L 612.910382 31.478125
Q 612.910382 33.478125 614.910382 33.478125
z
" style="fill: #1a1a2e; opacity: 0.9; stroke: #2a2a4a; stroke-linejoin: miter"/>
    </g>
    <g id="line2d_58">
     <path d="M 616.910382 23.898437
L 626.910382 23.898437
L 636.910382 23.898437
" style="fill: none; stroke: #4cdc29; stroke-width: 1.5; stroke-linecap: square"/>
    </g>
    <g id="text_15">
     <!-- plant-ness -->
     <g style="fill: #ffffff" transform="translate(644.910382 27.398437) scale(0.1 -0.1)">
      <defs>
       <path id="DejaVuSans-70" d="M 1159 525
L 1159 -1331
L 581 -1331
L 581 3500
L 1159 3500
L 1159 2969
Q 1341 3281 1617 3432
Q 1894 3584 2278 3584
Q 2916 3584 3314 3078
Q 3713 2572 3713 1747
Q 3713 922 3314 415
Q 2916 -91 2278 -91
Q 1894 -91 1617 61
Q 1341 213 1159 525
z
M 3116 1747
Q 3116 2381 2855 2742
Q 2594 3103 2138 3103
Q 1681 3103 1420 2742
Q 1159 2381 1159 1747
Q 1159 1113 1420 752
Q 1681 391 2138 391
Q 2594 391 2855 752
Q 3116 1113 3116 1747
z
" transform="scale(0.015625)"/>
       <path id="DejaVuSans-6c" d="M 603 4863
L 1178 4863
L 1178 0
L 603 0
L 603 4863
z
" transform="scale(0.015625)"/>
       <path id="DejaVuSans-61" d="M 2194 1759
Q 1497 1759 1228 1600
Q 959 1441 959 1056
Q 959 750 1161 570
Q 1363 391 1709 391
Q 2188 391 2477 730
Q 2766 1069 2766 1631
L 2766 1759
L 2194 1759
z
M 3341 1997
L 3341 0
L 2766 0
L 2766 531
Q 2569 213 2275 61
Q 1981 -91 1556 -91
Q 1019 -91 701 211
Q 384 513 384 1019
Q 384 1609 779 1909
Q 1175 2209 1959 2209
L 2766 2209
L 2766 2266
Q 2766 2663 2505 2880
Q 2244 3097 1772 3097
Q 1472 3097 1187 3025
Q 903 2953 641 2809
L 641 3341
Q 956 3463 1253 3523
Q 1550 3584 1831 3584
Q 2591 3584 2966 3190
Q 3341 2797 3341 1997
z
" transform="scale(0.015625)"/>
       <path id="DejaVuSans-6e" d="M 3513 2113
L 3513 0
L 2938 0
L 2938 2094
Q 2938 2591 2744 2837
Q 2550 3084 2163 3084
Q 1697 3084 1428 2787
Q 1159 2491 1159 1978
L 1159 0
L 581 0
L 581 3500
L 1159 3500
L 1159 2956
Q 1366 3272 1645 3428
Q 1925 3584 2291 3584
Q 2894 3584 3203 3211
Q 3513 2838 3513 2113
z
" transform="scale(0.015625)"/>
      </defs>
      <use xlink:href="#DejaVuSans-70"/>
      <use xlink:href="#DejaVuSans-6c" transform="translate(63.476562 0)"/>
      <use xlink:href="#DejaVuSans-61" transform="translate(91.259766 0)"/>
      <use xlink:href="#DejaVuSans-6e" transform="translate(152.539062 0)"/>
      <use xlink:href="#DejaVuSans-74" transform="translate(215.917969 0)"/>
      <use xlink:href="#DejaVuSans-2d" transform="translate(255.126953 0)"/>
      <use xlink:href="#DejaVuSans-6e" transform="translate(291.210938 0)"/>
      <use xlink:href="#DejaVuSans-65" transform="translate(354.589844 0)"/>
      <use xlink:href="#DejaVuSans-73" transform="translate(416.113281 0)"/>
      <use xlink:href="#DejaVuSans-73" transform="translate(468.212891 0)"/>
     </g>
    </g>
   </g>
  </g>
 </g>
 <defs>
  <clipPath id="pf4ed42fc29">
   <rect x="33.64" y="10.8" width="672.300069" height="199.24"/>
  </clipPath>
 </defs>
</svg>
