<?xml version="1.0" encoding="utf-8" standalone="no"?>
<!DOCTYPE svg PUBLIC "-//W3C//DTD SVG 1.1//EN"
  "http://www.w3.org/Graphics/SVG/1.1/DTD/svg11.dtd">
<svg xmlns:xlink="http://www.w3.org/1999/xlink" width="720pt" height="252pt" viewBox="0 0 720 252" xmlns="http://www.w3.org/2000/svg" version="1.1">
 <metadata>
  <rdf:RDF xmlns:dc="http://purl.org/dc/elements/1.1/" xmlns:cc="http://creativecommons.org/ns#" xmlns:rdf="http://www.w3.org/1999/02/22-rdf-syntax-ns#">
   <cc:Work>
    <dc:type rdf:resource="http://purl.org/dc/dcmitype/StillImage"/>
    <dc:date>1980-01-01T00:00:00+00:00</dc:date>
    <dc:format>image/svg+xml</dc:format>
    <dc:creator>
     <cc:Agent>
      <dc:title>Matplotlib v3.10.8, https://matplotlib.org/</dc:title>
     </cc:Agent>
    </dc:creator>
   </cc:Work>
  </rdf:RDF>
 </metadata>
 <defs>
  <style type="text/css">*{stroke-linejoin: round; stroke-linecap: butt}</style>
 </defs>
 <g id="figure_1">
  <g id="patch_1">
   <path d="M 0 252
L 720 252
L 720 0
L 0 0
L 0 252
z
" style="fill: none; opacity: 0"/>
  </g>
  <g id="axes_1">
   <g id="patch_2">
    <path d="M 54.61 210.04
L 706.241971 210.04
L 706.241971 10.8
L 54.61 10.8
z
" style="fill: #16213e"/>
   </g>
   <g id="matplotlib.axis_1">
    <g id="xtick_1">
     <g id="line2d_1">
      <path d="M 87.949385 210.04
L 87.949385 10.8
" clip-path="url(#p4cf7fc4b84)" style="fill: none; stroke: #2a2a4a; stroke-width: 0.5; stroke-linecap: square"/>
     </g>
     <g id="line2d_2">
      <defs>
       <path id="m300700d8fc" d="M 0 0
L 0 3.5
" style="stroke: #ffffff"/>
      </defs>
      <g>
       <use xlink:href="#m300700d8fc" x="87.949385" y="210.04" style="fill: #ffffff; stroke: #ffffff"/>
      </g>
     </g>
     <g id="text_1">
      <!-- 2s -->
      <g style="fill: #ffffff" transform="translate(82.163448 224.638438) scale(0.1 -0.1)">
       <defs>
        <path id="DejaVuSans-32" d="M 1228 531
L 3431 531
L 3431 0
L 469 0
L 469 531
Q 828 903 1448 1529
Q 2069 2156 2228 2338
Q 2531 2678 2651 2914
Q 2772 3150 2772 3378
Q 2772 3750 2511 3984
Q 2250 4219 1831 4219
Q 1534 4219 1204 4116
Q 875 4013 500 3803
L 500 4441
Q 881 4594 1212 4672
Q 1544 4750 1819 4750
Q 2544 4750 2975 4387
Q 3406 4025 3406 3419
Q 3406 3131 3298 2873
Q 3191 2616 2906 2266
Q 2828 2175 2409 1742
Q 1991 1309 1228 531
z
" transform="scale(0.015625)"/>
        <path id="DejaVuSans-73" d="M 2834 3397
L 2834 2853
Q 2591 2978 2328 3040
Q 2066 3103 1784 3103
Q 1356 3103 1142 2972
Q 928 2841 928 2578
Q 928 2378 1081 2264
Q 1234 2150 1697 2047
L 1894 2003
Q 2506 1872 2764 1633
Q 3022 1394 3022 966
Q 3022 478 2636 193
Q 2250 -91 1575 -91
Q 1294 -91 989 -36
Q 684 19 347 128
L 347 722
Q 666 556 975 473
Q 1284 391 1588 391
Q 1994 391 2212 530
Q 2431 669 2431 922
Q 2431 1156 2273 1281
Q 2116 1406 1581 1522
L 1381 1569
Q 847 1681 609 1914
Q 372 2147 372 2553
Q 372 3047 722 3315
Q 1072 3584 1716 3584
Q 2034 3584 2315 3537
Q 2597 3491 2834 3397
z
" transform="scale(0.015625)"/>
       </defs>
       <use xlink:href="#DejaVuSans-32"/>
       <use xlink:href="#DejaVuSans-73" transform="translate(63.623047 0)"/>
      </g>
     </g>
    </g>
    <g id="xtick_2">
     <g id="line2d_3">
      <path d="M 189.235362 210.04
L 189.235362 10.8
" clip-path="url(#p4cf7fc4b84)" style="fill: none; stroke: #2a2a4a; stroke-width: 0.5; stroke-linecap: square"/>
     </g>
     <g id="line2d_4">
      <g>
       <use xlink:href="#m300700d8fc" x="189.235362" y="210.04" style="fill: #ffffff; stroke: #ffffff"/>
      </g>
     </g>
     <g id="text_2">
      <!-- 52s -->
      <g style="fill: #ffffff" transform="translate(180.268175 224.638438) scale(0.1 -0.1)">
       <defs>
        <path id="DejaVuSans-35" d="M 691 4666
L 3169 4666
L 3169 4134
L 1269 4134
L 1269 2991
Q 1406 3038 1543 3061
Q 1681 3084 1819 3084
Q 2600 3084 3056 2656
Q 3513 2228 3513 1497
Q 3513 744 3044 326
Q 2575 -91 1722 -91
Q 1428 -91 1123 -41
Q 819 9 494 109
L 494 744
Q 775 591 1075 516
Q 1375 441 1709 441
Q 2250 441 2565 725
Q 2881 1009 2881 1497
Q 2881 1984 2565 2268
Q 2250 2553 1709 2553
Q 1456 2553 1204 2497
Q 953 2441 691 2322
L 691 4666
z
" transform="scale(0.015625)"/>
       </defs>
       <use xlink:href="#DejaVuSans-35"/>
       <use xlink:href="#DejaVuSans-32" transform="translate(63.623047 0)"/>
       <use xlink:href="#DejaVuSans-73" transform="translate(127.246094 0)"/>
      </g>
     </g>
    </g>
    <g id="xtick_3">
     <g id="line2d_5">
      <path d="M 290.521339 210.04
L 290.521339 10.8
" clip-path="url(#p4cf7fc4b84)" style="fill: none; stroke: #2a2a4a; stroke-width: 0.5; stroke-linecap: square"/>
     </g>
     <g id="line2d_6">
      <g>
       <use xlink:href="#m300700d8fc" x="290.521339" y="210.04" style="fill: #ffffff; stroke: #ffffff"/>
      </g>
     </g>
     <g id="text_3">
      <!-- 102s -->
      <g style="fill: #ffffff" transform="translate(278.372902 224.638438) scale(0.1 -0.1)">
       <defs>
        <path id="DejaVuSans-31" d="M 794 531
L 1825 531
L 1825 4091
L 703 3866
L 703 4441
L 1819 4666
L 2450 4666
L 2450 531
L 3481 531
L 3481 0
L 794 0
L 794 531
z
" transform="scale(0.015625)"/>
        <path id="DejaVuSans-30" d="M 2034 4250
Q 1547 4250 1301 3770
Q 1056 3291 1056 2328
Q 1056 1369 1301 889
Q 1547 409 2034 409
Q 2525 409 2770 889
Q 3016 1369 3016 2328
Q 3016 3291 2770 3770
Q 2525 4250 2034 4250
z
M 2034 4750
Q 2819 4750 3233 4129
Q 3647 3509 3647 2328
Q 3647 1150 3233 529
Q 2819 -91 2034 -91
Q 1250 -91 836 529
Q 422 1150 422 2328
Q 422 3509 836 4129
Q 1250 4750 2034 4750
z
" transform="scale(0.015625)"/>
       </defs>
       <use xlink:href="#DejaVuSans-31"/>
       <use xlink:href="#DejaVuSans-30" transform="translate(63.623047 0)"/>
       <use xlink:href="#DejaVuSans-32" transform="translate(127.246094 0)"/>
       <use xlink:href="#DejaVuSans-73" transform="translate(190.869141 0)"/>
      </g>
     </g>
    </g>
    <g id="xtick_4">
     <g id="line2d_7">
      <path d="M 391.807316 210.04
L 391.807316 10.8
" clip-path="url(#p4cf7fc4b84)" style="fill: none; stroke: #2a2a4a; stroke-width: 0.5; stroke-linecap: square"/>
     </g>
     <g id="line2d_8">
      <g>
       <use xlink:href="#m300700d8fc" x="391.807316" y="210.04" style="fill: #ffffff; stroke: #ffffff"/>
      </g>
     </g>
     <g id="text_4">
      <!-- 152s -->
      <g style="fill: #ffffff" transform="translate(379.658879 224.638438) scale(0.1 -0.1)">
       <use xlink:href="#DejaVuSans-31"/>
       <use xlink:href="#DejaVuSans-35" transform="translate(63.623047 0)"/>
       <use xlink:href="#DejaVuSans-32" transform="translate(127.246094 0)"/>
       <use xlink:href="#DejaVuSans-73" transform="translate(190.869141 0)"/>
      </g>
     </g>
    </g>
    <g id="xtick_5">
     <g id="line2d_9">
      <path d="M 493.093293 210.04
L 493.093293 10.8
" clip-path="url(#p4cf7fc4b84)" style="fill: none; stroke: #2a2a4a; stroke-width: 0.5; stroke-linecap: square"/>
     </g>
     <g id="line2d_10">
      <g>
       <use xlink:href="#m300700d8fc" x="493.093293" y="210.04" style="fill: #ffffff; stroke: #ffffff"/>
      </g>
     </g>
     <g id="text_5">
      <!-- 202s -->
      <g style="fill: #ffffff" transform="translate(480.944856 224.638438) scale(0.1 -0.1)">
       <use xlink:href="#DejaVuSans-32"/>
       <use xlink:href="#DejaVuSans-30" transform="translate(63.623047 0)"/>
       <use xlink:href="#DejaVuSans-32" transform="translate(127.246094 0)"/>
       <use xlink:href="#DejaVuSans-73" transform="translate(190.869141 0)"/>
      </g>
     </g>
    </g>
    <g id="xtick_6">
     <g id="line2d_11">
      <path d="M 594.379271 210.04
L 594.379271 10.8
" clip-path="url(#p4cf7fc4b84)" style="fill: none; stroke: #2a2a4a; stroke-width: 0.5; stroke-linecap: square"/>
     </g>
     <g id="line2d_12">
      <g>
       <use xlink:href="#m300700d8fc" x="594.379271" y="210.04" style="fill: #ffffff; stroke: #ffffff"/>
      </g>
     </g>
     <g id="text_6">
      <!-- 252s -->
      <g style="fill: #ffffff" transform="translate(582.230833 224.638438) scale(0.1 -0.1)">
       <use xlink:href="#DejaVuSans-32"/>
       <use xlink:href="#DejaVuSans-35" transform="translate(63.623047 0)"/>
       <use xlink:href="#DejaVuSans-32" transform="translate(127.246094 0)"/>
       <use xlink:href="#DejaVuSans-73" transform="translate(190.869141 0)"/>
      </g>
     </g>
    </g>
    <g id="xtick_7">
     <g id="line2d_13">
      <path d="M 695.665247 210.04
L 695.665247 10.8
" clip-path="url(#p4cf7fc4b84)" style="fill: none; stroke: #2a2a4a; stroke-width: 0.5; stroke-linecap: square"/>
     </g>
     <g id="line2d_14">
      <g>
       <use xlink:href="#m300700d8fc" x="695.665247" y="210.04" style="fill: #ffffff; stroke: #ffffff"/>
      </g>
     </g>
     <g id="text_7">
      <!-- 302s -->
      <g style="fill: #ffffff" transform="translate(683.51681 224.638438) scale(0.1 -0.1)">
       <defs>
        <path id="DejaVuSans-33" d="M 2597 2516
Q 3050 2419 3304 2112
Q 3559 1806 3559 1356
Q 3559 666 3084 287
Q 2609 -91 1734 -91
Q 1441 -91 1130 -33
Q 819 25 488 141
L 488 750
Q 750 597 1062 519
Q 1375 441 1716 441
Q 2309 441 2620 675
Q 2931 909 2931 1356
Q 2931 1769 2642 2001
Q 2353 2234 1838 2234
L 1294 2234
L 1294 2753
L 1863 2753
Q 2328 2753 2575 2939
Q 2822 3125 2822 3475
Q 2822 3834 2567 4026
Q 2313 4219 1838 4219
Q 1578 4219 1281 4162
Q 984 4106 628 3988
L 628 4550
Q 988 4650 1302 4700
Q 1616 4750 1894 4750
Q 2613 4750 3031 4423
Q 3450 4097 3450 3541
Q 3450 3153 3228 2886
Q 3006 2619 2597 2516
z
" transform="scale(0.015625)"/>
       </defs>
       <use xlink:href="#DejaVuSans-33"/>
       <use xlink:href="#DejaVuSans-30" transform="translate(63.623047 0)"/>
       <use xlink:href="#DejaVuSans-32" transform="translate(127.246094 0)"/>
       <use xlink:href="#DejaVuSans-73" transform="translate(190.869141 0)"/>
      </g>
     </g>
    </g>
    <g id="text_8">
     <!-- time (s) -->
     <g style="fill: #ffffff" transform="translate(361.034579 238.316563) scale(0.1 -0.1)">
      <defs>
       <path id="DejaVuSans-74" d="M 1172 4494
L 1172 3500
L 2356 3500
L 2356 3053
L 1172 3053
L 1172 1153
Q 1172 725 1289 603
Q 1406 481 1766 481
L 2356 481
L 2356 0
L 1766 0
Q 1100 0 847 248
Q 594 497 594 1153
L 594 3053
L 172 3053
L 172 3500
L 594 3500
L 594 4494
L 1172 4494
z
" transform="scale(0.015625)"/>
       <path id="DejaVuSans-69" d="M 603 3500
L 1178 3500
L 1178 0
L 603 0
L 603 3500
z
M 603 4863
L 1178 4863
L 1178 4134
L 603 4134
L 603 4863
z
" transform="scale(0.015625)"/>
       <path id="DejaVuSans-6d" d="M 3328 2828
Q 3544 3216 3844 3400
Q 4144 3584 4550 3584
Q 5097 3584 5394 3201
Q 5691 2819 5691 2113
L 5691 0
L 5113 0
L 5113 2094
Q 5113 2597 4934 2840
Q 4756 3084 4391 3084
Q 3944 3084 3684 2787
Q 3425 2491 3425 1978
L 3425 0
L 2847 0
L 2847 2094
Q 2847 2600 2669 2842
Q 2491 3084 2119 3084
Q 1678 3084 1418 2786
Q 1159 2488 1159 1978
L 1159 0
L 581 0
L 581 3500
L 1159 3500
L 1159 2956
Q 1356 3278 1631 3431
Q 1906 3584 2284 3584
Q 2666 3584 2933 3390
Q 3200 3197 3328 2828
z
" transform="scale(0.015625)"/>
       <path id="DejaVuSans-65" d="M 3597 1894
L 3597 1613
L 953 1613
Q 991 1019 1311 708
Q 1631 397 2203 397
Q 2534 397 2845 478
Q 3156 559 3463 722
L 3463 178
Q 3153 47 2828 -22
Q 2503 -91 2169 -91
Q 1331 -91 842 396
Q 353 884 353 1716
Q 353 2575 817 3079
Q 1281 3584 2069 3584
Q 2775 3584 3186 3129
Q 3597 2675 3597 1894
z
M 3022 2063
Q 3016 2534 2758 2815
Q 2500 3097 2075 3097
Q 1594 3097 1305 2825
Q 1016 2553 972 2059
L 3022 2063
z
" transform="scale(0.015625)"/>
       <path id="DejaVuSans-20" transform="scale(0.015625)"/>
       <path id="DejaVuSans-28" d="M 1984 4856
Q 1566 4138 1362 3434
Q 1159 2731 1159 2009
Q 1159 1288 1364 580
Q 1569 -128 1984 -844
L 1484 -844
Q 1016 -109 783 600
Q 550 1309 550 2009
Q 550 2706 781 3412
Q 1013 4119 1484 4856
L 1984 4856
z
" transform="scale(0.015625)"/>
       <path id="DejaVuSans-29" d="M 513 4856
L 1013 4856
Q 1481 4119 1714 3412
Q 1947 2706 1947 2009
Q 1947 1309 1714 600
Q 1481 -109 1013 -844
L 513 -844
Q 928 -128 1133 580
Q 1338 1288 1338 2009
Q 1338 2731 1133 3434
Q 928 4138 513 4856
z
" transform="scale(0.015625)"/>
      </defs>
      <use xlink:href="#DejaVuSans-74"/>
      <use xlink:href="#DejaVuSans-69" transform="translate(39.208984 0)"/>
      <use xlink:href="#DejaVuSans-6d" transform="translate(66.992188 0)"/>
      <use xlink:href="#DejaVuSans-65" transform="translate(164.404297 0)"/>
      <use xlink:href="#DejaVuSans-20" transform="translate(225.927734 0)"/>
      <use xlink:href="#DejaVuSans-28" transform="translate(257.714844 0)"/>
      <use xlink:href="#DejaVuSans-73" transform="translate(296.728516 0)"/>
      <use xlink:href="#DejaVuSans-29" transform="translate(348.828125 0)"/>
     </g>
    </g>
   </g>
   <g id="matplotlib.axis_2">
    <g id="ytick_1">
     <g id="line2d_15">
      <path d="M 54.61 191.349155
L 706.241971 191.349155
" clip-path="url(#p4cf7fc4b84)" style="fill: none; stroke: #2a2a4a; stroke-width: 0.5; stroke-linecap: square"/>
     </g>
     <g id="line2d_16">
      <defs>
       <path id="m5ec445b84a" d="M 0 0
L -3.5 0
" style="stroke: #ffffff"/>
      </defs>
      <g>
       <use xlink:href="#m5ec445b84a" x="54.61" y="191.349155" style="fill: #ffffff; stroke: #ffffff"/>
      </g>
     </g>
     <g id="text_9">
      <!-- −0.002 -->
      <g style="fill: #ffffff" transform="translate(10.602188 195.148374) scale(0.1 -0.1)">
       <defs>
        <path id="DejaVuSans-2212" d="M 678 2272
L 4684 2272
L 4684 1741
L 678 1741
L 678 2272
z
" transform="scale(0.015625)"/>
        <path id="DejaVuSans-2e" d="M 684 794
L 1344 794
L 1344 0
L 684 0
L 684 794
z
" transform="scale(0.015625)"/>
       </defs>
       <use xlink:href="#DejaVuSans-2212"/>
       <use xlink:href="#DejaVuSans-30" transform="translate(83.789062 0)"/>
       <use xlink:href="#DejaVuSans-2e" transform="translate(147.412109 0)"/>
       <use xlink:href="#DejaVuSans-30" transform="translate(179.199219 0)"/>
       <use xlink:href="#DejaVuSans-30" transform="translate(242.822266 0)"/>
       <use xlink:href="#DejaVuSans-32" transform="translate(306.445312 0)"/>
      </g>
     </g>
    </g>
    <g id="ytick_2">
     <g id="line2d_17">
      <path d="M 54.61 148.346144
L 706.241971 148.346144
" clip-path="url(#p4cf7fc4b84)" style="fill: none; stroke: #2a2a4a; stroke-width: 0.5; stroke-linecap: square"/>
     </g>
     <g id="line2d_18">
      <g>
       <use xlink:href="#m5ec445b84a" x="54.61" y="148.346144" style="fill: #ffffff; stroke: #ffffff"/>
      </g>
     </g>
     <g id="text_10">
      <!-- −0.001 -->
      <g style="fill: #ffffff" transform="translate(10.602188 152.145363) scale(0.1 -0.1)">
       <use xlink:href="#DejaVuSans-2212"/>
       <use xlink:href="#DejaVuSans-30" transform="translate(83.789062 0)"/>
       <use xlink:href="#DejaVuSans-2e" transform="translate(147.412109 0)"/>
       <use xlink:href="#DejaVuSans-30" transform="translate(179.199219 0)"/>
       <use xlink:href="#DejaVuSans-30" transform="translate(242.822266 0)"/>
       <use xlink:href="#DejaVuSans-31" transform="translate(306.445312 0)"/>
      </g>
     </g>
    </g>
    <g id="ytick_3">
     <g id="line2d_19">
      <path d="M 54.61 105.343134
L 706.241971 105.343134
" clip-path="url(#p4cf7fc4b84)" style="fill: none; stroke: #2a2a4a; stroke-width: 0.5; stroke-linecap: square"/>
     </g>
     <g id="line2d_20">
      <g>
       <use xlink:href="#m5ec445b84a" x="54.61" y="105.343134" style="fill: #ffffff; stroke: #ffffff"/>
      </g>
     </g>
     <g id="text_11">
      <!-- 0.000 -->
      <g style="fill: #ffffff" transform="translate(18.981875 109.142352) scale(0.1 -0.1)">
       <use xlink:href="#DejaVuSans-30"/>
       <use xlink:href="#DejaVuSans-2e" transform="translate(63.623047 0)"/>
       <use xlink:href="#DejaVuSans-30" transform="translate(95.410156 0)"/>
       <use xlink:href="#DejaVuSans-30" transform="translate(159.033203 0)"/>
       <use xlink:href="#DejaVuSans-30" transform="translate(222.65625 0)"/>
      </g>
     </g>
    </g>
    <g id="ytick_4">
     <g id="line2d_21">
      <path d="M 54.61 62.340123
L 706.241971 62.340123
" clip-path="url(#p4cf7fc4b84)" style="fill: none; stroke: #2a2a4a; stroke-width: 0.5; stroke-linecap: square"/>
     </g>
     <g id="line2d_22">
      <g>
       <use xlink:href="#m5ec445b84a" x="54.61" y="62.340123" style="fill: #ffffff; stroke: #ffffff"/>
      </g>
     </g>
     <g id="text_12">
      <!-- 0.001 -->
      <g style="fill: #ffffff" transform="translate(18.981875 66.139342) scale(0.1 -0.1)">
       <use xlink:href="#DejaVuSans-30"/>
       <use xlink:href="#DejaVuSans-2e" transform="translate(63.623047 0)"/>
       <use xlink:href="#DejaVuSans-30" transform="translate(95.410156 0)"/>
       <use xlink:href="#DejaVuSans-30" transform="translate(159.033203 0)"/>
       <use xlink:href="#DejaVuSans-31" transform="translate(222.65625 0)"/>
      </g>
     </g>
    </g>
    <g id="ytick_5">
     <g id="line2d_23">
      <path d="M 54.61 19.337112
L 706.241971 19.337112
" clip-path="url(#p4cf7fc4b84)" style="fill: none; stroke: #2a2a4a; stroke-width: 0.5; stroke-linecap: square"/>
     </g>
     <g id="line2d_24">
      <g>
       <use xlink:href="#m5ec445b84a" x="54.61" y="19.337112" style="fill: #ffffff; stroke: #ffffff"/>
      </g>
     </g>
     <g id="text_13">
      <!-- 0.002 -->
      <g style="fill: #ffffff" transform="translate(18.981875 23.136331) scale(0.1 -0.1)">
       <use xlink:href="#DejaVuSans-30"/>
       <use xlink:href="#DejaVuSans-2e" transform="translate(63.623047 0)"/>
       <use xlink:href="#DejaVuSans-30" transform="translate(95.410156 0)"/>
       <use xlink:href="#DejaVuSans-30" transform="translate(159.033203 0)"/>
       <use xlink:href="#DejaVuSans-32" transform="translate(222.65625 0)"/>
      </g>
     </g>
    </g>
   </g>
   <g id="line2d_25">
    <path d="M 84.229635 95.7214
L 85.368279 95.652354
L 86.491723 96.341721
L 88.770545 95.665041
L 89.911961 96.487133
L 91.053982 97.994017
L 92.197626 91.407583
L 93.333554 94.898576
L 94.472919 101.955405
L 95.611064 100.461818
L 96.74452 73.668926
L 97.883655 60.255615
L 99.026725 59.001251
L 100.172535 67.876343
L 101.296257 63.719771
L 102.447288 84.884584
L 103.58073 43.485683
L 104.715468 40.545231
L 105.868714 89.591881
L 106.996733 86.046967
L 108.13976 135.992989
L 109.276402 168.452692
L 110.427225 146.882811
L 111.554452 175.031501
L 112.693746 172.858917
L 114.980272 111.541151
L 116.109338 101.534539
L 117.241748 113.532641
L 118.379574 94.803729
L 119.530036 97.891667
L 120.656018 95.565619
L 121.787721 112.595634
L 122.926855 118.133746
L 123.939762 117.090241
L 125.065993 116.591667
L 126.083573 94.118937
L 127.206762 73.0985
L 128.340127 43.341003
L 129.509508 66.313405
L 130.625659 75.702808
L 131.775464 72.403156
L 132.893898 73.850204
L 134.034318 100.149157
L 135.178431 96.190331
L 136.323544 93.197301
L 137.443085 99.931709
L 138.589461 69.956581
L 139.729291 72.318983
L 140.876907 76.839147
L 142.009439 40.389206
L 143.158902 19.856364
L 144.303701 28.931947
L 145.4231 20.949884
L 146.573783 32.923588
L 147.709913 33.93995
L 149.982882 90.116499
L 151.119457 62.448694
L 152.136481 63.941183
L 153.260166 65.178347
L 154.392013 67.98339
L 155.529434 102.677282
L 156.67628 98.032078
L 157.819436 99.894868
L 158.983345 65.646606
L 160.097209 42.339036
L 161.24248 89.459887
L 162.373067 85.479408
L 163.523758 123.161328
L 164.650895 91.124626
L 165.791531 119.115096
L 166.931841 173.203722
L 168.07789 174.525974
L 169.21768 131.00115
L 170.344731 154.029424
L 171.476904 142.649202
L 172.609313 100.705615
L 173.760406 87.929642
L 174.886737 110.151805
L 176.025371 124.481628
L 177.154146 110.010052
L 178.317729 99.381106
L 180.572675 121.445353
L 181.721093 98.812815
L 182.852225 117.849142
L 183.994072 101.493977
L 185.00813 105.821274
L 186.124239 98.145468
L 187.278961 83.131035
L 188.41307 100.374107
L 189.546433 135.658065
L 190.562193 131.518267
L 191.696332 117.050473
L 192.826424 124.328103
L 193.964972 93.781756
L 195.105046 76.7468
L 196.244437 100.68811
L 197.404643 127.811106
L 198.527109 123.818733
L 199.544326 146.615591
L 200.664138 147.039385
L 201.811524 141.140488
L 202.945055 143.90869
L 204.097427 147.814572
L 205.216174 144.695344
L 206.352487 135.473311
L 207.491494 144.147486
L 208.617531 150.63218
L 209.755376 129.612414
L 210.881916 157.096502
L 212.022369 174.97807
L 213.164959 112.536164
L 214.28749 129.253824
L 215.424028 119.631724
L 216.555548 107.594829
L 217.693254 129.681094
L 218.820941 137.163912
L 219.9815 98.853804
L 221.096257 128.380313
L 222.244012 100.355442
L 223.379974 114.234329
L 224.52443 116.703044
L 225.649176 102.580727
L 226.806153 100.906838
L 227.92805 97.222978
L 229.072176 99.651803
L 230.223563 111.385369
L 231.357429 120.490108
L 232.50825 89.8125
L 233.63768 82.878455
L 234.784887 149.978129
L 235.930111 131.398838
L 237.061415 85.827019
L 238.202228 123.437514
L 239.34258 139.922538
L 240.474201 144.37457
L 241.636297 156.476852
L 242.75147 185.064159
L 243.889002 162.295236
L 245.042063 156.343517
L 246.174428 138.042974
L 247.308207 143.194742
L 248.431843 128.617645
L 249.448764 145.879502
L 250.58418 140.173472
L 251.695513 161.779218
L 252.83928 137.701889
L 253.9794 129.266816
L 255.115817 105.845977
L 256.25497 93.809204
L 257.395707 89.241647
L 258.536292 100.750081
L 259.670278 100.541965
L 260.807291 71.853834
L 261.955374 125.22955
L 263.092784 161.367318
L 264.232011 146.224674
L 265.281923 158.176908
L 266.365992 159.049016
L 267.51294 156.739009
L 268.654179 185.482524
L 269.796225 161.748598
L 270.929048 111.625873
L 272.063457 93.713381
L 273.192842 50.888171
L 274.33481 116.434361
L 275.476894 105.070303
L 276.600812 98.96329
L 277.751257 98.126132
L 278.870444 104.622416
L 280.045914 106.01774
L 281.149396 104.691584
L 282.294289 103.694009
L 284.57993 105.995415
L 285.719359 105.197355
L 286.844486 104.774781
L 288.011997 105.565461
L 289.130685 105.737528
L 290.282063 105.726732
L 291.402259 104.761362
L 292.548829 115.10296
L 293.700181 103.41642
L 294.826242 107.517182
L 295.955599 103.163535
L 297.103317 105.970041
L 298.230128 103.792333
L 299.373649 97.642197
L 300.50843 97.894778
L 301.660281 99.258994
L 302.804229 98.910346
L 303.931888 94.6438
L 305.075309 88.179478
L 306.210386 85.817138
L 307.36557 105.041269
L 308.489344 99.955131
L 309.625342 102.243241
L 310.768148 98.094354
L 311.914697 101.023522
L 313.045588 103.395072
L 314.186262 101.520937
L 315.30632 97.436278
L 316.455001 95.489314
L 317.588317 104.307986
L 318.736561 104.153973
L 319.874865 105.235416
L 321.012631 105.226938
L 322.143802 105.036694
L 323.156717 104.633273
L 324.280832 105.455609
L 327.711612 105.32331
L 328.830893 105.222851
L 329.974961 103.217698
L 331.117402 105.490498
L 332.250366 105.366434
L 333.39344 106.051287
L 334.535342 103.557563
L 335.666772 110.745958
L 336.80885 104.523969
L 337.952795 104.9022
L 339.092476 104.200512
L 340.225227 105.376864
L 341.367173 103.94049
L 342.507042 104.856332
L 343.648985 99.401662
L 344.777985 99.423376
L 345.794991 74.594405
L 346.911842 102.215244
L 348.059931 111.01397
L 349.196396 95.944032
L 350.35166 98.321683
L 351.474825 95.459304
L 352.628996 99.962573
L 353.745318 96.17679
L 354.890289 101.216144
L 356.028714 100.133115
L 357.172889 104.523421
L 358.309148 105.715692
L 359.433041 79.487493
L 360.576121 102.244887
L 361.709735 105.399676
L 362.864358 105.671165
L 363.994963 106.712962
L 365.139789 105.848417
L 366.269945 104.587465
L 367.416478 106.313322
L 368.432728 105.572597
L 369.543235 103.904442
L 370.687495 103.261981
L 371.823485 106.074404
L 374.106121 104.455899
L 375.23562 101.498063
L 376.392682 104.383986
L 377.520526 102.503995
L 378.658031 112.358607
L 379.79474 107.942379
L 380.932299 106.081052
L 382.080331 109.698977
L 383.21754 109.208149
L 384.247184 105.840061
L 385.354949 105.339108
L 387.621717 105.306049
L 388.776411 104.840412
L 389.895395 105.276039
L 393.318492 105.374729
L 394.467473 105.61566
L 395.60387 105.539477
L 396.73601 105.268781
L 397.88574 107.061
L 399.00899 102.974389
L 400.145576 101.052067
L 401.290133 97.841163
L 402.421882 101.609989
L 403.56728 100.24315
L 404.708023 103.003606
L 405.857655 103.280218
L 406.987998 104.595395
L 408.143872 92.195761
L 409.25242 71.420342
L 410.407566 73.626535
L 411.543745 95.867545
L 412.687826 100.053638
L 413.828863 103.135355
L 414.957416 99.175614
L 416.104233 105.012601
L 417.236229 109.988948
L 418.249125 117.094206
L 419.384324 170.45876
L 420.531008 136.758539
L 421.652662 141.945623
L 422.799328 118.858733
L 423.94587 157.991727
L 425.071615 200.983636
L 426.2095 170.022279
L 427.3571 148.925171
L 428.493665 137.19868
L 429.635779 97.874649
L 430.786001 115.007869
L 431.907292 139.798413
L 433.035467 139.077268
L 434.182123 148.960731
L 435.313864 141.893412
L 436.465963 130.984255
L 437.602035 117.188687
L 438.726743 107.391288
L 439.866082 81.562851
L 441.01458 94.876923
L 442.148315 84.222421
L 443.283573 95.720668
L 444.43217 109.67647
L 445.550484 98.701987
L 446.704441 104.214724
L 447.827969 105.63097
L 450.100346 102.803054
L 451.253443 108.11835
L 452.385786 107.580373
L 453.527653 99.319989
L 454.54278 108.655351
L 455.653193 100.312258
L 456.817058 100.520129
L 457.932405 100.335863
L 459.068935 103.578972
L 460.093225 105.888979
L 461.224013 96.784362
L 462.353033 96.957649
L 463.492036 97.886787
L 464.633827 88.818341
L 465.800061 114.029202
L 466.919665 103.523101
L 468.054875 115.81276
L 469.187404 113.01894
L 470.329628 98.867406
L 471.349887 127.82666
L 472.452391 132.137245
L 473.468448 141.090045
L 474.599295 144.518397
L 475.756189 172.886975
L 476.891244 188.150206
L 478.020728 161.755186
L 479.149134 178.875718
L 480.28553 138.336299
L 481.434281 157.788918
L 482.578273 113.800715
L 483.697093 84.15496
L 484.853938 78.467472
L 485.978224 61.987937
L 487.131445 47.863851
L 488.259836 59.138429
L 489.405332 58.354947
L 490.533835 72.096412
L 491.547703 75.816137
L 494.949591 100.192524
L 496.098216 103.772388
L 498.371708 112.545984
L 499.50794 100.24742
L 500.653853 103.107846
L 501.772536 100.423391
L 502.91509 101.039502
L 503.935709 105.75668
L 505.066872 104.728852
L 506.189553 102.63489
L 507.33331 98.356511
L 509.614285 97.306297
L 510.748461 102.657336
L 511.878266 103.378786
L 512.90953 104.779661
L 514.021254 105.431028
L 515.148388 105.463721
L 516.293741 105.640668
L 517.432252 104.950569
L 518.575015 106.295267
L 519.704323 110.090931
L 520.857272 105.469943
L 521.999527 105.323066
L 523.120938 105.390161
L 524.28147 105.581137
L 525.400264 105.11489
L 526.547361 104.516345
L 527.690523 105.728745
L 528.816476 105.128431
L 531.099039 108.303226
L 532.239974 107.229712
L 533.38222 107.243924
L 534.517497 109.803949
L 535.661205 106.735286
L 536.796057 109.960951
L 537.931135 103.700536
L 539.080481 107.06655
L 540.214509 94.076362
L 541.357447 100.669994
L 542.484663 92.470544
L 544.767091 104.720862
L 545.90025 100.185144
L 547.037215 103.807094
L 548.18679 105.98407
L 549.32257 103.682054
L 550.451033 104.80351
L 551.600113 131.276909
L 552.749119 93.257198
L 553.870965 100.327019
L 555.038795 106.066963
L 556.156792 106.297585
L 557.29549 107.070515
L 558.441358 105.348928
L 559.575815 105.311965
L 560.706807 105.765342
L 561.840637 106.659042
L 562.982679 104.951301
L 564.125013 105.192598
L 565.293259 105.323981
L 566.412188 99.039351
L 567.550159 97.981452
L 568.678998 94.358099
L 569.822484 83.915188
L 570.951021 83.339151
L 572.102404 91.425942
L 573.234936 92.61858
L 574.248659 96.332815
L 575.363796 89.385412
L 576.512286 75.877315
L 577.65414 96.137448
L 578.789767 62.306637
L 579.923743 87.853276
L 581.074805 76.379854
L 582.198421 79.354158
L 583.352151 94.155412
L 584.476574 100.395577
L 585.626919 112.391789
L 586.754518 103.37592
L 587.921453 86.970006
L 589.031372 88.907089
L 590.172937 104.759777
L 591.320549 160.110575
L 592.444987 169.029217
L 593.59489 151.101049
L 595.866707 193.610365
L 597.012065 161.018609
L 598.166208 123.822942
L 599.278259 126.468665
L 600.431688 115.769758
L 601.569079 118.754737
L 602.698047 144.86918
L 603.829977 140.108512
L 604.981625 130.021081
L 606.106757 113.952714
L 607.259395 103.522552
L 608.388833 99.644666
L 609.404558 94.813549
L 611.674818 117.844446
L 612.805368 134.395101
L 613.82123 135.12326
L 614.950502 131.16846
L 616.088641 130.85098
L 617.216693 122.417615
L 618.372322 117.512388
L 619.501977 127.036896
L 620.641153 133.656023
L 621.791407 144.312294
L 624.05997 162.572581
L 625.205767 160.165409
L 626.361402 149.115842
L 627.479535 123.388352
L 628.61561 121.032233
L 629.636465 135.780543
L 630.760157 154.107193
L 631.905244 160.962188
L 633.031952 166.89323
L 636.438748 114.157597
L 637.576612 110.231586
L 638.754015 119.126136
L 639.87027 137.304689
L 641.008934 164.620186
L 642.142328 166.038872
L 643.290496 148.017198
L 644.420708 132.106503
L 645.545923 120.570378
L 646.69028 126.77053
L 647.822193 133.5394
L 648.96305 144.402506
L 650.106959 126.699593
L 651.235829 122.809813
L 652.392907 114.735098
L 654.657928 150.849749
L 655.784253 157.236119
L 656.934586 150.077063
L 658.064832 137.14537
L 659.21237 121.350871
L 660.347379 115.59391
L 661.365333 112.052595
L 662.493452 105.150999
L 663.630857 99.987764
L 664.793512 93.10837
L 665.896201 108.545682
L 667.054348 99.231729
L 668.198973 95.785018
L 669.378462 98.728093
L 670.464173 113.830602
L 671.783347 106.074038
L 672.876952 102.869355
L 674.2295 89.70649
L 675.308526 105.27305
L 676.622335 113.101772
L 676.622335 113.101772
" clip-path="url(#p4cf7fc4b84)" style="fill: none; stroke: #4cdc29; stroke-width: 1.5; stroke-linecap: square"/>
   </g>
   <g id="line2d_26">
    <path d="M 54.61 105.343134
L 706.241971 105.343134
" clip-path="url(#p4cf7fc4b84)" style="fill: none; stroke-dasharray: 3.7,1.6; stroke-dashoffset: 0; stroke: #e74c3c"/>
   </g>
   <g id="patch_3">
    <path d="M 54.61 210.04
L 54.61 10.8
" style="fill: none; stroke: #ffffff; stroke-linejoin: miter; stroke-linecap: square"/>
   </g>
   <g id="patch_4">
    <path d="M 706.241971 210.04
L 706.241971 10.8
" style="fill: none; stroke: #ffffff; stroke-linejoin: miter; stroke-linecap: square"/>
   </g>
   <g id="patch_5">
    <path d="M 54.61 210.04
L 706.241971 210.04
" style="fill: none; stroke: #ffffff; stroke-linejoin: miter; stroke-linecap: square"/>
   </g>
   <g id="patch_6">
    <path d="M 54.61 10.8
L 706.241971 10.8
" style="fill: none; stroke: #ffffff; stroke-linejoin: miter; stroke-linecap: square"/>
   </g>
   <g id="legend_1">
    <g id="patch_7">
     <path d="M 579.906033 33.478125
L 699.241971 33.478125
Q 701.241971 33.478125 701.241971 31.478125
L 701.241971 17.8
Q 701.241971 15.8 699.241971 15.8
L 579.906033 15.8
Q 577.906033 15.8 577.906033 17.8
L 577.906033 31.478125
Q 577.906033 33.478125 579.906033 33.478125
z
" style="fill: #1a1a2e; opacity: 0.9; stroke: #2a2a4a; stroke-linejoin: miter"/>
    </g>
    <g id="line2d_27">
     <path d="M 581.906033 23.898437
L 591.906033 23.898437
L 601.906033 23.898437
" style="fill: none; stroke: #4cdc29; stroke-width: 1.5; stroke-linecap: square"/>
    </g>
    <g id="text_14">
     <!-- delta (fast - slow) -->
     <g style="fill: #ffffff" transform="translate(609.906033 27.398437) scale(0.1 -0.1)">
      <defs>
       <path id="DejaVuSans-64" d="M 2906 2969
L 2906 4863
L 3481 4863
L 3481 0
L 2906 0
L 2906 525
Q 2725 213 2448 61
Q 2172 -91 1784 -91
Q 1150 -91 751 415
Q 353 922 353 1747
Q 353 2572 751 3078
Q 1150 3584 1784 3584
Q 2172 3584 2448 3432
Q 2725 3281 2906 2969
z
M 947 1747
Q 947 1113 1208 752
Q 1469 391 1925 391
Q 2381 391 2643 752
Q 2906 1113 2906 1747
Q 2906 2381 2643 2742
Q 2381 3103 1925 3103
Q 1469 3103 1208 2742
Q 947 2381 947 1747
z
" transform="scale(0.015625)"/>
       <path id="DejaVuSans-6c" d="M 603 4863
L 1178 4863
L 1178 0
L 603 0
L 603 4863
z
" transform="scale(0.015625)"/>
       <path id="DejaVuSans-61" d="M 2194 1759
Q 1497 1759 1228 1600
Q 959 1441 959 1056
Q 959 750 1161 570
Q 1363 391 1709 391
Q 2188 391 2477 730
Q 2766 1069 2766 1631
L 2766 1759
L 2194 1759
z
M 3341 1997
L 3341 0
L 2766 0
L 2766 531
Q 2569 213 2275 61
Q 1981 -91 1556 -91
Q 1019 -91 701 211
Q 384 513 384 1019
Q 384 1609 779 1909
Q 1175 2209 1959 2209
L 2766 2209
L 2766 2266
Q 2766 2663 2505 2880
Q 2244 3097 1772 3097
Q 1472 3097 1187 3025
Q 903 2953 641 2809
L 641 3341
Q 956 3463 1253 3523
Q 1550 3584 1831 3584
Q 2591 3584 2966 3190
Q 3341 2797 3341 1997
z
" transform="scale(0.015625)"/>
       <path id="DejaVuSans-66" d="M 2375 4863
L 2375 4384
L 1825 4384
Q 1516 4384 1395 4259
Q 1275 4134 1275 3809
L 1275 3500
L 2222 3500
L 2222 3053
L 1275 3053
L 1275 0
L 697 0
L 697 3053
L 147 3053
L 147 3500
L 697 3500
L 697 3744
Q 697 4328 969 4595
Q 1241 4863 1831 4863
L 2375 4863
z
" transform="scale(0.015625)"/>
       <path id="DejaVuSans-2d" d="M 313 2009
L 1997 2009
L 1997 1497
L 313 1497
L 313 2009
z
" transform="scale(0.015625)"/>
       <path id="DejaVuSans-6f" d="M 1959 3097
Q 1497 3097 1228 2736
Q 959 2375 959 1747
Q 959 1119 1226 758
Q 1494 397 1959 397
Q 2419 397 2687 759
Q 2956 1122 2956 1747
Q 2956 2369 2687 2733
Q 2419 3097 1959 3097
z
M 1959 3584
Q 2709 3584 3137 3096
Q 3566 2609 3566 1747
Q 3566 888 3137 398
Q 2709 -91 1959 -91
Q 1206 -91 779 398
Q 353 888 353 1747
Q 353 2609 779 3096
Q 1206 3584 1959 3584
z
" transform="scale(0.015625)"/>
       <path id="DejaVuSans-77" d="M 269 3500
L 844 3500
L 1563 769
L 2278 3500
L 2956 3500
L 3675 769
L 4391 3500
L 4966 3500
L 4050 0
L 3372 0
L 2619 2869
L 1863 0
L 1184 0
L 269 3500
z
" transform="scale(0.015625)"/>
      </defs>
      <use xlink:href="#DejaVuSans-64"/>
      <use xlink:href="#DejaVuSans-65" transform="translate(63.476562 0)"/>
      <use xlink:href="#DejaVuSans-6c" transform="translate(125 0)"/>
      <use xlink:href="#DejaVuSans-74" transform="translate(152.783203 0)"/>
      <use xlink:href="#DejaVuSans-61" transform="translate(191.992188 0)"/>
      <use xlink:href="#DejaVuSans-20" transform="translate(253.271484 0)"/>
      <use xlink:href="#DejaVuSans-28" transform="translate(285.058594 0)"/>
      <use xlink:href="#DejaVuSans-66" transform="translate(324.072266 0)"/>
      <use xlink:href="#DejaVuSans-61" transform="translate(359.277344 0)"/>
      <use xlink:href="#DejaVuSans-73" transform="translate(420.556641 0)"/>
      <use xlink:href="#DejaVuSans-74" transform="translate(472.65625 0)"/>
      <use xlink:href="#DejaVuSans-20" transform="translate(511.865234 0)"/>
      <use xlink:href="#DejaVuSans-2d" transform="translate(543.652344 0)"/>
      <use xlink:href="#DejaVuSans-20" transform="translate(579.736328 0)"/>
      <use xlink:href="#DejaVuSans-73" transform="translate(611.523438 0)"/>
      <use xlink:href="#DejaVuSans-6c" transform="translate(663.623047 0)"/>
      <use xlink:href="#DejaVuSans-6f" transform="translate(691.40625 0)"/>
      <use xlink:href="#DejaVuSans-77" transform="translate(752.587891 0)"/>
      <use xlink:href="#DejaVuSans-29" transform="translate(834.375 0)"/>
     </g>
    </g>
   </g>
  </g>
 </g>
 <defs>
  <clipPath id="p4cf7fc4b84">
   <rect x="54.61" y="10.8" width="651.631971" height="199.24"/>
  </clipPath>
 </defs>
</svg>
