<?xml version="1.0" encoding="utf-8" standalone="no"?>
<!DOCTYPE svg PUBLIC "-//W3C//DTD SVG 1.1//EN"
  "http://www.w3.org/Graphics/SVG/1.1/DTD/svg11.dtd">
<svg xmlns:xlink="http://www.w3.org/1999/xlink" width="720pt" height="252pt" viewBox="0 0 720 252" xmlns="http://www.w3.org/2000/svg" version="1.1">
 <metadata>
  <rdf:RDF xmlns:dc="http://purl.org/dc/elements/1.1/" xmlns:cc="http://creativecommons.org/ns#" xmlns:rdf="http://www.w3.org/1999/02/22-rdf-syntax-ns#">
   <cc:Work>
    <dc:type rdf:resource="http://purl.org/dc/dcmitype/StillImage"/>
    <dc:date>1980-01-01T00:00:00+00:00</dc:date>
    <dc:format>image/svg+xml</dc:format>
    <dc:creator>
     <cc:Agent>
      <dc:title>Matplotlib v3.10.8, https://matplotlib.org/</dc:title>
     </cc:Agent>
    </dc:creator>
   </cc:Work>
  </rdf:RDF>
 </metadata>
 <defs>
  <style type="text/css">*{stroke-linejoin: round; stroke-linecap: butt}</style>
 </defs>
 <g id="figure_1">
  <g id="patch_1">
   <path d="M 0 252
L 720 252
L 720 0
L 0 0
L 0 252
z
" style="fill: none; opacity: 0"/>
  </g>
  <g id="axes_1">
   <g id="patch_2">
    <path d="M 33.64 210.04
L 704.181003 210.04
L 704.181003 10.8
L 33.64 10.8
z
" style="fill: #16213e"/>
   </g>
   <g id="matplotlib.axis_1">
    <g id="xtick_1">
     <g id="line2d_1">
      <path d="M 61.512218 210.04
L 61.512218 10.8
" clip-path="url(#p18514ce328)" style="fill: none; stroke: #2a2a4a; stroke-width: 0.5; stroke-linecap: square"/>
     </g>
     <g id="line2d_2">
      <defs>
       <path id="m5a0c255663" d="M 0 0
L 0 3.5
" style="stroke: #ffffff"/>
      </defs>
      <g>
       <use xlink:href="#m5a0c255663" x="61.512218" y="210.04" style="fill: #ffffff; stroke: #ffffff"/>
      </g>
     </g>
     <g id="text_1">
      <!-- -1s -->
      <g style="fill: #ffffff" transform="translate(53.922374 224.638438) scale(0.1 -0.1)">
       <defs>
        <path id="DejaVuSans-2d" d="M 313 2009
L 1997 2009
L 1997 1497
L 313 1497
L 313 2009
z
" transform="scale(0.015625)"/>
        <path id="DejaVuSans-31" d="M 794 531
L 1825 531
L 1825 4091
L 703 3866
L 703 4441
L 1819 4666
L 2450 4666
L 2450 531
L 3481 531
L 3481 0
L 794 0
L 794 531
z
" transform="scale(0.015625)"/>
        <path id="DejaVuSans-73" d="M 2834 3397
L 2834 2853
Q 2591 2978 2328 3040
Q 2066 3103 1784 3103
Q 1356 3103 1142 2972
Q 928 2841 928 2578
Q 928 2378 1081 2264
Q 1234 2150 1697 2047
L 1894 2003
Q 2506 1872 2764 1633
Q 3022 1394 3022 966
Q 3022 478 2636 193
Q 2250 -91 1575 -91
Q 1294 -91 989 -36
Q 684 19 347 128
L 347 722
Q 666 556 975 473
Q 1284 391 1588 391
Q 1994 391 2212 530
Q 2431 669 2431 922
Q 2431 1156 2273 1281
Q 2116 1406 1581 1522
L 1381 1569
Q 847 1681 609 1914
Q 372 2147 372 2553
Q 372 3047 722 3315
Q 1072 3584 1716 3584
Q 2034 3584 2315 3537
Q 2597 3491 2834 3397
z
" transform="scale(0.015625)"/>
       </defs>
       <use xlink:href="#DejaVuSans-2d"/>
       <use xlink:href="#DejaVuSans-31" transform="translate(36.083984 0)"/>
       <use xlink:href="#DejaVuSans-73" transform="translate(99.707031 0)"/>
      </g>
     </g>
    </g>
    <g id="xtick_2">
     <g id="line2d_3">
      <path d="M 167.20449 210.04
L 167.20449 10.8
" clip-path="url(#p18514ce328)" style="fill: none; stroke: #2a2a4a; stroke-width: 0.5; stroke-linecap: square"/>
     </g>
     <g id="line2d_4">
      <g>
       <use xlink:href="#m5a0c255663" x="167.20449" y="210.04" style="fill: #ffffff; stroke: #ffffff"/>
      </g>
     </g>
     <g id="text_2">
      <!-- 49s -->
      <g style="fill: #ffffff" transform="translate(158.237302 224.638438) scale(0.1 -0.1)">
       <defs>
        <path id="DejaVuSans-34" d="M 2419 4116
L 825 1625
L 2419 1625
L 2419 4116
z
M 2253 4666
L 3047 4666
L 3047 1625
L 3713 1625
L 3713 1100
L 3047 1100
L 3047 0
L 2419 0
L 2419 1100
L 313 1100
L 313 1709
L 2253 4666
z
" transform="scale(0.015625)"/>
        <path id="DejaVuSans-39" d="M 703 97
L 703 672
Q 941 559 1184 500
Q 1428 441 1663 441
Q 2288 441 2617 861
Q 2947 1281 2994 2138
Q 2813 1869 2534 1725
Q 2256 1581 1919 1581
Q 1219 1581 811 2004
Q 403 2428 403 3163
Q 403 3881 828 4315
Q 1253 4750 1959 4750
Q 2769 4750 3195 4129
Q 3622 3509 3622 2328
Q 3622 1225 3098 567
Q 2575 -91 1691 -91
Q 1453 -91 1209 -44
Q 966 3 703 97
z
M 1959 2075
Q 2384 2075 2632 2365
Q 2881 2656 2881 3163
Q 2881 3666 2632 3958
Q 2384 4250 1959 4250
Q 1534 4250 1286 3958
Q 1038 3666 1038 3163
Q 1038 2656 1286 2365
Q 1534 2075 1959 2075
z
" transform="scale(0.015625)"/>
       </defs>
       <use xlink:href="#DejaVuSans-34"/>
       <use xlink:href="#DejaVuSans-39" transform="translate(63.623047 0)"/>
       <use xlink:href="#DejaVuSans-73" transform="translate(127.246094 0)"/>
      </g>
     </g>
    </g>
    <g id="xtick_3">
     <g id="line2d_5">
      <path d="M 272.896762 210.04
L 272.896762 10.8
" clip-path="url(#p18514ce328)" style="fill: none; stroke: #2a2a4a; stroke-width: 0.5; stroke-linecap: square"/>
     </g>
     <g id="line2d_6">
      <g>
       <use xlink:href="#m5a0c255663" x="272.896762" y="210.04" style="fill: #ffffff; stroke: #ffffff"/>
      </g>
     </g>
     <g id="text_3">
      <!-- 99s -->
      <g style="fill: #ffffff" transform="translate(263.929574 224.638438) scale(0.1 -0.1)">
       <use xlink:href="#DejaVuSans-39"/>
       <use xlink:href="#DejaVuSans-39" transform="translate(63.623047 0)"/>
       <use xlink:href="#DejaVuSans-73" transform="translate(127.246094 0)"/>
      </g>
     </g>
    </g>
    <g id="xtick_4">
     <g id="line2d_7">
      <path d="M 378.589034 210.04
L 378.589034 10.8
" clip-path="url(#p18514ce328)" style="fill: none; stroke: #2a2a4a; stroke-width: 0.5; stroke-linecap: square"/>
     </g>
     <g id="line2d_8">
      <g>
       <use xlink:href="#m5a0c255663" x="378.589034" y="210.04" style="fill: #ffffff; stroke: #ffffff"/>
      </g>
     </g>
     <g id="text_4">
      <!-- 149s -->
      <g style="fill: #ffffff" transform="translate(366.440596 224.638438) scale(0.1 -0.1)">
       <use xlink:href="#DejaVuSans-31"/>
       <use xlink:href="#DejaVuSans-34" transform="translate(63.623047 0)"/>
       <use xlink:href="#DejaVuSans-39" transform="translate(127.246094 0)"/>
       <use xlink:href="#DejaVuSans-73" transform="translate(190.869141 0)"/>
      </g>
     </g>
    </g>
    <g id="xtick_5">
     <g id="line2d_9">
      <path d="M 484.281305 210.04
L 484.281305 10.8
" clip-path="url(#p18514ce328)" style="fill: none; stroke: #2a2a4a; stroke-width: 0.5; stroke-linecap: square"/>
     </g>
     <g id="line2d_10">
      <g>
       <use xlink:href="#m5a0c255663" x="484.281305" y="210.04" style="fill: #ffffff; stroke: #ffffff"/>
      </g>
     </g>
     <g id="text_5">
      <!-- 199s -->
      <g style="fill: #ffffff" transform="translate(472.132868 224.638438) scale(0.1 -0.1)">
       <use xlink:href="#DejaVuSans-31"/>
       <use xlink:href="#DejaVuSans-39" transform="translate(63.623047 0)"/>
       <use xlink:href="#DejaVuSans-39" transform="translate(127.246094 0)"/>
       <use xlink:href="#DejaVuSans-73" transform="translate(190.869141 0)"/>
      </g>
     </g>
    </g>
    <g id="xtick_6">
     <g id="line2d_11">
      <path d="M 589.973577 210.04
L 589.973577 10.8
" clip-path="url(#p18514ce328)" style="fill: none; stroke: #2a2a4a; stroke-width: 0.5; stroke-linecap: square"/>
     </g>
     <g id="line2d_12">
      <g>
       <use xlink:href="#m5a0c255663" x="589.973577" y="210.04" style="fill: #ffffff; stroke: #ffffff"/>
      </g>
     </g>
     <g id="text_6">
      <!-- 249s -->
      <g style="fill: #ffffff" transform="translate(577.82514 224.638438) scale(0.1 -0.1)">
       <defs>
        <path id="DejaVuSans-32" d="M 1228 531
L 3431 531
L 3431 0
L 469 0
L 469 531
Q 828 903 1448 1529
Q 2069 2156 2228 2338
Q 2531 2678 2651 2914
Q 2772 3150 2772 3378
Q 2772 3750 2511 3984
Q 2250 4219 1831 4219
Q 1534 4219 1204 4116
Q 875 4013 500 3803
L 500 4441
Q 881 4594 1212 4672
Q 1544 4750 1819 4750
Q 2544 4750 2975 4387
Q 3406 4025 3406 3419
Q 3406 3131 3298 2873
Q 3191 2616 2906 2266
Q 2828 2175 2409 1742
Q 1991 1309 1228 531
z
" transform="scale(0.015625)"/>
       </defs>
       <use xlink:href="#DejaVuSans-32"/>
       <use xlink:href="#DejaVuSans-34" transform="translate(63.623047 0)"/>
       <use xlink:href="#DejaVuSans-39" transform="translate(127.246094 0)"/>
       <use xlink:href="#DejaVuSans-73" transform="translate(190.869141 0)"/>
      </g>
     </g>
    </g>
    <g id="xtick_7">
     <g id="line2d_13">
      <path d="M 695.665849 210.04
L 695.665849 10.8
" clip-path="url(#p18514ce328)" style="fill: none; stroke: #2a2a4a; stroke-width: 0.5; stroke-linecap: square"/>
     </g>
     <g id="line2d_14">
      <g>
       <use xlink:href="#m5a0c255663" x="695.665849" y="210.04" style="fill: #ffffff; stroke: #ffffff"/>
      </g>
     </g>
     <g id="text_7">
      <!-- 299s -->
      <g style="fill: #ffffff" transform="translate(683.517412 224.638438) scale(0.1 -0.1)">
       <use xlink:href="#DejaVuSans-32"/>
       <use xlink:href="#DejaVuSans-39" transform="translate(63.623047 0)"/>
       <use xlink:href="#DejaVuSans-39" transform="translate(127.246094 0)"/>
       <use xlink:href="#DejaVuSans-73" transform="translate(190.869141 0)"/>
      </g>
     </g>
    </g>
    <g id="text_8">
     <!-- time (s) -->
     <g style="fill: #ffffff" transform="translate(349.519095 238.316563) scale(0.1 -0.1)">
      <defs>
       <path id="DejaVuSans-74" d="M 1172 4494
L 1172 3500
L 2356 3500
L 2356 3053
L 1172 3053
L 1172 1153
Q 1172 725 1289 603
Q 1406 481 1766 481
L 2356 481
L 2356 0
L 1766 0
Q 1100 0 847 248
Q 594 497 594 1153
L 594 3053
L 172 3053
L 172 3500
L 594 3500
L 594 4494
L 1172 4494
z
" transform="scale(0.015625)"/>
       <path id="DejaVuSans-69" d="M 603 3500
L 1178 3500
L 1178 0
L 603 0
L 603 3500
z
M 603 4863
L 1178 4863
L 1178 4134
L 603 4134
L 603 4863
z
" transform="scale(0.015625)"/>
       <path id="DejaVuSans-6d" d="M 3328 2828
Q 3544 3216 3844 3400
Q 4144 3584 4550 3584
Q 5097 3584 5394 3201
Q 5691 2819 5691 2113
L 5691 0
L 5113 0
L 5113 2094
Q 5113 2597 4934 2840
Q 4756 3084 4391 3084
Q 3944 3084 3684 2787
Q 3425 2491 3425 1978
L 3425 0
L 2847 0
L 2847 2094
Q 2847 2600 2669 2842
Q 2491 3084 2119 3084
Q 1678 3084 1418 2786
Q 1159 2488 1159 1978
L 1159 0
L 581 0
L 581 3500
L 1159 3500
L 1159 2956
Q 1356 3278 1631 3431
Q 1906 3584 2284 3584
Q 2666 3584 2933 3390
Q 3200 3197 3328 2828
z
" transform="scale(0.015625)"/>
       <path id="DejaVuSans-65" d="M 3597 1894
L 3597 1613
L 953 1613
Q 991 1019 1311 708
Q 1631 397 2203 397
Q 2534 397 2845 478
Q 3156 559 3463 722
L 3463 178
Q 3153 47 2828 -22
Q 2503 -91 2169 -91
Q 1331 -91 842 396
Q 353 884 353 1716
Q 353 2575 817 3079
Q 1281 3584 2069 3584
Q 2775 3584 3186 3129
Q 3597 2675 3597 1894
z
M 3022 2063
Q 3016 2534 2758 2815
Q 2500 3097 2075 3097
Q 1594 3097 1305 2825
Q 1016 2553 972 2059
L 3022 2063
z
" transform="scale(0.015625)"/>
       <path id="DejaVuSans-20" transform="scale(0.015625)"/>
       <path id="DejaVuSans-28" d="M 1984 4856
Q 1566 4138 1362 3434
Q 1159 2731 1159 2009
Q 1159 1288 1364 580
Q 1569 -128 1984 -844
L 1484 -844
Q 1016 -109 783 600
Q 550 1309 550 2009
Q 550 2706 781 3412
Q 1013 4119 1484 4856
L 1984 4856
z
" transform="scale(0.015625)"/>
       <path id="DejaVuSans-29" d="M 513 4856
L 1013 4856
Q 1481 4119 1714 3412
Q 1947 2706 1947 2009
Q 1947 1309 1714 600
Q 1481 -109 1013 -844
L 513 -844
Q 928 -128 1133 580
Q 1338 1288 1338 2009
Q 1338 2731 1133 3434
Q 928 4138 513 4856
z
" transform="scale(0.015625)"/>
      </defs>
      <use xlink:href="#DejaVuSans-74"/>
      <use xlink:href="#DejaVuSans-69" transform="translate(39.208984 0)"/>
      <use xlink:href="#DejaVuSans-6d" transform="translate(66.992188 0)"/>
      <use xlink:href="#DejaVuSans-65" transform="translate(164.404297 0)"/>
      <use xlink:href="#DejaVuSans-20" transform="translate(225.927734 0)"/>
      <use xlink:href="#DejaVuSans-28" transform="translate(257.714844 0)"/>
      <use xlink:href="#DejaVuSans-73" transform="translate(296.728516 0)"/>
      <use xlink:href="#DejaVuSans-29" transform="translate(348.828125 0)"/>
     </g>
    </g>
   </g>
   <g id="matplotlib.axis_2">
    <g id="ytick_1">
     <g id="line2d_15">
      <path d="M 33.64 200.983636
L 704.181003 200.983636
" clip-path="url(#p18514ce328)" style="fill: none; stroke: #2a2a4a; stroke-width: 0.5; stroke-linecap: square"/>
     </g>
     <g id="line2d_16">
      <defs>
       <path id="mb88a1c67ca" d="M 0 0
L -3.5 0
" style="stroke: #ffffff"/>
      </defs>
      <g>
       <use xlink:href="#mb88a1c67ca" x="33.64" y="200.983636" style="fill: #ffffff; stroke: #ffffff"/>
      </g>
     </g>
     <g id="text_9">
      <!-- 0.0 -->
      <g style="fill: #ffffff" transform="translate(10.736875 204.782855) scale(0.1 -0.1)">
       <defs>
        <path id="DejaVuSans-30" d="M 2034 4250
Q 1547 4250 1301 3770
Q 1056 3291 1056 2328
Q 1056 1369 1301 889
Q 1547 409 2034 409
Q 2525 409 2770 889
Q 3016 1369 3016 2328
Q 3016 3291 2770 3770
Q 2525 4250 2034 4250
z
M 2034 4750
Q 2819 4750 3233 4129
Q 3647 3509 3647 2328
Q 3647 1150 3233 529
Q 2819 -91 2034 -91
Q 1250 -91 836 529
Q 422 1150 422 2328
Q 422 3509 836 4129
Q 1250 4750 2034 4750
z
" transform="scale(0.015625)"/>
        <path id="DejaVuSans-2e" d="M 684 794
L 1344 794
L 1344 0
L 684 0
L 684 794
z
" transform="scale(0.015625)"/>
       </defs>
       <use xlink:href="#DejaVuSans-30"/>
       <use xlink:href="#DejaVuSans-2e" transform="translate(63.623047 0)"/>
       <use xlink:href="#DejaVuSans-30" transform="translate(95.410156 0)"/>
      </g>
     </g>
    </g>
    <g id="ytick_2">
     <g id="line2d_17">
      <path d="M 33.64 164.758182
L 704.181003 164.758182
" clip-path="url(#p18514ce328)" style="fill: none; stroke: #2a2a4a; stroke-width: 0.5; stroke-linecap: square"/>
     </g>
     <g id="line2d_18">
      <g>
       <use xlink:href="#mb88a1c67ca" x="33.64" y="164.758182" style="fill: #ffffff; stroke: #ffffff"/>
      </g>
     </g>
     <g id="text_10">
      <!-- 0.2 -->
      <g style="fill: #ffffff" transform="translate(10.736875 168.557401) scale(0.1 -0.1)">
       <use xlink:href="#DejaVuSans-30"/>
       <use xlink:href="#DejaVuSans-2e" transform="translate(63.623047 0)"/>
       <use xlink:href="#DejaVuSans-32" transform="translate(95.410156 0)"/>
      </g>
     </g>
    </g>
    <g id="ytick_3">
     <g id="line2d_19">
      <path d="M 33.64 128.532727
L 704.181003 128.532727
" clip-path="url(#p18514ce328)" style="fill: none; stroke: #2a2a4a; stroke-width: 0.5; stroke-linecap: square"/>
     </g>
     <g id="line2d_20">
      <g>
       <use xlink:href="#mb88a1c67ca" x="33.64" y="128.532727" style="fill: #ffffff; stroke: #ffffff"/>
      </g>
     </g>
     <g id="text_11">
      <!-- 0.4 -->
      <g style="fill: #ffffff" transform="translate(10.736875 132.331946) scale(0.1 -0.1)">
       <use xlink:href="#DejaVuSans-30"/>
       <use xlink:href="#DejaVuSans-2e" transform="translate(63.623047 0)"/>
       <use xlink:href="#DejaVuSans-34" transform="translate(95.410156 0)"/>
      </g>
     </g>
    </g>
    <g id="ytick_4">
     <g id="line2d_21">
      <path d="M 33.64 92.307273
L 704.181003 92.307273
" clip-path="url(#p18514ce328)" style="fill: none; stroke: #2a2a4a; stroke-width: 0.5; stroke-linecap: square"/>
     </g>
     <g id="line2d_22">
      <g>
       <use xlink:href="#mb88a1c67ca" x="33.64" y="92.307273" style="fill: #ffffff; stroke: #ffffff"/>
      </g>
     </g>
     <g id="text_12">
      <!-- 0.6 -->
      <g style="fill: #ffffff" transform="translate(10.736875 96.106491) scale(0.1 -0.1)">
       <defs>
        <path id="DejaVuSans-36" d="M 2113 2584
Q 1688 2584 1439 2293
Q 1191 2003 1191 1497
Q 1191 994 1439 701
Q 1688 409 2113 409
Q 2538 409 2786 701
Q 3034 994 3034 1497
Q 3034 2003 2786 2293
Q 2538 2584 2113 2584
z
M 3366 4563
L 3366 3988
Q 3128 4100 2886 4159
Q 2644 4219 2406 4219
Q 1781 4219 1451 3797
Q 1122 3375 1075 2522
Q 1259 2794 1537 2939
Q 1816 3084 2150 3084
Q 2853 3084 3261 2657
Q 3669 2231 3669 1497
Q 3669 778 3244 343
Q 2819 -91 2113 -91
Q 1303 -91 875 529
Q 447 1150 447 2328
Q 447 3434 972 4092
Q 1497 4750 2381 4750
Q 2619 4750 2861 4703
Q 3103 4656 3366 4563
z
" transform="scale(0.015625)"/>
       </defs>
       <use xlink:href="#DejaVuSans-30"/>
       <use xlink:href="#DejaVuSans-2e" transform="translate(63.623047 0)"/>
       <use xlink:href="#DejaVuSans-36" transform="translate(95.410156 0)"/>
      </g>
     </g>
    </g>
    <g id="ytick_5">
     <g id="line2d_23">
      <path d="M 33.64 56.081818
L 704.181003 56.081818
" clip-path="url(#p18514ce328)" style="fill: none; stroke: #2a2a4a; stroke-width: 0.5; stroke-linecap: square"/>
     </g>
     <g id="line2d_24">
      <g>
       <use xlink:href="#mb88a1c67ca" x="33.64" y="56.081818" style="fill: #ffffff; stroke: #ffffff"/>
      </g>
     </g>
     <g id="text_13">
      <!-- 0.8 -->
      <g style="fill: #ffffff" transform="translate(10.736875 59.881037) scale(0.1 -0.1)">
       <defs>
        <path id="DejaVuSans-38" d="M 2034 2216
Q 1584 2216 1326 1975
Q 1069 1734 1069 1313
Q 1069 891 1326 650
Q 1584 409 2034 409
Q 2484 409 2743 651
Q 3003 894 3003 1313
Q 3003 1734 2745 1975
Q 2488 2216 2034 2216
z
M 1403 2484
Q 997 2584 770 2862
Q 544 3141 544 3541
Q 544 4100 942 4425
Q 1341 4750 2034 4750
Q 2731 4750 3128 4425
Q 3525 4100 3525 3541
Q 3525 3141 3298 2862
Q 3072 2584 2669 2484
Q 3125 2378 3379 2068
Q 3634 1759 3634 1313
Q 3634 634 3220 271
Q 2806 -91 2034 -91
Q 1263 -91 848 271
Q 434 634 434 1313
Q 434 1759 690 2068
Q 947 2378 1403 2484
z
M 1172 3481
Q 1172 3119 1398 2916
Q 1625 2713 2034 2713
Q 2441 2713 2670 2916
Q 2900 3119 2900 3481
Q 2900 3844 2670 4047
Q 2441 4250 2034 4250
Q 1625 4250 1398 4047
Q 1172 3844 1172 3481
z
" transform="scale(0.015625)"/>
       </defs>
       <use xlink:href="#DejaVuSans-30"/>
       <use xlink:href="#DejaVuSans-2e" transform="translate(63.623047 0)"/>
       <use xlink:href="#DejaVuSans-38" transform="translate(95.410156 0)"/>
      </g>
     </g>
    </g>
    <g id="ytick_6">
     <g id="line2d_25">
      <path d="M 33.64 19.856364
L 704.181003 19.856364
" clip-path="url(#p18514ce328)" style="fill: none; stroke: #2a2a4a; stroke-width: 0.5; stroke-linecap: square"/>
     </g>
     <g id="line2d_26">
      <g>
       <use xlink:href="#mb88a1c67ca" x="33.64" y="19.856364" style="fill: #ffffff; stroke: #ffffff"/>
      </g>
     </g>
     <g id="text_14">
      <!-- 1.0 -->
      <g style="fill: #ffffff" transform="translate(10.736875 23.655582) scale(0.1 -0.1)">
       <use xlink:href="#DejaVuSans-31"/>
       <use xlink:href="#DejaVuSans-2e" transform="translate(63.623047 0)"/>
       <use xlink:href="#DejaVuSans-30" transform="translate(95.410156 0)"/>
      </g>
     </g>
    </g>
   </g>
   <g id="line2d_27">
    <path d="M 64.119136 122.823636
L 64.711347 135.534179
L 66.053295 118.752921
L 67.690197 123.321642
L 68.576127 122.906767
L 69.913098 122.034798
L 70.957615 129.763314
L 71.695728 134.084339
L 73.325881 119.241385
L 74.674784 114.178448
L 75.279899 116.988722
L 76.303878 119.151849
L 77.342129 137.708939
L 78.830813 116.247332
L 80.761663 118.119759
L 81.947253 126.393991
L 83.132804 125.831936
L 83.877662 143.481112
L 84.939106 152.144076
L 85.65902 124.530714
L 87.302632 165.799656
L 88.022922 146.460003
L 89.672213 146.817234
L 91.445363 148.955526
L 92.631611 147.957813
L 92.941396 138.021468
L 93.97214 95.978327
L 95.45557 144.553591
L 96.805967 137.216422
L 97.537904 135.056171
L 100.222533 117.881866
L 100.814134 114.902453
L 102.142577 158.606269
L 102.893729 125.324387
L 104.393652 164.79946
L 105.13104 122.250078
L 112.089363 127.511434
L 112.83228 111.333274
L 116.405737 137.165053
L 117.151228 137.291189
L 118.63418 107.296021
L 119.678538 94.253865
L 121.018495 102.336736
L 121.465837 103.9216
L 122.790843 145.471047
L 123.546171 119.075775
L 124.759638 105.136423
L 132.587859 125.202304
L 133.346908 96.469668
L 134.831497 123.597311
L 136.335081 154.419353
L 137.503829 165.571959
L 138.709477 117.419021
L 139.00195 140.348506
L 140.325067 72.406662
L 142.267053 52.608607
L 142.417826 19.856364
L 144.780457 133.502547
L 146.11763 151.377068
L 147.153237 115.895198
L 148.353837 115.134202
L 150.268349 110.296217
L 164.377113 144.034932
L 164.98154 156.530849
L 166.760756 152.879715
L 167.501257 130.429022
L 169.27668 125.20897
L 170.760583 119.844353
L 172.698857 124.662208
L 173.759192 126.163026
L 174.04868 122.108649
L 176.127771 150.008399
L 177.323852 145.605418
L 177.616233 158.094538
L 179.551845 129.12048
L 180.879173 127.112506
L 182.215623 126.057542
L 182.952424 114.091917
L 184.593072 130.688613
L 185.756749 132.799586
L 186.946579 120.727694
L 187.534472 132.690704
L 188.275191 111.767886
L 189.460865 140.188255
L 191.092614 93.813763
L 192.11588 90.032179
L 194.049619 166.045523
L 194.191199 109.85141
L 194.191199 200.983636
L 210.536758 200.983636
L 210.536758 155.365566
L 213.518255 132.489149
L 214.699155 164.138458
L 215.603329 131.380986
L 216.18774 134.347982
L 217.228818 128.34968
L 218.713122 138.895659
L 219.453411 164.094539
L 220.787908 187.287405
L 222.872667 163.251195
L 223.923537 105.932972
L 224.506759 115.275108
L 225.396257 103.334188
L 227.468694 117.342163
L 227.923541 124.902585
L 229.688916 115.934934
L 230.441061 142.553591
L 232.054771 154.087348
L 232.817955 142.464054
L 234.135607 164.382625
L 234.730715 147.897817
L 236.961757 171.42857
L 237.406408 146.221325
L 238.295017 106.379871
L 240.522526 128.639727
L 241.58358 98.713443
L 242.756436 118.73253
L 243.20224 110.605217
L 246.326755 146.875008
L 246.928644 143.554048
L 248.106788 145.904745
L 249.156187 152.103687
L 250.338291 126.384318
L 251.522052 125.460718
L 252.558309 107.751939
L 252.558309 200.983636
L 287.154492 200.983636
L 287.154492 146.53503
L 288.35993 158.506145
L 288.35993 200.983636
L 334.091676 200.983636
L 334.091676 153.20819
L 334.534084 135.876771
L 335.592474 140.518037
L 335.592474 200.983636
L 400.049666 200.983636
L 400.049666 143.351578
L 401.095849 143.729985
L 402.153348 146.039899
L 403.316265 146.730312
L 404.506681 112.357651
L 406.448461 135.08349
L 408.208784 110.673578
L 408.368687 96.872779
L 410.600391 170.225119
L 411.794619 171.800049
L 411.942117 152.372297
L 413.710946 175.079051
L 414.447337 146.997092
L 416.234478 154.972258
L 417.56817 154.779591
L 418.774386 110.492806
L 419.20669 107.448952
L 420.693448 108.50104
L 421.737813 133.842133
L 423.527486 137.48085
L 423.815074 144.586791
L 425.435775 124.361967
L 427.221177 129.358242
L 427.664587 153.300079
L 428.551596 108.599334
L 428.551596 200.983636
L 452.025321 200.983636
L 452.025321 147.093033
L 453.686876 135.713775
L 454.407228 135.548819
L 456.186775 144.82024
L 456.788942 124.725734
L 457.965657 117.359809
L 458.706252 133.765928
L 460.194598 145.255898
L 461.53987 139.152375
L 462.280382 124.648615
L 463.916507 142.210476
L 465.260565 174.417787
L 466.14157 200.983636
L 467.034055 161.69012
L 469.258667 143.903568
L 469.405801 145.001405
L 470.590854 133.422029
L 472.670263 152.063559
L 474.908888 122.928988
L 475.798771 136.125513
L 476.529297 108.37765
L 487.972542 128.254262
L 487.972542 200.983636
L 534.301961 200.983636
L 534.301961 139.43484
L 534.755881 93.162433
L 534.755881 200.983636
L 561.041408 200.983636
L 561.041408 123.91925
L 561.487605 135.482026
L 562.687689 121.877553
L 564.76485 106.051004
L 564.911163 132.598684
L 566.399849 81.323466
L 572.193289 54.513842
L 573.976476 129.556007
L 574.861002 149.453794
L 576.352895 157.190414
L 577.677748 117.727236
L 577.982615 149.831155
L 579.903276 138.315697
L 580.501189 113.6526
L 582.584034 106.75305
L 583.327834 96.036886
L 584.808564 129.726976
L 585.259424 118.889121
L 586.749009 107.331051
L 588.231318 99.140736
L 588.677598 133.388306
L 589.856203 148.525097
L 591.195158 131.483855
L 592.237978 130.737891
L 593.724405 129.41667
L 596.245848 144.670577
L 606.347262 147.264002
L 607.390965 125.930492
L 609.171065 132.903501
L 610.35332 115.826706
L 611.097112 124.734361
L 612.131594 131.061922
L 613.929483 150.955788
L 614.075365 156.402099
L 615.418277 124.762333
L 616.595742 126.144857
L 618.681036 137.105711
L 619.871752 157.555488
L 620.168187 137.877425
L 621.540595 133.14989
L 623.283216 122.058065
L 623.952774 139.344519
L 624.913902 121.647372
L 626.749261 131.268052
L 627.584073 136.520781
L 628.344459 136.189953
L 629.971224 132.709135
L 630.705719 127.287658
L 632.649096 125.769195
L 633.848794 141.095777
L 635.034708 136.515161
L 635.91953 152.69855
L 637.107496 146.065649
L 638.74656 143.543461
L 639.78206 147.610124
L 640.078147 142.11924
L 641.252313 115.259815
L 642.446454 107.549076
L 644.524495 125.648157
L 645.123117 123.031988
L 646.756834 119.963561
L 647.346559 117.824746
L 649.418961 97.156159
L 649.724853 101.385818
L 650.912931 105.118908
L 651.936047 91.188967
L 653.136423 112.232823
L 655.220645 83.497965
L 655.513299 95.39745
L 657.299877 137.864615
L 658.791778 129.221911
L 659.670419 146.933174
L 661.15437 136.843244
L 662.353296 132.191391
L 663.24735 150.108392
L 663.980508 132.868079
L 664.89085 130.825336
L 666.141487 140.098457
L 668.289783 146.665872
L 669.324955 140.210083
L 670.213249 119.407649
L 671.683663 146.86429
L 673.33978 148.395824
L 673.701866 139.980033
L 673.701866 139.980033
" clip-path="url(#p18514ce328)" style="fill: none; stroke: #4cdc29; stroke-width: 1.5; stroke-linecap: square"/>
   </g>
   <g id="line2d_28">
    <path d="M 140.325067 210.04
L 140.325067 10.8
" clip-path="url(#p18514ce328)" style="fill: none; stroke-dasharray: 3.7,1.6; stroke-dashoffset: 0; stroke: #e74c3c"/>
   </g>
   <g id="line2d_29">
    <path d="M 570.100595 210.04
L 570.100595 10.8
" clip-path="url(#p18514ce328)" style="fill: none; stroke-dasharray: 3.7,1.6; stroke-dashoffset: 0; stroke: #e74c3c"/>
   </g>
   <g id="line2d_30">
    <path d="M 653.136423 210.04
L 653.136423 10.8
" clip-path="url(#p18514ce328)" style="fill: none; stroke-dasharray: 3.7,1.6; stroke-dashoffset: 0; stroke: #e74c3c"/>
   </g>
   <g id="patch_3">
    <path d="M 33.64 210.04
L 33.64 10.8
" style="fill: none; stroke: #ffffff; stroke-linejoin: miter; stroke-linecap: square"/>
   </g>
   <g id="patch_4">
    <path d="M 704.181003 210.04
L 704.181003 10.8
" style="fill: none; stroke: #ffffff; stroke-linejoin: miter; stroke-linecap: square"/>
   </g>
   <g id="patch_5">
    <path d="M 33.639999 210.04
L 704.181003 210.04
" style="fill: none; stroke: #ffffff; stroke-linejoin: miter; stroke-linecap: square"/>
   </g>
   <g id="patch_6">
    <path d="M 33.639999 10.8
L 704.181003 10.8
" style="fill: none; stroke: #ffffff; stroke-linejoin: miter; stroke-linecap: square"/>
   </g>
   <g id="legend_1">
    <g id="patch_7">
     <path d="M 40.64 33.478125
L 124.669687 33.478125
Q 126.669687 33.478125 126.669687 31.478125
L 126.669687 17.8
Q 126.669687 15.8 124.669687 15.8
L 40.64 15.8
Q 38.64 15.8 38.64 17.8
L 38.64 31.478125
Q 38.64 33.478125 40.64 33.478125
z
" style="fill: #1a1a2e; opacity: 0.9; stroke: #2a2a4a; stroke-linejoin: miter"/>
    </g>
    <g id="line2d_31">
     <path d="M 42.64 23.898437
L 52.64 23.898437
L 62.64 23.898437
" style="fill: none; stroke: #4cdc29; stroke-width: 1.5; stroke-linecap: square"/>
    </g>
    <g id="text_15">
     <!-- plant-ness -->
     <g style="fill: #ffffff" transform="translate(70.64 27.398437) scale(0.1 -0.1)">
      <defs>
       <path id="DejaVuSans-70" d="M 1159 525
L 1159 -1331
L 581 -1331
L 581 3500
L 1159 3500
L 1159 2969
Q 1341 3281 1617 3432
Q 1894 3584 2278 3584
Q 2916 3584 3314 3078
Q 3713 2572 3713 1747
Q 3713 922 3314 415
Q 2916 -91 2278 -91
Q 1894 -91 1617 61
Q 1341 213 1159 525
z
M 3116 1747
Q 3116 2381 2855 2742
Q 2594 3103 2138 3103
Q 1681 3103 1420 2742
Q 1159 2381 1159 1747
Q 1159 1113 1420 752
Q 1681 391 2138 391
Q 2594 391 2855 752
Q 3116 1113 3116 1747
z
" transform="scale(0.015625)"/>
       <path id="DejaVuSans-6c" d="M 603 4863
L 1178 4863
L 1178 0
L 603 0
L 603 4863
z
" transform="scale(0.015625)"/>
       <path id="DejaVuSans-61" d="M 2194 1759
Q 1497 1759 1228 1600
Q 959 1441 959 1056
Q 959 750 1161 570
Q 1363 391 1709 391
Q 2188 391 2477 730
Q 2766 1069 2766 1631
L 2766 1759
L 2194 1759
z
M 3341 1997
L 3341 0
L 2766 0
L 2766 531
Q 2569 213 2275 61
Q 1981 -91 1556 -91
Q 1019 -91 701 211
Q 384 513 384 1019
Q 384 1609 779 1909
Q 1175 2209 1959 2209
L 2766 2209
L 2766 2266
Q 2766 2663 2505 2880
Q 2244 3097 1772 3097
Q 1472 3097 1187 3025
Q 903 2953 641 2809
L 641 3341
Q 956 3463 1253 3523
Q 1550 3584 1831 3584
Q 2591 3584 2966 3190
Q 3341 2797 3341 1997
z
" transform="scale(0.015625)"/>
       <path id="DejaVuSans-6e" d="M 3513 2113
L 3513 0
L 2938 0
L 2938 2094
Q 2938 2591 2744 2837
Q 2550 3084 2163 3084
Q 1697 3084 1428 2787
Q 1159 2491 1159 1978
L 1159 0
L 581 0
L 581 3500
L 1159 3500
L 1159 2956
Q 1366 3272 1645 3428
Q 1925 3584 2291 3584
Q 2894 3584 3203 3211
Q 3513 2838 3513 2113
z
" transform="scale(0.015625)"/>
      </defs>
      <use xlink:href="#DejaVuSans-70"/>
      <use xlink:href="#DejaVuSans-6c" transform="translate(63.476562 0)"/>
      <use xlink:href="#DejaVuSans-61" transform="translate(91.259766 0)"/>
      <use xlink:href="#DejaVuSans-6e" transform="translate(152.539062 0)"/>
      <use xlink:href="#DejaVuSans-74" transform="translate(215.917969 0)"/>
      <use xlink:href="#DejaVuSans-2d" transform="translate(255.126953 0)"/>
      <use xlink:href="#DejaVuSans-6e" transform="translate(291.210938 0)"/>
      <use xlink:href="#DejaVuSans-65" transform="translate(354.589844 0)"/>
      <use xlink:href="#DejaVuSans-73" transform="translate(416.113281 0)"/>
      <use xlink:href="#DejaVuSans-73" transform="translate(468.212891 0)"/>
     </g>
    </g>
   </g>
  </g>
 </g>
 <defs>
  <clipPath id="p18514ce328">
   <rect x="33.64" y="10.8" width="670.541003" height="199.24"/>
  </clipPath>
 </defs>
</svg>
