<?xml version="1.0" encoding="utf-8" standalone="no"?>
<!DOCTYPE svg PUBLIC "-//W3C//DTD SVG 1.1//EN"
  "http://www.w3.org/Graphics/SVG/1.1/DTD/svg11.dtd">
<svg xmlns:xlink="http://www.w3.org/1999/xlink" width="720pt" height="252pt" viewBox="0 0 720 252" xmlns="http://www.w3.org/2000/svg" version="1.1">
 <metadata>
  <rdf:RDF xmlns:dc="http://purl.org/dc/elements/1.1/" xmlns:cc="http://creativecommons.org/ns#" xmlns:rdf="http://www.w3.org/1999/02/22-rdf-syntax-ns#">
   <cc:Work>
    <dc:type rdf:resource="http://purl.org/dc/dcmitype/StillImage"/>
    <dc:date>1980-01-01T00:00:00+00:00</dc:date>
    <dc:format>image/svg+xml</dc:format>
    <dc:creator>
     <cc:Agent>
      <dc:title>Matplotlib v3.10.8, https://matplotlib.org/</dc:title>
     </cc:Agent>
    </dc:creator>
   </cc:Work>
  </rdf:RDF>
 </metadata>
 <defs>
  <style type="text/css">*{stroke-linejoin: round; stroke-linecap: butt}</style>
 </defs>
 <g id="figure_1">
  <g id="patch_1">
   <path d="M 0 252
L 720 252
L 720 0
L 0 0
L 0 252
z
" style="fill: none; opacity: 0"/>
  </g>
  <g id="axes_1">
   <g id="patch_2">
    <path d="M 32.56 210.04
L 709.2 210.04
L 709.2 10.8
L 32.56 10.8
z
" style="fill: #16213e"/>
   </g>
   <g id="matplotlib.axis_1">
    <g id="xtick_1">
     <g id="line2d_1">
      <path d="M 63.316364 210.04
L 63.316364 10.8
" clip-path="url(#pd9adba9fc3)" style="fill: none; stroke: #2a2a4a; stroke-width: 0.5; stroke-linecap: square"/>
     </g>
     <g id="line2d_2">
      <defs>
       <path id="m79a1aacab5" d="M 0 0
L 0 3.5
" style="stroke: #ffffff"/>
      </defs>
      <g>
       <use xlink:href="#m79a1aacab5" x="63.316364" y="210.04" style="fill: #ffffff; stroke: #ffffff"/>
      </g>
     </g>
     <g id="text_1">
      <!-- 0s -->
      <g style="fill: #ffffff" transform="translate(57.530426 224.638438) scale(0.1 -0.1)">
       <defs>
        <path id="DejaVuSans-30" d="M 2034 4250
Q 1547 4250 1301 3770
Q 1056 3291 1056 2328
Q 1056 1369 1301 889
Q 1547 409 2034 409
Q 2525 409 2770 889
Q 3016 1369 3016 2328
Q 3016 3291 2770 3770
Q 2525 4250 2034 4250
z
M 2034 4750
Q 2819 4750 3233 4129
Q 3647 3509 3647 2328
Q 3647 1150 3233 529
Q 2819 -91 2034 -91
Q 1250 -91 836 529
Q 422 1150 422 2328
Q 422 3509 836 4129
Q 1250 4750 2034 4750
z
" transform="scale(0.015625)"/>
        <path id="DejaVuSans-73" d="M 2834 3397
L 2834 2853
Q 2591 2978 2328 3040
Q 2066 3103 1784 3103
Q 1356 3103 1142 2972
Q 928 2841 928 2578
Q 928 2378 1081 2264
Q 1234 2150 1697 2047
L 1894 2003
Q 2506 1872 2764 1633
Q 3022 1394 3022 966
Q 3022 478 2636 193
Q 2250 -91 1575 -91
Q 1294 -91 989 -36
Q 684 19 347 128
L 347 722
Q 666 556 975 473
Q 1284 391 1588 391
Q 1994 391 2212 530
Q 2431 669 2431 922
Q 2431 1156 2273 1281
Q 2116 1406 1581 1522
L 1381 1569
Q 847 1681 609 1914
Q 372 2147 372 2553
Q 372 3047 722 3315
Q 1072 3584 1716 3584
Q 2034 3584 2315 3537
Q 2597 3491 2834 3397
z
" transform="scale(0.015625)"/>
       </defs>
       <use xlink:href="#DejaVuSans-30"/>
       <use xlink:href="#DejaVuSans-73" transform="translate(63.623047 0)"/>
      </g>
     </g>
    </g>
    <g id="xtick_2">
     <g id="line2d_3">
      <path d="M 166.699099 210.04
L 166.699099 10.8
" clip-path="url(#pd9adba9fc3)" style="fill: none; stroke: #2a2a4a; stroke-width: 0.5; stroke-linecap: square"/>
     </g>
     <g id="line2d_4">
      <g>
       <use xlink:href="#m79a1aacab5" x="166.699099" y="210.04" style="fill: #ffffff; stroke: #ffffff"/>
      </g>
     </g>
     <g id="text_2">
      <!-- 2s -->
      <g style="fill: #ffffff" transform="translate(160.913161 224.638438) scale(0.1 -0.1)">
       <defs>
        <path id="DejaVuSans-32" d="M 1228 531
L 3431 531
L 3431 0
L 469 0
L 469 531
Q 828 903 1448 1529
Q 2069 2156 2228 2338
Q 2531 2678 2651 2914
Q 2772 3150 2772 3378
Q 2772 3750 2511 3984
Q 2250 4219 1831 4219
Q 1534 4219 1204 4116
Q 875 4013 500 3803
L 500 4441
Q 881 4594 1212 4672
Q 1544 4750 1819 4750
Q 2544 4750 2975 4387
Q 3406 4025 3406 3419
Q 3406 3131 3298 2873
Q 3191 2616 2906 2266
Q 2828 2175 2409 1742
Q 1991 1309 1228 531
z
" transform="scale(0.015625)"/>
       </defs>
       <use xlink:href="#DejaVuSans-32"/>
       <use xlink:href="#DejaVuSans-73" transform="translate(63.623047 0)"/>
      </g>
     </g>
    </g>
    <g id="xtick_3">
     <g id="line2d_5">
      <path d="M 270.081833 210.04
L 270.081833 10.8
" clip-path="url(#pd9adba9fc3)" style="fill: none; stroke: #2a2a4a; stroke-width: 0.5; stroke-linecap: square"/>
     </g>
     <g id="line2d_6">
      <g>
       <use xlink:href="#m79a1aacab5" x="270.081833" y="210.04" style="fill: #ffffff; stroke: #ffffff"/>
      </g>
     </g>
     <g id="text_3">
      <!-- 4s -->
      <g style="fill: #ffffff" transform="translate(264.295896 224.638438) scale(0.1 -0.1)">
       <defs>
        <path id="DejaVuSans-34" d="M 2419 4116
L 825 1625
L 2419 1625
L 2419 4116
z
M 2253 4666
L 3047 4666
L 3047 1625
L 3713 1625
L 3713 1100
L 3047 1100
L 3047 0
L 2419 0
L 2419 1100
L 313 1100
L 313 1709
L 2253 4666
z
" transform="scale(0.015625)"/>
       </defs>
       <use xlink:href="#DejaVuSans-34"/>
       <use xlink:href="#DejaVuSans-73" transform="translate(63.623047 0)"/>
      </g>
     </g>
    </g>
    <g id="xtick_4">
     <g id="line2d_7">
      <path d="M 373.464568 210.04
L 373.464568 10.8
" clip-path="url(#pd9adba9fc3)" style="fill: none; stroke: #2a2a4a; stroke-width: 0.5; stroke-linecap: square"/>
     </g>
     <g id="line2d_8">
      <g>
       <use xlink:href="#m79a1aacab5" x="373.464568" y="210.04" style="fill: #ffffff; stroke: #ffffff"/>
      </g>
     </g>
     <g id="text_4">
      <!-- 6s -->
      <g style="fill: #ffffff" transform="translate(367.678631 224.638438) scale(0.1 -0.1)">
       <defs>
        <path id="DejaVuSans-36" d="M 2113 2584
Q 1688 2584 1439 2293
Q 1191 2003 1191 1497
Q 1191 994 1439 701
Q 1688 409 2113 409
Q 2538 409 2786 701
Q 3034 994 3034 1497
Q 3034 2003 2786 2293
Q 2538 2584 2113 2584
z
M 3366 4563
L 3366 3988
Q 3128 4100 2886 4159
Q 2644 4219 2406 4219
Q 1781 4219 1451 3797
Q 1122 3375 1075 2522
Q 1259 2794 1537 2939
Q 1816 3084 2150 3084
Q 2853 3084 3261 2657
Q 3669 2231 3669 1497
Q 3669 778 3244 343
Q 2819 -91 2113 -91
Q 1303 -91 875 529
Q 447 1150 447 2328
Q 447 3434 972 4092
Q 1497 4750 2381 4750
Q 2619 4750 2861 4703
Q 3103 4656 3366 4563
z
" transform="scale(0.015625)"/>
       </defs>
       <use xlink:href="#DejaVuSans-36"/>
       <use xlink:href="#DejaVuSans-73" transform="translate(63.623047 0)"/>
      </g>
     </g>
    </g>
    <g id="xtick_5">
     <g id="line2d_9">
      <path d="M 476.847303 210.04
L 476.847303 10.8
" clip-path="url(#pd9adba9fc3)" style="fill: none; stroke: #2a2a4a; stroke-width: 0.5; stroke-linecap: square"/>
     </g>
     <g id="line2d_10">
      <g>
       <use xlink:href="#m79a1aacab5" x="476.847303" y="210.04" style="fill: #ffffff; stroke: #ffffff"/>
      </g>
     </g>
     <g id="text_5">
      <!-- 8s -->
      <g style="fill: #ffffff" transform="translate(471.061366 224.638438) scale(0.1 -0.1)">
       <defs>
        <path id="DejaVuSans-38" d="M 2034 2216
Q 1584 2216 1326 1975
Q 1069 1734 1069 1313
Q 1069 891 1326 650
Q 1584 409 2034 409
Q 2484 409 2743 651
Q 3003 894 3003 1313
Q 3003 1734 2745 1975
Q 2488 2216 2034 2216
z
M 1403 2484
Q 997 2584 770 2862
Q 544 3141 544 3541
Q 544 4100 942 4425
Q 1341 4750 2034 4750
Q 2731 4750 3128 4425
Q 3525 4100 3525 3541
Q 3525 3141 3298 2862
Q 3072 2584 2669 2484
Q 3125 2378 3379 2068
Q 3634 1759 3634 1313
Q 3634 634 3220 271
Q 2806 -91 2034 -91
Q 1263 -91 848 271
Q 434 634 434 1313
Q 434 1759 690 2068
Q 947 2378 1403 2484
z
M 1172 3481
Q 1172 3119 1398 2916
Q 1625 2713 2034 2713
Q 2441 2713 2670 2916
Q 2900 3119 2900 3481
Q 2900 3844 2670 4047
Q 2441 4250 2034 4250
Q 1625 4250 1398 4047
Q 1172 3844 1172 3481
z
" transform="scale(0.015625)"/>
       </defs>
       <use xlink:href="#DejaVuSans-38"/>
       <use xlink:href="#DejaVuSans-73" transform="translate(63.623047 0)"/>
      </g>
     </g>
    </g>
    <g id="xtick_6">
     <g id="line2d_11">
      <path d="M 580.230038 210.04
L 580.230038 10.8
" clip-path="url(#pd9adba9fc3)" style="fill: none; stroke: #2a2a4a; stroke-width: 0.5; stroke-linecap: square"/>
     </g>
     <g id="line2d_12">
      <g>
       <use xlink:href="#m79a1aacab5" x="580.230038" y="210.04" style="fill: #ffffff; stroke: #ffffff"/>
      </g>
     </g>
     <g id="text_6">
      <!-- 10s -->
      <g style="fill: #ffffff" transform="translate(571.262851 224.638438) scale(0.1 -0.1)">
       <defs>
        <path id="DejaVuSans-31" d="M 794 531
L 1825 531
L 1825 4091
L 703 3866
L 703 4441
L 1819 4666
L 2450 4666
L 2450 531
L 3481 531
L 3481 0
L 794 0
L 794 531
z
" transform="scale(0.015625)"/>
       </defs>
       <use xlink:href="#DejaVuSans-31"/>
       <use xlink:href="#DejaVuSans-30" transform="translate(63.623047 0)"/>
       <use xlink:href="#DejaVuSans-73" transform="translate(127.246094 0)"/>
      </g>
     </g>
    </g>
    <g id="xtick_7">
     <g id="line2d_13">
      <path d="M 683.612773 210.04
L 683.612773 10.8
" clip-path="url(#pd9adba9fc3)" style="fill: none; stroke: #2a2a4a; stroke-width: 0.5; stroke-linecap: square"/>
     </g>
     <g id="line2d_14">
      <g>
       <use xlink:href="#m79a1aacab5" x="683.612773" y="210.04" style="fill: #ffffff; stroke: #ffffff"/>
      </g>
     </g>
     <g id="text_7">
      <!-- 12s -->
      <g style="fill: #ffffff" transform="translate(674.645586 224.638438) scale(0.1 -0.1)">
       <use xlink:href="#DejaVuSans-31"/>
       <use xlink:href="#DejaVuSans-32" transform="translate(63.623047 0)"/>
       <use xlink:href="#DejaVuSans-73" transform="translate(127.246094 0)"/>
      </g>
     </g>
    </g>
    <g id="text_8">
     <!-- time (s) -->
     <g style="fill: #ffffff" transform="translate(351.488594 238.316563) scale(0.1 -0.1)">
      <defs>
       <path id="DejaVuSans-74" d="M 1172 4494
L 1172 3500
L 2356 3500
L 2356 3053
L 1172 3053
L 1172 1153
Q 1172 725 1289 603
Q 1406 481 1766 481
L 2356 481
L 2356 0
L 1766 0
Q 1100 0 847 248
Q 594 497 594 1153
L 594 3053
L 172 3053
L 172 3500
L 594 3500
L 594 4494
L 1172 4494
z
" transform="scale(0.015625)"/>
       <path id="DejaVuSans-69" d="M 603 3500
L 1178 3500
L 1178 0
L 603 0
L 603 3500
z
M 603 4863
L 1178 4863
L 1178 4134
L 603 4134
L 603 4863
z
" transform="scale(0.015625)"/>
       <path id="DejaVuSans-6d" d="M 3328 2828
Q 3544 3216 3844 3400
Q 4144 3584 4550 3584
Q 5097 3584 5394 3201
Q 5691 2819 5691 2113
L 5691 0
L 5113 0
L 5113 2094
Q 5113 2597 4934 2840
Q 4756 3084 4391 3084
Q 3944 3084 3684 2787
Q 3425 2491 3425 1978
L 3425 0
L 2847 0
L 2847 2094
Q 2847 2600 2669 2842
Q 2491 3084 2119 3084
Q 1678 3084 1418 2786
Q 1159 2488 1159 1978
L 1159 0
L 581 0
L 581 3500
L 1159 3500
L 1159 2956
Q 1356 3278 1631 3431
Q 1906 3584 2284 3584
Q 2666 3584 2933 3390
Q 3200 3197 3328 2828
z
" transform="scale(0.015625)"/>
       <path id="DejaVuSans-65" d="M 3597 1894
L 3597 1613
L 953 1613
Q 991 1019 1311 708
Q 1631 397 2203 397
Q 2534 397 2845 478
Q 3156 559 3463 722
L 3463 178
Q 3153 47 2828 -22
Q 2503 -91 2169 -91
Q 1331 -91 842 396
Q 353 884 353 1716
Q 353 2575 817 3079
Q 1281 3584 2069 3584
Q 2775 3584 3186 3129
Q 3597 2675 3597 1894
z
M 3022 2063
Q 3016 2534 2758 2815
Q 2500 3097 2075 3097
Q 1594 3097 1305 2825
Q 1016 2553 972 2059
L 3022 2063
z
" transform="scale(0.015625)"/>
       <path id="DejaVuSans-20" transform="scale(0.015625)"/>
       <path id="DejaVuSans-28" d="M 1984 4856
Q 1566 4138 1362 3434
Q 1159 2731 1159 2009
Q 1159 1288 1364 580
Q 1569 -128 1984 -844
L 1484 -844
Q 1016 -109 783 600
Q 550 1309 550 2009
Q 550 2706 781 3412
Q 1013 4119 1484 4856
L 1984 4856
z
" transform="scale(0.015625)"/>
       <path id="DejaVuSans-29" d="M 513 4856
L 1013 4856
Q 1481 4119 1714 3412
Q 1947 2706 1947 2009
Q 1947 1309 1714 600
Q 1481 -109 1013 -844
L 513 -844
Q 928 -128 1133 580
Q 1338 1288 1338 2009
Q 1338 2731 1133 3434
Q 928 4138 513 4856
z
" transform="scale(0.015625)"/>
      </defs>
      <use xlink:href="#DejaVuSans-74"/>
      <use xlink:href="#DejaVuSans-69" transform="translate(39.208984 0)"/>
      <use xlink:href="#DejaVuSans-6d" transform="translate(66.992188 0)"/>
      <use xlink:href="#DejaVuSans-65" transform="translate(164.404297 0)"/>
      <use xlink:href="#DejaVuSans-20" transform="translate(225.927734 0)"/>
      <use xlink:href="#DejaVuSans-28" transform="translate(257.714844 0)"/>
      <use xlink:href="#DejaVuSans-73" transform="translate(296.728516 0)"/>
      <use xlink:href="#DejaVuSans-29" transform="translate(348.828125 0)"/>
     </g>
    </g>
   </g>
   <g id="matplotlib.axis_2">
    <g id="ytick_1">
     <g id="line2d_15">
      <path d="M 32.56 205.003942
L 709.2 205.003942
" clip-path="url(#pd9adba9fc3)" style="fill: none; stroke: #2a2a4a; stroke-width: 0.5; stroke-linecap: square"/>
     </g>
     <g id="line2d_16">
      <defs>
       <path id="m2b1b9c40a7" d="M 0 0
L -3.5 0
" style="stroke: #ffffff"/>
      </defs>
      <g>
       <use xlink:href="#m2b1b9c40a7" x="32.56" y="205.003942" style="fill: #ffffff; stroke: #ffffff"/>
      </g>
     </g>
     <g id="text_9">
      <!-- −1 -->
      <g style="fill: #ffffff" transform="translate(10.817812 208.80316) scale(0.1 -0.1)">
       <defs>
        <path id="DejaVuSans-2212" d="M 678 2272
L 4684 2272
L 4684 1741
L 678 1741
L 678 2272
z
" transform="scale(0.015625)"/>
       </defs>
       <use xlink:href="#DejaVuSans-2212"/>
       <use xlink:href="#DejaVuSans-31" transform="translate(83.789062 0)"/>
      </g>
     </g>
    </g>
    <g id="ytick_2">
     <g id="line2d_17">
      <path d="M 32.56 182.666316
L 709.2 182.666316
" clip-path="url(#pd9adba9fc3)" style="fill: none; stroke: #2a2a4a; stroke-width: 0.5; stroke-linecap: square"/>
     </g>
     <g id="line2d_18">
      <g>
       <use xlink:href="#m2b1b9c40a7" x="32.56" y="182.666316" style="fill: #ffffff; stroke: #ffffff"/>
      </g>
     </g>
     <g id="text_10">
      <!-- 0 -->
      <g style="fill: #ffffff" transform="translate(19.1975 186.465535) scale(0.1 -0.1)">
       <use xlink:href="#DejaVuSans-30"/>
      </g>
     </g>
    </g>
    <g id="ytick_3">
     <g id="line2d_19">
      <path d="M 32.56 160.32869
L 709.2 160.32869
" clip-path="url(#pd9adba9fc3)" style="fill: none; stroke: #2a2a4a; stroke-width: 0.5; stroke-linecap: square"/>
     </g>
     <g id="line2d_20">
      <g>
       <use xlink:href="#m2b1b9c40a7" x="32.56" y="160.32869" style="fill: #ffffff; stroke: #ffffff"/>
      </g>
     </g>
     <g id="text_11">
      <!-- 1 -->
      <g style="fill: #ffffff" transform="translate(19.1975 164.127909) scale(0.1 -0.1)">
       <use xlink:href="#DejaVuSans-31"/>
      </g>
     </g>
    </g>
    <g id="ytick_4">
     <g id="line2d_21">
      <path d="M 32.56 137.991065
L 709.2 137.991065
" clip-path="url(#pd9adba9fc3)" style="fill: none; stroke: #2a2a4a; stroke-width: 0.5; stroke-linecap: square"/>
     </g>
     <g id="line2d_22">
      <g>
       <use xlink:href="#m2b1b9c40a7" x="32.56" y="137.991065" style="fill: #ffffff; stroke: #ffffff"/>
      </g>
     </g>
     <g id="text_12">
      <!-- 2 -->
      <g style="fill: #ffffff" transform="translate(19.1975 141.790283) scale(0.1 -0.1)">
       <use xlink:href="#DejaVuSans-32"/>
      </g>
     </g>
    </g>
    <g id="ytick_5">
     <g id="line2d_23">
      <path d="M 32.56 115.653439
L 709.2 115.653439
" clip-path="url(#pd9adba9fc3)" style="fill: none; stroke: #2a2a4a; stroke-width: 0.5; stroke-linecap: square"/>
     </g>
     <g id="line2d_24">
      <g>
       <use xlink:href="#m2b1b9c40a7" x="32.56" y="115.653439" style="fill: #ffffff; stroke: #ffffff"/>
      </g>
     </g>
     <g id="text_13">
      <!-- 3 -->
      <g style="fill: #ffffff" transform="translate(19.1975 119.452658) scale(0.1 -0.1)">
       <defs>
        <path id="DejaVuSans-33" d="M 2597 2516
Q 3050 2419 3304 2112
Q 3559 1806 3559 1356
Q 3559 666 3084 287
Q 2609 -91 1734 -91
Q 1441 -91 1130 -33
Q 819 25 488 141
L 488 750
Q 750 597 1062 519
Q 1375 441 1716 441
Q 2309 441 2620 675
Q 2931 909 2931 1356
Q 2931 1769 2642 2001
Q 2353 2234 1838 2234
L 1294 2234
L 1294 2753
L 1863 2753
Q 2328 2753 2575 2939
Q 2822 3125 2822 3475
Q 2822 3834 2567 4026
Q 2313 4219 1838 4219
Q 1578 4219 1281 4162
Q 984 4106 628 3988
L 628 4550
Q 988 4650 1302 4700
Q 1616 4750 1894 4750
Q 2613 4750 3031 4423
Q 3450 4097 3450 3541
Q 3450 3153 3228 2886
Q 3006 2619 2597 2516
z
" transform="scale(0.015625)"/>
       </defs>
       <use xlink:href="#DejaVuSans-33"/>
      </g>
     </g>
    </g>
    <g id="ytick_6">
     <g id="line2d_25">
      <path d="M 32.56 93.315813
L 709.2 93.315813
" clip-path="url(#pd9adba9fc3)" style="fill: none; stroke: #2a2a4a; stroke-width: 0.5; stroke-linecap: square"/>
     </g>
     <g id="line2d_26">
      <g>
       <use xlink:href="#m2b1b9c40a7" x="32.56" y="93.315813" style="fill: #ffffff; stroke: #ffffff"/>
      </g>
     </g>
     <g id="text_14">
      <!-- 4 -->
      <g style="fill: #ffffff" transform="translate(19.1975 97.115032) scale(0.1 -0.1)">
       <use xlink:href="#DejaVuSans-34"/>
      </g>
     </g>
    </g>
    <g id="ytick_7">
     <g id="line2d_27">
      <path d="M 32.56 70.978188
L 709.2 70.978188
" clip-path="url(#pd9adba9fc3)" style="fill: none; stroke: #2a2a4a; stroke-width: 0.5; stroke-linecap: square"/>
     </g>
     <g id="line2d_28">
      <g>
       <use xlink:href="#m2b1b9c40a7" x="32.56" y="70.978188" style="fill: #ffffff; stroke: #ffffff"/>
      </g>
     </g>
     <g id="text_15">
      <!-- 5 -->
      <g style="fill: #ffffff" transform="translate(19.1975 74.777407) scale(0.1 -0.1)">
       <defs>
        <path id="DejaVuSans-35" d="M 691 4666
L 3169 4666
L 3169 4134
L 1269 4134
L 1269 2991
Q 1406 3038 1543 3061
Q 1681 3084 1819 3084
Q 2600 3084 3056 2656
Q 3513 2228 3513 1497
Q 3513 744 3044 326
Q 2575 -91 1722 -91
Q 1428 -91 1123 -41
Q 819 9 494 109
L 494 744
Q 775 591 1075 516
Q 1375 441 1709 441
Q 2250 441 2565 725
Q 2881 1009 2881 1497
Q 2881 1984 2565 2268
Q 2250 2553 1709 2553
Q 1456 2553 1204 2497
Q 953 2441 691 2322
L 691 4666
z
" transform="scale(0.015625)"/>
       </defs>
       <use xlink:href="#DejaVuSans-35"/>
      </g>
     </g>
    </g>
    <g id="ytick_8">
     <g id="line2d_29">
      <path d="M 32.56 48.640562
L 709.2 48.640562
" clip-path="url(#pd9adba9fc3)" style="fill: none; stroke: #2a2a4a; stroke-width: 0.5; stroke-linecap: square"/>
     </g>
     <g id="line2d_30">
      <g>
       <use xlink:href="#m2b1b9c40a7" x="32.56" y="48.640562" style="fill: #ffffff; stroke: #ffffff"/>
      </g>
     </g>
     <g id="text_16">
      <!-- 6 -->
      <g style="fill: #ffffff" transform="translate(19.1975 52.439781) scale(0.1 -0.1)">
       <use xlink:href="#DejaVuSans-36"/>
      </g>
     </g>
    </g>
    <g id="ytick_9">
     <g id="line2d_31">
      <path d="M 32.56 26.302937
L 709.2 26.302937
" clip-path="url(#pd9adba9fc3)" style="fill: none; stroke: #2a2a4a; stroke-width: 0.5; stroke-linecap: square"/>
     </g>
     <g id="line2d_32">
      <g>
       <use xlink:href="#m2b1b9c40a7" x="32.56" y="26.302937" style="fill: #ffffff; stroke: #ffffff"/>
      </g>
     </g>
     <g id="text_17">
      <!-- 7 -->
      <g style="fill: #ffffff" transform="translate(19.1975 30.102155) scale(0.1 -0.1)">
       <defs>
        <path id="DejaVuSans-37" d="M 525 4666
L 3525 4666
L 3525 4397
L 1831 0
L 1172 0
L 2766 4134
L 525 4134
L 525 4666
z
" transform="scale(0.015625)"/>
       </defs>
       <use xlink:href="#DejaVuSans-37"/>
      </g>
     </g>
    </g>
   </g>
   <g id="line2d_33">
    <path d="M 63.316364 196.737955
L 68.4855 197.342175
L 73.654637 197.90479
L 78.823774 198.424202
L 83.992911 198.89894
L 89.162047 199.327658
L 94.331184 199.70914
L 99.500321 200.042306
L 104.669458 200.326209
L 109.838594 200.560046
L 115.007731 200.743154
L 120.176868 200.875013
L 125.346005 200.95525
L 130.515141 200.983636
L 135.684278 200.960093
L 140.853415 200.884686
L 146.022552 200.757628
L 151.191688 200.579282
L 156.360825 200.350151
L 161.529962 200.070886
L 166.699099 199.742278
L 171.868235 199.365259
L 177.037372 198.940898
L 182.206509 198.470398
L 187.375646 197.955093
L 192.544782 197.396443
L 197.713919 196.796033
L 202.883056 196.155564
L 208.052193 195.476853
L 213.221329 194.761824
L 218.390466 194.012503
L 223.559603 193.231015
L 228.728739 192.419576
L 233.897876 191.580486
L 239.067013 190.716124
L 244.23615 189.828941
L 249.405286 188.921451
L 254.574423 187.996228
L 259.74356 187.055894
L 264.912697 186.103115
L 270.081833 185.140593
L 275.25097 184.171056
L 280.420107 183.197254
L 285.589244 182.221946
L 290.75838 181.247897
L 295.927517 180.277871
L 301.096654 179.314615
L 306.265791 178.360862
L 311.434927 177.419314
L 316.604064 176.492643
L 321.773201 175.583474
L 326.942338 174.694385
L 332.111474 173.827897
L 337.280611 172.986466
L 342.449748 172.172477
L 347.618885 171.38824
L 352.788021 170.635976
L 357.957158 169.917819
L 363.126295 169.235804
L 368.295432 168.591865
L 373.464568 167.987828
L 378.633705 167.425405
L 383.802842 166.906191
L 388.971979 166.431657
L 394.141115 166.003149
L 399.310252 165.621882
L 404.479389 165.288936
L 409.648526 165.005257
L 414.817662 164.771647
L 419.986799 164.588769
L 425.155936 164.457142
L 430.325073 164.377138
L 435.494209 164.348985
L 440.663346 164.372763
L 445.832483 164.448403
L 451.00162 164.575692
L 456.170756 164.754269
L 461.339893 164.983627
L 466.50903 165.263116
L 471.678167 165.591944
L 476.847303 165.969179
L 482.01644 166.39375
L 487.185577 166.864455
L 492.354714 167.379959
L 497.52385 167.938801
L 502.692987 168.539395
L 507.862124 169.18004
L 513.031261 169.858919
L 518.200397 170.574108
L 523.369534 171.323578
L 528.538671 172.105206
L 533.707807 172.916775
L 538.876944 173.755984
L 544.046081 174.620454
L 549.215218 175.507735
L 554.384354 176.41531
L 559.553491 177.340608
L 564.722628 178.281004
L 569.891765 179.233832
L 575.060901 180.196392
L 580.230038 181.165954
L 585.399175 182.13977
L 590.568312 183.115078
L 595.737448 184.089114
L 600.906585 185.059117
L 606.075722 186.022336
L 611.244859 186.97604
L 616.413995 187.917526
L 621.583132 188.844125
L 626.752269 189.75321
L 631.921406 190.642202
L 637.090542 191.508583
L 642.259679 192.349896
L 647.428816 193.163755
L 652.597953 193.947854
L 657.767089 194.699968
L 662.936226 195.417968
L 668.105363 196.099815
L 673.2745 196.743578
L 678.443636 197.347432
" clip-path="url(#pd9adba9fc3)" style="fill: none; stroke: #3498db; stroke-width: 1.5; stroke-linecap: square"/>
   </g>
   <g id="line2d_34">
    <path d="M 63.316364 146.362557
L 68.4855 146.008739
L 73.654637 146.195359
L 78.823774 146.918458
L 83.992911 148.162705
L 89.162047 149.901718
L 94.331184 152.098626
L 99.500321 154.706847
L 104.669458 157.67108
L 109.838594 160.928473
L 115.007731 164.409961
L 120.176868 168.041726
L 125.346005 171.746763
L 130.515141 175.446515
L 135.684278 179.062537
L 140.853415 182.518158
L 146.022552 185.740108
L 151.191688 188.660073
L 156.360825 191.216141
L 161.529962 193.354116
L 166.699099 195.028666
L 171.868235 196.204287
L 177.037372 196.856051
L 182.206509 196.970139
L 187.375646 196.544132
L 192.544782 195.587063
L 197.713919 194.119224
L 202.883056 192.171738
L 208.052193 189.785898
L 213.221329 187.01229
L 218.390466 183.909722
L 223.559603 180.543979
L 228.728739 176.986424
L 233.897876 173.312488
L 239.067013 169.600069
L 244.23615 165.927881
L 249.405286 162.373785
L 254.574423 159.013139
L 259.74356 155.917198
L 264.912697 153.151606
L 270.081833 150.775001
L 275.25097 148.837773
L 280.420107 147.380999
L 285.589244 146.435566
L 290.75838 146.021519
L 295.927517 146.147639
L 301.096654 146.81125
L 306.265791 147.998282
L 311.434927 149.683567
L 316.604064 151.831372
L 321.773201 154.396156
L 326.942338 157.32354
L 332.111474 160.551453
L 337.280611 164.011455
L 342.449748 167.630183
L 347.618885 171.330909
L 352.788021 175.035168
L 357.957158 178.664418
L 363.126295 182.141708
L 368.295432 185.39331
L 373.464568 188.35028
L 378.633705 190.949921
L 383.802842 193.137114
L 388.971979 194.865483
L 394.141115 196.098382
L 399.310252 196.809671
L 404.479389 196.984266
L 409.648526 196.618468
L 414.817662 195.72003
L 419.986799 194.308004
L 425.155936 192.412329
L 430.325073 190.073197
L 435.494209 187.340206
L 440.663346 184.271303
L 445.832483 180.931558
L 451.00162 177.391783
L 456.170756 173.727032
L 461.339893 170.015008
L 466.50903 166.334418
L 471.678167 162.7633
L 476.847303 159.377373
L 482.01644 156.248429
L 487.185577 153.44281
L 492.354714 151.020003
L 497.52385 149.03138
L 502.692987 147.519105
L 507.862124 146.515242
L 513.031261 146.041077
L 518.200397 146.106663
L 523.369534 146.71061
L 528.538671 147.840111
L 533.707807 149.471219
L 538.876944 151.56935
L 544.046081 154.090015
L 549.215218 156.979771
L 554.384354 160.177345
L 559.553491 163.61494
L 564.722628 167.219669
L 569.891765 170.9151
L 575.060901 174.62288
L 580.230038 178.264393
L 585.399175 181.762427
L 590.568312 185.042815
L 595.737448 188.036003
L 600.906585 190.678526
L 606.075722 192.914354
L 611.244859 194.696083
L 616.413995 195.985933
L 621.583132 196.756556
L 626.752269 196.991613
L 631.921406 196.68612
L 637.090542 195.846554
L 642.259679 194.490716
L 647.428816 192.647355
L 652.597953 190.355554
L 657.767089 187.663907
L 662.936226 184.629485
L 668.105363 181.316627
L 673.2745 177.795573
L 678.443636 174.140983
" clip-path="url(#pd9adba9fc3)" style="fill: none; stroke: #e74c3c; stroke-width: 1.5; stroke-linecap: square"/>
   </g>
   <g id="line2d_35">
    <path d="M 63.316364 173.455627
L 68.4855 172.43129
L 73.654637 171.361487
L 78.823774 170.250235
L 83.992911 169.101711
L 89.162047 167.920229
L 94.331184 166.710227
L 99.500321 165.476251
L 104.669458 164.222937
L 109.838594 162.954994
L 115.007731 161.677183
L 120.176868 160.394307
L 125.346005 159.111185
L 130.515141 157.832636
L 135.684278 156.563464
L 140.853415 155.308438
L 146.022552 154.072271
L 151.191688 152.859608
L 156.360825 151.675005
L 161.529962 150.522912
L 166.699099 149.407656
L 171.868235 148.333429
L 177.037372 147.304264
L 182.206509 146.32403
L 187.375646 145.396408
L 192.544782 144.524882
L 197.713919 143.712728
L 202.883056 142.962996
L 208.052193 142.278503
L 213.221329 141.661821
L 218.390466 141.115265
L 223.559603 140.64089
L 228.728739 140.240477
L 233.897876 139.915531
L 239.067013 139.667272
L 244.23615 139.496633
L 249.405286 139.404256
L 254.574423 139.390486
L 259.74356 139.455377
L 264.912697 139.598683
L 270.081833 139.819868
L 275.25097 140.118099
L 280.420107 140.492256
L 285.589244 140.940935
L 290.75838 141.462448
L 295.927517 142.054838
L 301.096654 142.715878
L 306.265791 143.443086
L 311.434927 144.233728
L 316.604064 145.084836
L 321.773201 145.993211
L 326.942338 146.955441
L 332.111474 147.967912
L 337.280611 149.026819
L 342.449748 150.128184
L 347.618885 151.26787
L 352.788021 152.441596
L 357.957158 153.644952
L 363.126295 154.873416
L 368.295432 156.122375
L 373.464568 157.387137
L 378.633705 158.662948
L 383.802842 159.945018
L 388.971979 161.228529
L 394.141115 162.50866
L 399.310252 163.780601
L 404.479389 165.039573
L 409.648526 166.280849
L 414.817662 167.499763
L 419.986799 168.691737
L 425.155936 169.852294
L 430.325073 170.977072
L 435.494209 172.061847
L 440.663346 173.102543
L 445.832483 174.095251
L 451.00162 175.036241
L 456.170756 175.921979
L 461.339893 176.749136
L 466.50903 177.514605
L 471.678167 178.215511
L 476.847303 178.84922
L 482.01644 179.413352
L 487.185577 179.905788
L 492.354714 180.324677
L 497.52385 180.668445
L 502.692987 180.935802
L 507.862124 181.125743
L 513.031261 181.237555
L 518.200397 181.270816
L 523.369534 181.225403
L 528.538671 181.101486
L 533.707807 180.899531
L 538.876944 180.620295
L 544.046081 180.264829
L 549.215218 179.834468
L 554.384354 179.330828
L 559.553491 178.755801
L 564.722628 178.111548
L 569.891765 177.400489
L 575.060901 176.625296
L 580.230038 175.788879
L 585.399175 174.894383
L 590.568312 173.945167
L 595.737448 172.944796
L 600.906585 171.89703
L 606.075722 170.805805
L 611.244859 169.675219
L 616.413995 168.509521
L 621.583132 167.313089
L 626.752269 166.090419
L 631.921406 164.846103
L 637.090542 163.584816
L 642.259679 162.311297
L 647.428816 161.030329
L 652.597953 159.746726
L 657.767089 158.465309
L 662.936226 157.190892
L 668.105363 155.928263
L 673.2745 154.682166
L 678.443636 153.457281
" clip-path="url(#pd9adba9fc3)" style="fill: none; stroke: #f1c40f; stroke-width: 1.5; stroke-linecap: square"/>
   </g>
   <g id="line2d_36">
    <path d="M 63.316364 144.984371
L 68.4855 143.270432
L 73.654637 141.592695
L 78.823774 139.961474
L 83.992911 138.386795
L 89.162047 136.878338
L 94.331184 135.445376
L 99.500321 134.096718
L 104.669458 132.840652
L 109.838594 131.684901
L 115.007731 130.636569
L 120.176868 129.7021
L 125.346005 128.887237
L 130.515141 128.196991
L 135.684278 127.635604
L 140.853415 127.206526
L 146.022552 126.912396
L 151.191688 126.755021
L 156.360825 126.73537
L 161.529962 126.853561
L 166.699099 127.10887
L 171.868235 127.499726
L 177.037372 128.023728
L 182.206509 128.677653
L 187.375646 129.457483
L 192.544782 130.358424
L 197.713919 131.374937
L 202.883056 132.500774
L 208.052193 133.729015
L 213.221329 135.05211
L 218.390466 136.461925
L 223.559603 137.949794
L 228.728739 139.506572
L 233.897876 141.122689
L 239.067013 142.78821
L 244.23615 144.492898
L 249.405286 146.226274
L 254.574423 147.977683
L 259.74356 149.736359
L 264.912697 151.491492
L 270.081833 153.232291
L 275.25097 154.948058
L 280.420107 156.628245
L 285.589244 158.262523
L 290.75838 159.840848
L 295.927517 161.353517
L 301.096654 162.791231
L 306.265791 164.145153
L 311.434927 165.406961
L 316.604064 166.568897
L 321.773201 167.623821
L 326.942338 168.565246
L 332.111474 169.387387
L 337.280611 170.085189
L 342.449748 170.654363
L 347.618885 171.09141
L 352.788021 171.393644
L 357.957158 171.559207
L 363.126295 171.587081
L 368.295432 171.477095
L 373.464568 171.229924
L 378.633705 170.84709
L 383.802842 170.330943
L 388.971979 169.684658
L 394.141115 168.912207
L 399.310252 168.018339
L 404.479389 167.008547
L 409.648526 165.88904
L 414.817662 164.666698
L 419.986799 163.349036
L 425.155936 161.944153
L 430.325073 160.460685
L 435.494209 158.90775
L 440.663346 157.294896
L 445.832483 155.632035
L 451.00162 153.929391
L 456.170756 152.197427
L 461.339893 150.446793
L 466.50903 148.688247
L 471.678167 146.9326
L 476.847303 145.190645
L 482.01644 143.473089
L 487.185577 141.790489
L 492.354714 140.153189
L 497.52385 138.571253
L 502.692987 137.054405
L 507.862124 135.61197
L 513.031261 134.252814
L 518.200397 132.985292
L 523.369534 131.817194
L 528.538671 130.755703
L 533.707807 129.807342
L 538.876944 128.977941
L 544.046081 128.272599
L 549.215218 127.695651
L 554.384354 127.250644
L 559.553491 126.940312
L 564.722628 126.766565
L 569.891765 126.730469
L 575.060901 126.832248
L 580.230038 127.071274
L 585.399175 127.446079
L 590.568312 127.954359
L 595.737448 128.592989
L 600.906585 129.358044
L 606.075722 130.244821
L 611.244859 131.247869
L 616.413995 132.361022
L 621.583132 133.577438
L 626.752269 134.889639
L 631.921406 136.28956
L 637.090542 137.768594
L 642.259679 139.317651
L 647.428816 140.927207
L 652.597953 142.587371
L 657.767089 144.287935
L 662.936226 146.018447
L 668.105363 147.76827
L 673.2745 149.526647
L 678.443636 151.282769
" clip-path="url(#pd9adba9fc3)" style="fill: none; stroke: #1abc9c; stroke-width: 1.5; stroke-linecap: square"/>
   </g>
   <g id="line2d_37">
    <path d="M 63.316364 133.839422
L 68.4855 131.982023
L 73.654637 130.159178
L 78.823774 128.381368
L 83.992911 126.658817
L 89.162047 125.00143
L 94.331184 123.418737
L 99.500321 121.919839
L 104.669458 120.513356
L 109.838594 119.207375
L 115.007731 118.009405
L 120.176868 116.926336
L 125.346005 115.964396
L 130.515141 115.129115
L 135.684278 114.425297
L 140.853415 113.85699
L 146.022552 113.42746
L 151.191688 113.139179
L 156.360825 112.993803
L 161.529962 112.992169
L 166.699099 113.134286
L 171.868235 113.419337
L 177.037372 113.845683
L 182.206509 114.410872
L 187.375646 115.111654
L 192.544782 115.943999
L 197.713919 116.903121
L 202.883056 117.983506
L 208.052193 119.17894
L 213.221329 120.482549
L 218.390466 121.886837
L 223.559603 123.38373
L 228.728739 124.964619
L 233.897876 126.620414
L 239.067013 128.341593
L 244.23615 130.11826
L 249.405286 131.940198
L 254.574423 133.79693
L 259.74356 135.67778
L 264.912697 137.571931
L 270.081833 139.468493
L 275.25097 141.356559
L 280.420107 143.225273
L 285.589244 145.063888
L 290.75838 146.861833
L 295.927517 148.608768
L 301.096654 150.294648
L 306.265791 151.909778
L 311.434927 153.444872
L 316.604064 154.891102
L 321.773201 156.240152
L 326.942338 157.484264
L 332.111474 158.616285
L 337.280611 159.629704
L 342.449748 160.518695
L 347.618885 161.278145
L 352.788021 161.903687
L 357.957158 162.391725
L 363.126295 162.739452
L 368.295432 162.944868
L 373.464568 163.006792
L 378.633705 162.924869
L 383.802842 162.699568
L 388.971979 162.332187
L 394.141115 161.824837
L 399.310252 161.180435
L 404.479389 160.402688
L 409.648526 159.496067
L 414.817662 158.465786
L 419.986799 157.31777
L 425.155936 156.058619
L 430.325073 154.695574
L 435.494209 153.236473
L 440.663346 151.689707
L 445.832483 150.06417
L 451.00162 148.369208
L 456.170756 146.614569
L 461.339893 144.810343
L 466.50903 142.966903
L 471.678167 141.094851
L 476.847303 139.204951
L 482.01644 137.308071
L 487.185577 135.415119
L 492.354714 133.536979
L 497.52385 131.684451
L 502.692987 129.868188
L 507.862124 128.098634
L 513.031261 126.385965
L 518.200397 124.740028
L 523.369534 123.170289
L 528.538671 121.685774
L 533.707807 120.295018
L 538.876944 119.006021
L 544.046081 117.826193
L 549.215218 116.762319
L 554.384354 115.820516
L 559.553491 115.006201
L 564.722628 114.324056
L 569.891765 113.778003
L 575.060901 113.371182
L 580.230038 113.105933
L 585.399175 112.983781
L 590.568312 113.005428
L 595.737448 113.17075
L 600.906585 113.478796
L 606.075722 113.927795
L 611.244859 114.515165
L 616.413995 115.237529
L 621.583132 116.090731
L 626.752269 117.069868
L 631.921406 118.169307
L 637.090542 119.382728
L 642.259679 120.703152
L 647.428816 122.122986
L 652.597953 123.634067
L 657.767089 125.227705
L 662.936226 126.894736
L 668.105363 128.625574
L 673.2745 130.410266
L 678.443636 132.23855
" clip-path="url(#pd9adba9fc3)" style="fill: none; stroke: #9b59b6; stroke-width: 1.5; stroke-linecap: square"/>
   </g>
   <g id="line2d_38">
    <path d="M 63.316364 133.490843
L 68.4855 135.276297
L 73.654637 137.009473
L 78.823774 138.679653
L 83.992911 140.27651
L 89.162047 141.790169
L 94.331184 143.21127
L 99.500321 144.531024
L 104.669458 145.741271
L 109.838594 146.834528
L 115.007731 147.804032
L 120.176868 148.643791
L 125.346005 149.348609
L 130.515141 149.91413
L 135.684278 150.336855
L 140.853415 150.614172
L 146.022552 150.744364
L 151.191688 150.726627
L 156.360825 150.561071
L 161.529962 150.24872
L 166.699099 149.791504
L 171.868235 149.192252
L 177.037372 148.454668
L 182.206509 147.583314
L 187.375646 146.583579
L 192.544782 145.461644
L 197.713919 144.224447
L 202.883056 142.879639
L 208.052193 141.435535
L 213.221329 139.901066
L 218.390466 138.285721
L 223.559603 136.599488
L 228.728739 134.852794
L 233.897876 133.056442
L 239.067013 131.221539
L 244.23615 129.359431
L 249.405286 127.481635
L 254.574423 125.59976
L 259.74356 123.725446
L 264.912697 121.870281
L 270.081833 120.045738
L 275.25097 118.2631
L 280.420107 116.533389
L 285.589244 114.867303
L 290.75838 113.275143
L 295.927517 111.766756
L 301.096654 110.351469
L 306.265791 109.038033
L 311.434927 107.834571
L 316.604064 106.748524
L 321.773201 105.786609
L 326.942338 104.954774
L 332.111474 104.258163
L 337.280611 103.701082
L 342.449748 103.286978
L 347.618885 103.018411
L 352.788021 102.897042
L 357.957158 102.92362
L 363.126295 103.097983
L 368.295432 103.419051
L 373.464568 103.88484
L 378.633705 104.492468
L 383.802842 105.238179
L 388.971979 106.117361
L 394.141115 107.124577
L 399.310252 108.253599
L 404.479389 109.497446
L 409.648526 110.848426
L 414.817662 112.298184
L 419.986799 113.837756
L 425.155936 115.457621
L 430.325073 117.147762
L 435.494209 118.897729
L 440.663346 120.696698
L 445.832483 122.533547
L 451.00162 124.396917
L 456.170756 126.275284
L 461.339893 128.157033
L 466.50903 130.030528
L 471.678167 131.884185
L 476.847303 133.706539
L 482.01644 135.486322
L 487.185577 137.212529
L 492.354714 138.874484
L 497.52385 140.461911
L 502.692987 141.964994
L 507.862124 143.374437
L 513.031261 144.681525
L 518.200397 145.878175
L 523.369534 146.956988
L 528.538671 147.911292
L 533.707807 148.735186
L 538.876944 149.423575
L 544.046081 149.972203
L 549.215218 150.377676
L 554.384354 150.637488
L 559.553491 150.750032
L 564.722628 150.714612
L 569.891765 150.531446
L 575.060901 150.201669
L 580.230038 149.727318
L 585.399175 149.111327
L 590.568312 148.357506
L 595.737448 147.470515
L 600.906585 146.45584
L 606.075722 145.319755
L 611.244859 144.069286
L 616.413995 142.712165
L 621.583132 141.256784
L 626.752269 139.712143
L 631.921406 138.087794
L 637.090542 136.393782
L 642.259679 134.640581
L 647.428816 132.839034
L 652.597953 131.000279
L 657.767089 129.135689
L 662.936226 127.256794
L 668.105363 125.375211
L 673.2745 123.502576
L 678.443636 121.650469
" clip-path="url(#pd9adba9fc3)" style="fill: none; stroke: #e67e22; stroke-width: 1.5; stroke-linecap: square"/>
   </g>
   <g id="line2d_39">
    <path d="M 63.316364 141.540146
L 68.4855 140.991233
L 73.654637 140.37683
L 78.823774 139.698526
L 83.992911 138.958074
L 89.162047 138.157389
L 94.331184 137.298538
L 99.500321 136.383743
L 104.669458 135.415367
L 109.838594 134.395914
L 115.007731 133.328019
L 120.176868 132.214441
L 125.346005 131.058058
L 130.515141 129.861861
L 135.684278 128.628939
L 140.853415 127.362481
L 146.022552 126.065759
L 151.191688 124.742124
L 156.360825 123.394999
L 161.529962 122.027865
L 166.699099 120.644255
L 171.868235 119.247746
L 177.037372 117.841946
L 182.206509 116.43049
L 187.375646 115.017026
L 192.544782 113.605207
L 197.713919 112.198681
L 202.883056 110.801085
L 208.052193 109.416031
L 213.221329 108.047098
L 218.390466 106.697824
L 223.559603 105.371698
L 228.728739 104.072146
L 233.897876 102.802528
L 239.067013 101.566124
L 244.23615 100.366132
L 249.405286 99.205651
L 254.574423 98.087682
L 259.74356 97.015115
L 264.912697 95.990721
L 270.081833 95.017147
L 275.25097 94.096911
L 280.420107 93.232392
L 285.589244 92.425822
L 290.75838 91.679287
L 295.927517 90.994717
L 301.096654 90.373881
L 306.265791 89.818384
L 311.434927 89.329661
L 316.604064 88.908975
L 321.773201 88.557414
L 326.942338 88.275887
L 332.111474 88.065121
L 337.280611 87.925661
L 342.449748 87.857867
L 347.618885 87.861914
L 352.788021 87.937793
L 357.957158 88.085307
L 363.126295 88.304074
L 368.295432 88.59353
L 373.464568 88.952926
L 378.633705 89.381333
L 383.802842 89.877644
L 388.971979 90.440576
L 394.141115 91.068675
L 399.310252 91.760316
L 404.479389 92.513712
L 409.648526 93.326917
L 414.817662 94.197827
L 419.986799 95.124192
L 425.155936 96.103618
L 430.325073 97.133574
L 435.494209 98.211396
L 440.663346 99.3343
L 445.832483 100.499383
L 451.00162 101.703634
L 456.170756 102.94394
L 461.339893 104.217096
L 466.50903 105.51981
L 471.678167 106.848716
L 476.847303 108.200379
L 482.01644 109.571306
L 487.185577 110.957953
L 492.354714 112.356736
L 497.52385 113.76404
L 502.692987 115.176227
L 507.862124 116.589648
L 513.031261 118.000648
L 518.200397 119.405583
L 523.369534 120.800819
L 528.538671 122.182751
L 533.707807 123.547807
L 538.876944 124.892459
L 544.046081 126.213232
L 549.215218 127.506711
L 554.384354 128.769554
L 559.553491 129.998496
L 564.722628 131.190362
L 569.891765 132.34207
L 575.060901 133.450644
L 580.230038 134.513218
L 585.399175 135.527047
L 590.568312 136.48951
L 595.737448 137.398119
L 600.906585 138.250526
L 606.075722 139.044528
L 611.244859 139.778071
L 616.413995 140.449262
L 621.583132 141.056364
L 626.752269 141.597809
L 631.921406 142.072197
L 637.090542 142.478301
L 642.259679 142.815074
L 647.428816 143.081643
L 652.597953 143.27732
L 657.767089 143.401599
L 662.936226 143.454159
L 668.105363 143.434865
L 673.2745 143.343765
L 678.443636 143.181096
" clip-path="url(#pd9adba9fc3)" style="fill: none; stroke: #4cdc29; stroke-width: 1.5; stroke-linecap: square"/>
   </g>
   <g id="line2d_40">
    <path d="M 63.316364 119.814176
L 68.4855 120.233545
L 73.654637 120.513171
L 78.823774 120.650573
L 83.992911 120.644531
L 89.162047 120.495098
L 94.331184 120.203602
L 99.500321 119.772627
L 104.669458 119.205999
L 109.838594 118.508745
L 115.007731 117.687052
L 120.176868 116.748212
L 125.346005 115.700554
L 130.515141 114.553375
L 135.684278 113.316853
L 140.853415 112.001962
L 146.022552 110.620367
L 151.191688 109.184329
L 156.360825 107.70659
L 161.529962 106.200261
L 166.699099 104.678709
L 171.868235 103.155435
L 177.037372 101.643955
L 182.206509 100.157681
L 187.375646 98.709801
L 192.544782 97.313163
L 197.713919 95.980158
L 202.883056 94.722614
L 208.052193 93.551692
L 213.221329 92.477779
L 218.390466 91.510406
L 223.559603 90.658156
L 228.728739 89.928591
L 233.897876 89.328184
L 239.067013 88.862264
L 244.23615 88.534964
L 249.405286 88.349189
L 254.574423 88.306587
L 259.74356 88.407537
L 264.912697 88.651141
L 270.081833 89.035239
L 275.25097 89.556423
L 280.420107 90.210068
L 285.589244 90.990374
L 290.75838 91.890418
L 295.927517 92.902212
L 301.096654 94.01678
L 306.265791 95.224231
L 311.434927 96.513851
L 316.604064 97.874198
L 321.773201 99.2932
L 326.942338 100.758268
L 332.111474 102.256399
L 337.280611 103.774303
L 342.449748 105.298509
L 347.618885 106.815493
L 352.788021 108.311795
L 357.957158 109.774138
L 363.126295 111.189546
L 368.295432 112.54546
L 373.464568 113.829848
L 378.633705 115.031315
L 383.802842 116.139198
L 388.971979 117.143668
L 394.141115 118.035811
L 399.310252 118.807712
L 404.479389 119.452522
L 409.648526 119.964518
L 414.817662 120.339158
L 419.986799 120.573117
L 425.155936 120.66432
L 430.325073 120.611957
L 435.494209 120.416492
L 440.663346 120.079661
L 445.832483 119.604453
L 451.00162 118.995082
L 456.170756 118.256958
L 461.339893 117.396628
L 466.50903 116.421728
L 471.678167 115.340907
L 476.847303 114.163757
L 482.01644 112.900721
L 487.185577 111.563008
L 492.354714 110.162487
L 497.52385 108.711585
L 502.692987 107.223176
L 507.862124 105.710467
L 513.031261 104.186882
L 518.200397 102.665938
L 523.369534 101.161132
L 528.538671 99.685816
L 533.707807 98.25308
L 538.876944 96.875639
L 544.046081 95.565714
L 549.215218 94.334928
L 554.384354 93.194202
L 559.553491 92.153659
L 564.722628 91.222531
L 569.891765 90.40908
L 575.060901 89.720525
L 580.230038 89.162974
L 585.399175 88.741376
L 590.568312 88.459471
L 595.737448 88.31976
L 600.906585 88.323484
L 606.075722 88.470609
L 611.244859 88.759829
L 616.413995 89.188579
L 621.583132 89.753054
L 626.752269 90.448245
L 631.921406 91.267984
L 637.090542 92.204997
L 642.259679 93.250969
L 647.428816 94.39662
L 652.597953 95.631785
L 657.767089 96.945502
L 662.936226 98.326115
L 668.105363 99.761375
L 673.2745 101.238544
L 678.443636 102.744517
" clip-path="url(#pd9adba9fc3)" style="fill: none; stroke: #dc2994; stroke-width: 1.5; stroke-linecap: square"/>
   </g>
   <g id="line2d_41">
    <path d="M 63.316364 97.315911
L 68.4855 95.939074
L 73.654637 94.539194
L 78.823774 93.128568
L 83.992911 91.719586
L 89.162047 90.324626
L 94.331184 88.955941
L 99.500321 87.625553
L 104.669458 86.345147
L 109.838594 85.125973
L 115.007731 83.978737
L 120.176868 82.913519
L 125.346005 81.939674
L 130.515141 81.065757
L 135.684278 80.299444
L 140.853415 79.647467
L 146.022552 79.115553
L 151.191688 78.708374
L 156.360825 78.429506
L 161.529962 78.2814
L 166.699099 78.265355
L 171.868235 78.381514
L 177.037372 78.628856
L 182.206509 79.005208
L 187.375646 79.507264
L 192.544782 80.130614
L 197.713919 80.869783
L 202.883056 81.718277
L 208.052193 82.668645
L 213.221329 83.712537
L 218.390466 84.840784
L 223.559603 86.043476
L 228.728739 87.310047
L 233.897876 88.629374
L 239.067013 89.989866
L 244.23615 91.379573
L 249.405286 92.786289
L 254.574423 94.197655
L 259.74356 95.601275
L 264.912697 96.98482
L 270.081833 98.336137
L 275.25097 99.643355
L 280.420107 100.894992
L 285.589244 102.080053
L 290.75838 103.188129
L 295.927517 104.209487
L 301.096654 105.135156
L 306.265791 105.957003
L 311.434927 106.66781
L 316.604064 107.261333
L 321.773201 107.732359
L 326.942338 108.07675
L 332.111474 108.291481
L 337.280611 108.374666
L 342.449748 108.325574
L 347.618885 108.144636
L 352.788021 107.833442
L 357.957158 107.394726
L 363.126295 106.83234
L 368.295432 106.151226
L 373.464568 105.357365
L 378.633705 104.457731
L 383.802842 103.460227
L 388.971979 102.373614
L 394.141115 101.207438
L 399.310252 99.971942
L 404.479389 98.677978
L 409.648526 97.336913
L 414.817662 95.960527
L 419.986799 94.56091
L 425.155936 93.150355
L 430.325073 91.741254
L 435.494209 90.345984
L 440.663346 88.976801
L 445.832483 87.645732
L 451.00162 86.364469
L 456.170756 85.144267
L 461.339893 83.995843
L 466.50903 82.929285
L 471.678167 81.953963
L 476.847303 81.078444
L 482.01644 80.310417
L 487.185577 79.656629
L 492.354714 79.122824
L 497.52385 78.71369
L 502.692987 78.432821
L 507.862124 78.282684
L 513.031261 78.264597
L 518.200397 78.378721
L 523.369534 78.624052
L 528.538671 78.998435
L 533.707807 79.498582
L 538.876944 80.120099
L 544.046081 80.857528
L 549.215218 81.704389
L 554.384354 82.653246
L 559.553491 83.695762
L 564.722628 84.822781
L 569.891765 86.024403
L 575.060901 87.290072
L 580.230038 88.608672
L 585.399175 89.968619
L 590.568312 91.357967
L 595.737448 92.764514
L 600.906585 94.175902
L 606.075722 95.579736
L 611.244859 96.963684
L 616.413995 98.315589
L 621.583132 99.623576
L 626.752269 100.876155
L 631.921406 102.062325
L 637.090542 103.171665
L 642.259679 104.194431
L 647.428816 105.12164
L 652.597953 105.945146
L 657.767089 106.657717
L 662.936226 107.253092
L 668.105363 107.726043
L 673.2745 108.072414
L 678.443636 108.289163
" clip-path="url(#pd9adba9fc3)" style="fill: none; stroke: #3329dc; stroke-width: 1.5; stroke-linecap: square"/>
   </g>
   <g id="line2d_42">
    <path d="M 63.316364 68.334539
L 68.4855 65.343823
L 73.654637 62.783286
L 78.823774 60.718478
L 83.992911 59.202262
L 89.162047 58.273454
L 94.331184 57.955832
L 99.500321 58.257528
L 104.669458 59.170819
L 109.838594 60.672322
L 115.007731 62.723599
L 120.176868 65.272134
L 125.346005 68.252682
L 130.515141 71.588938
L 135.684278 75.195492
L 140.853415 78.980011
L 146.022552 82.845608
L 151.191688 86.69332
L 156.360825 90.424641
L 161.529962 93.944047
L 166.699099 97.161437
L 171.868235 99.994442
L 177.037372 102.370536
L 182.206509 104.228886
L 187.375646 105.521919
L 192.544782 106.21653
L 197.713919 106.294938
L 202.883056 105.755134
L 208.052193 104.610939
L 213.221329 102.891645
L 218.390466 100.641267
L 223.559603 97.917418
L 228.728739 94.78983
L 233.897876 91.338574
L 239.067013 87.652004
L 244.23615 83.8245
L 249.405286 79.954051
L 254.574423 76.139744
L 259.74356 72.479228
L 264.912697 69.066217
L 270.081833 65.988087
L 275.25097 63.323641
L 280.420107 61.141092
L 285.589244 59.496315
L 290.75838 58.431418
L 295.927517 57.973663
L 301.096654 58.13477
L 306.265791 58.910613
L 311.434927 60.281331
L 316.604064 62.211832
L 321.773201 64.652694
L 326.942338 67.541426
L 332.111474 70.804076
L 337.280611 74.357116
L 342.449748 78.109585
L 347.618885 81.965415
L 352.788021 85.825895
L 357.957158 89.592191
L 363.126295 93.167882
L 368.295432 96.461429
L 373.464568 99.388511
L 378.633705 101.874194
L 383.802842 103.854842
L 388.971979 105.279747
L 394.141115 106.11243
L 399.310252 106.331575
L 404.479389 105.931571
L 409.648526 104.922659
L 414.817662 103.330667
L 419.986799 101.196352
L 425.155936 98.574355
L 430.325073 95.531801
L 435.494209 92.146583
L 440.663346 88.505366
L 445.832483 84.701368
L 451.00162 80.831976
L 456.170756 76.99625
L 461.339893 73.292389
L 466.50903 69.815214
L 471.678167 66.653745
L 476.847303 63.888919
L 482.01644 61.591518
L 487.185577 59.820357
L 492.354714 58.620781
L 497.52385 58.023499
L 502.692987 58.043803
L 507.862124 58.681173
L 513.031261 59.919291
L 518.200397 61.72646
L 523.369534 64.056416
L 528.538671 66.849508
L 533.707807 70.034232
L 538.876944 73.529054
L 544.046081 77.244504
L 549.215218 81.085463
L 554.384354 84.953599
L 559.553491 88.749883
L 564.722628 92.377126
L 569.891765 95.742468
L 575.060901 98.759753
L 580.230038 101.351734
L 585.399175 103.452056
L 590.568312 105.006947
L 595.737448 105.976601
L 600.906585 106.336193
L 606.075722 106.076518
L 611.244859 105.204223
L 616.413995 103.741641
L 621.583132 101.726215
L 626.752269 99.209541
L 631.921406 96.25605
L 637.090542 92.941353
L 642.259679 89.350309
L 647.428816 85.574854
L 652.597953 81.711643
L 657.767089 77.859577
L 662.936226 74.117273
L 668.105363 70.580538
L 673.2745 67.339916
L 678.443636 64.478371
" clip-path="url(#pd9adba9fc3)" style="fill: none; stroke: #29c9dc; stroke-width: 1.5; stroke-linecap: square"/>
   </g>
   <g id="line2d_43">
    <path d="M 63.316364 92.49831
L 68.4855 91.107285
L 73.654637 89.29457
L 78.823774 87.098142
L 83.992911 84.564013
L 89.162047 81.745271
L 94.331184 78.700967
L 99.500321 75.494877
L 104.669458 72.194165
L 109.838594 68.86798
L 115.007731 65.586002
L 120.176868 62.416987
L 125.346005 59.427321
L 130.515141 56.679638
L 135.684278 54.231498
L 140.853415 52.134189
L 146.022552 50.431647
L 151.191688 49.159539
L 156.360825 48.344515
L 161.529962 48.003649
L 166.699099 48.144082
L 171.868235 48.762872
L 177.037372 49.847055
L 182.206509 51.37392
L 187.375646 53.311479
L 192.544782 55.619142
L 197.713919 58.248566
L 202.883056 61.144665
L 208.052193 64.246769
L 213.221329 67.48989
L 218.390466 70.806089
L 223.559603 74.125894
L 228.728739 77.379756
L 233.897876 80.499511
L 239.067013 83.419801
L 244.23615 86.079448
L 249.405286 88.422736
L 254.574423 90.400574
L 259.74356 91.971528
L 264.912697 93.102688
L 270.081833 93.770357
L 275.25097 93.960547
L 280.420107 93.669274
L 285.589244 92.90264
L 290.75838 91.676706
L 295.927517 90.017154
L 301.096654 87.95875
L 306.265791 85.544617
L 311.434927 82.825328
L 316.604064 79.85785
L 321.773201 76.704351
L 326.942338 73.430892
L 332.111474 70.106052
L 337.280611 66.799482
L 342.449748 63.580453
L 347.618885 60.5164
L 352.788021 57.671514
L 357.957158 55.105393
L 363.126295 52.871794
L 368.295432 51.017511
L 373.464568 49.581388
L 378.633705 48.593512
L 383.802842 48.074577
L 388.971979 48.035456
L 394.141115 48.476967
L 399.310252 49.389862
L 404.479389 50.755015
L 409.648526 52.543828
L 414.817662 54.718827
L 419.986799 57.234447
L 425.155936 60.037988
L 430.325073 63.070718
L 435.494209 66.269103
L 440.663346 69.56614
L 445.832483 72.892758
L 451.00162 76.179267
L 456.170756 79.356818
L 461.339893 82.358843
L 466.50903 85.122452
L 471.678167 87.589749
L 476.847303 89.709047
L 482.01644 91.435948
L 487.185577 92.734274
L 492.354714 93.576828
L 497.52385 93.945957
L 502.692987 93.833929
L 507.862124 93.243091
L 513.031261 92.18582
L 518.200397 90.684265
L 523.369534 88.769884
L 528.538671 86.48278
L 533.707807 83.870867
L 538.876944 80.988862
L 544.046081 77.897141
L 549.215218 74.660473
L 554.384354 71.346665
L 559.553491 68.025137
L 564.722628 64.765473
L 569.891765 61.635961
L 575.060901 58.702161
L 580.230038 56.025534
L 585.399175 53.662155
L 590.568312 51.661533
L 595.737448 50.065579
L 600.906585 48.907729
L 606.075722 48.212238
L 611.244859 47.993677
L 616.413995 48.256623
L 621.583132 48.995568
L 626.752269 50.195033
L 631.921406 51.829888
L 637.090542 53.865886
L 642.259679 56.260373
L 647.428816 58.963187
L 652.597953 61.917707
L 657.767089 65.062036
L 662.936226 68.330304
L 668.105363 71.654043
L 673.2745 74.963624
L 678.443636 78.189713
" clip-path="url(#pd9adba9fc3)" style="fill: none; stroke: #dc5b29; stroke-width: 1.5; stroke-linecap: square"/>
   </g>
   <g id="line2d_44">
    <path d="M 63.316364 63.721041
L 68.4855 61.430027
L 73.654637 59.123074
L 78.823774 56.82287
L 83.992911 54.552037
L 89.162047 52.332907
L 94.331184 50.187304
L 99.500321 48.136328
L 104.669458 46.200151
L 109.838594 44.397813
L 115.007731 42.747039
L 120.176868 41.264064
L 125.346005 39.963471
L 130.515141 38.858053
L 135.684278 37.958678
L 140.853415 37.274194
L 146.022552 36.81133
L 151.191688 36.57464
L 156.360825 36.56645
L 161.529962 36.786842
L 166.699099 37.233648
L 171.868235 37.902473
L 177.037372 38.786741
L 182.206509 39.877755
L 187.375646 41.164785
L 192.544782 42.635175
L 197.713919 44.274463
L 202.883056 46.066529
L 208.052193 47.993748
L 213.221329 50.037167
L 218.390466 52.17669
L 223.559603 54.391277
L 228.728739 56.659147
L 233.897876 58.957999
L 239.067013 61.265223
L 244.23615 63.55813
L 249.405286 65.81417
L 254.574423 68.011156
L 259.74356 70.127482
L 264.912697 72.142335
L 270.081833 74.0359
L 275.25097 75.789555
L 280.420107 77.386054
L 285.589244 78.809696
L 290.75838 80.046481
L 295.927517 81.084244
L 301.096654 81.912781
L 306.265791 82.523943
L 311.434927 82.91172
L 316.604064 83.072298
L 321.773201 83.004098
L 326.942338 82.707791
L 332.111474 82.186291
L 337.280611 81.444725
L 342.449748 80.490389
L 347.618885 79.332665
L 352.788021 77.982941
L 357.957158 76.45449
L 363.126295 74.762344
L 368.295432 72.923143
L 373.464568 70.954975
L 378.633705 68.877197
L 383.802842 66.710242
L 388.971979 64.47542
L 394.141115 62.194711
L 399.310252 59.890543
L 404.479389 57.585577
L 409.648526 55.30248
L 414.817662 53.063707
L 419.986799 50.891273
L 425.155936 48.806544
L 430.325073 46.830022
L 435.494209 44.981144
L 440.663346 43.278094
L 445.832483 41.73762
L 451.00162 40.374872
L 456.170756 39.203252
L 461.339893 38.234281
L 466.50903 37.477489
L 471.678167 36.94032
L 476.847303 36.628054
L 482.01644 36.543764
L 487.185577 36.688279
L 492.354714 37.060177
L 497.52385 37.655801
L 502.692987 38.469293
L 507.862124 39.492653
L 513.031261 40.715816
L 518.200397 42.126754
L 523.369534 43.711591
L 528.538671 45.454741
L 533.707807 47.339061
L 538.876944 49.34602
L 544.046081 51.455879
L 549.215218 53.647891
L 554.384354 55.900498
L 559.553491 58.191546
L 564.722628 60.498505
L 569.891765 62.798686
L 575.060901 65.069469
L 580.230038 67.288523
L 585.399175 69.434022
L 590.568312 71.484869
L 595.737448 73.420894
L 600.906585 75.223057
L 606.075722 76.873635
L 611.244859 78.356395
L 616.413995 79.656756
L 621.583132 80.761928
L 626.752269 81.661044
L 631.921406 82.34526
L 637.090542 82.807849
L 642.259679 83.04426
L 647.428816 83.052169
L 652.597953 82.831498
L 657.767089 82.384417
L 662.936226 81.715323
L 668.105363 80.830797
L 673.2745 79.739535
L 678.443636 78.452272
" clip-path="url(#pd9adba9fc3)" style="fill: none; stroke: #dc9a29; stroke-width: 1.5; stroke-linecap: square"/>
   </g>
   <g id="line2d_45">
    <path d="M 63.316364 73.931115
L 68.4855 71.92436
L 73.654637 69.522198
L 78.823774 66.765423
L 83.992911 63.700851
L 89.162047 60.380524
L 94.331184 56.860829
L 99.500321 53.201537
L 104.669458 49.46479
L 109.838594 45.714046
L 115.007731 42.013
L 120.176868 38.424504
L 125.346005 35.009498
L 130.515141 31.825975
L 135.684278 28.927998
L 140.853415 26.36478
L 146.022552 24.179851
L 151.191688 22.410315
L 156.360825 21.086222
L 161.529962 20.230059
L 166.699099 19.856364
L 171.868235 19.971483
L 177.037372 20.573462
L 182.206509 21.652078
L 187.375646 23.189014
L 192.544782 25.158169
L 197.713919 27.526103
L 202.883056 30.252604
L 208.052193 33.29137
L 213.221329 36.590796
L 218.390466 40.094853
L 223.559603 43.744033
L 228.728739 47.476366
L 233.897876 51.228469
L 239.067013 54.936625
L 244.23615 58.537861
L 249.405286 61.97102
L 254.574423 65.1778
L 259.74356 68.103745
L 264.912697 70.699165
L 270.081833 72.919985
L 275.25097 74.72849
L 280.420107 76.093969
L 285.589244 76.993233
L 290.75838 77.411011
L 295.927517 77.340207
L 301.096654 76.782025
L 306.265791 75.745943
L 311.434927 74.249556
L 316.604064 72.318277
L 321.773201 69.984901
L 326.942338 67.289054
L 332.111474 64.276518
L 337.280611 60.998452
L 342.449748 57.510523
L 347.618885 53.871964
L 352.788021 50.144565
L 357.957158 46.391626
L 363.126295 42.676877
L 368.295432 39.063405
L 373.464568 35.612572
L 378.633705 32.382981
L 383.802842 29.429477
L 388.971979 26.802216
L 394.141115 24.545815
L 399.310252 22.698593
L 404.479389 21.291918
L 409.648526 20.349679
L 414.817662 19.887878
L 419.986799 19.914355
L 425.155936 20.428663
L 430.325073 21.422066
L 435.494209 22.877695
L 440.663346 24.77083
L 445.832483 27.069323
L 451.00162 29.734139
L 456.170756 32.720024
L 461.339893 35.976273
L 466.50903 39.447588
L 471.678167 43.075018
L 476.847303 46.796962
L 482.01644 50.550215
L 487.185577 54.271038
L 492.354714 57.896244
L 497.52385 61.364269
L 502.692987 64.61622
L 507.862124 67.596871
L 513.031261 70.255605
L 518.200397 72.547272
L 523.369534 74.432954
L 528.538671 75.880629
L 533.707807 76.865711
L 538.876944 77.371472
L 544.046081 77.389324
L 549.215218 76.918963
L 554.384354 75.968377
L 559.553491 74.553709
L 564.722628 72.698982
L 569.891765 70.435694
L 575.060901 67.80228
L 580.230038 64.843461
L 585.399175 61.609484
L 590.568312 58.155268
L 595.737448 54.539473
L 600.906585 50.823502
L 606.075722 47.07046
L 611.244859 43.344082
L 616.413995 39.707649
L 621.583132 36.222915
L 626.752269 32.949058
L 631.921406 29.941675
L 637.090542 27.251837
L 642.259679 24.925224
L 647.428816 23.001346
L 652.597953 21.512874
L 657.767089 20.485086
L 662.936226 19.935435
L 668.105363 19.873256
L 673.2745 20.299605
L 678.443636 21.207241
" clip-path="url(#pd9adba9fc3)" style="fill: none; stroke: #29dcce; stroke-width: 1.5; stroke-linecap: square"/>
   </g>
   <g id="line2d_46">
    <path d="M 63.316364 44.114716
L 68.4855 45.822786
L 73.654637 47.363706
L 78.823774 48.706633
L 83.992911 49.824689
L 89.162047 50.695495
L 94.331184 51.301621
L 99.500321 51.630936
L 104.669458 51.676847
L 109.838594 51.438437
L 115.007731 50.920477
L 120.176868 50.133334
L 125.346005 49.092763
L 130.515141 47.819592
L 135.684278 46.339304
L 140.853415 44.681528
L 146.022552 42.879444
L 151.191688 40.969123
L 156.360825 38.9888
L 161.529962 36.978113
L 166.699099 34.977306
L 171.868235 33.026427
L 177.037372 31.164522
L 182.206509 29.42886
L 187.375646 27.854181
L 192.544782 26.472001
L 197.713919 25.309987
L 202.883056 24.391397
L 208.052193 23.734616
L 213.221329 23.35279
L 218.390466 23.253562
L 223.559603 23.438918
L 228.728739 23.905148
L 233.897876 24.64292
L 239.067013 25.637467
L 244.23615 26.868883
L 249.405286 28.312521
L 254.574423 29.939485
L 259.74356 31.71721
L 264.912697 33.610116
L 270.081833 35.580314
L 275.25097 37.58837
L 280.420107 39.594092
L 285.589244 41.557335
L 290.75838 43.438802
L 295.927517 45.200836
L 301.096654 46.808168
L 306.265791 48.228628
L 311.434927 49.433783
L 316.604064 50.399513
L 321.773201 51.106487
L 326.942338 51.540555
L 332.111474 51.693029
L 337.280611 51.560858
L 342.449748 51.146686
L 347.618885 50.458804
L 352.788021 49.51098
L 357.957158 48.322184
L 363.126295 46.916212
L 368.295432 45.321205
L 373.464568 43.569087
L 378.633705 41.694927
L 383.802842 39.736239
L 388.971979 37.732226
L 394.141115 35.722999
L 399.310252 33.748775
L 404.479389 31.849067
L 409.648526 30.061901
L 414.817662 28.423046
L 419.986799 26.965305
L 425.155936 25.717855
L 430.325073 24.705666
L 435.494209 23.948996
L 440.663346 23.46299
L 445.832483 23.257377
L 451.00162 23.336271
L 456.170756 23.698093
L 461.339893 24.335602
L 466.50903 25.236037
L 471.678167 26.381375
L 476.847303 27.748693
L 482.01644 29.310623
L 487.185577 31.035901
L 492.354714 32.889997
L 497.52385 34.835798
L 502.692987 36.834359
L 507.862124 38.845677
L 513.031261 40.829496
L 518.200397 42.746108
L 523.369534 44.557151
L 528.538671 46.226376
L 533.707807 47.720373
L 538.876944 49.00924
L 544.046081 50.067177
L 549.215218 50.873011
L 554.384354 51.410613
L 559.553491 51.669221
L 564.722628 51.64366
L 569.891765 51.334442
L 575.060901 50.747754
L 580.230038 49.895342
L 585.399175 48.794265
L 590.568312 47.466562
L 595.737448 45.938809
L 600.906585 44.241583
L 606.075722 42.408856
L 611.244859 40.47731
L 616.413995 38.485607
L 621.583132 36.47361
L 626.752269 34.481592
L 631.921406 32.549423
L 637.090542 30.715777
L 642.259679 29.017355
L 647.428816 27.488152
L 652.597953 26.158776
L 657.767089 25.055833
L 662.936226 24.201402
L 668.105363 23.612583
L 673.2745 23.301162
L 678.443636 23.273372
" clip-path="url(#pd9adba9fc3)" style="fill: none; stroke: #dc29b6; stroke-width: 1.5; stroke-linecap: square"/>
   </g>
   <g id="patch_3">
    <path d="M 32.56 210.04
L 32.56 10.8
" style="fill: none; stroke: #ffffff; stroke-linejoin: miter; stroke-linecap: square"/>
   </g>
   <g id="patch_4">
    <path d="M 709.2 210.04
L 709.2 10.8
" style="fill: none; stroke: #ffffff; stroke-linejoin: miter; stroke-linecap: square"/>
   </g>
   <g id="patch_5">
    <path d="M 32.56 210.04
L 709.2 210.04
" style="fill: none; stroke: #ffffff; stroke-linejoin: miter; stroke-linecap: square"/>
   </g>
   <g id="patch_6">
    <path d="M 32.56 10.8
L 709.2 10.8
" style="fill: none; stroke: #ffffff; stroke-linejoin: miter; stroke-linecap: square"/>
   </g>
   <g id="legend_1">
    <g id="patch_7">
     <path d="M 626.278125 224.29375
L 702.2 224.29375
Q 704.2 224.29375 704.2 222.29375
L 704.2 17.8
Q 704.2 15.8 702.2 15.8
L 626.278125 15.8
Q 624.278125 15.8 624.278125 17.8
L 624.278125 222.29375
Q 624.278125 224.29375 626.278125 224.29375
z
" style="fill: #1a1a2e; opacity: 0.9; stroke: #2a2a4a; stroke-linejoin: miter"/>
    </g>
    <g id="line2d_47">
     <path d="M 628.278125 23.898438
L 638.278125 23.898438
L 648.278125 23.898438
" style="fill: none; stroke: #3498db; stroke-width: 1.5; stroke-linecap: square"/>
    </g>
    <g id="text_18">
     <!-- curve 1 -->
     <g style="fill: #ffffff" transform="translate(656.278125 27.398438) scale(0.1 -0.1)">
      <defs>
       <path id="DejaVuSans-63" d="M 3122 3366
L 3122 2828
Q 2878 2963 2633 3030
Q 2388 3097 2138 3097
Q 1578 3097 1268 2742
Q 959 2388 959 1747
Q 959 1106 1268 751
Q 1578 397 2138 397
Q 2388 397 2633 464
Q 2878 531 3122 666
L 3122 134
Q 2881 22 2623 -34
Q 2366 -91 2075 -91
Q 1284 -91 818 406
Q 353 903 353 1747
Q 353 2603 823 3093
Q 1294 3584 2113 3584
Q 2378 3584 2631 3529
Q 2884 3475 3122 3366
z
" transform="scale(0.015625)"/>
       <path id="DejaVuSans-75" d="M 544 1381
L 544 3500
L 1119 3500
L 1119 1403
Q 1119 906 1312 657
Q 1506 409 1894 409
Q 2359 409 2629 706
Q 2900 1003 2900 1516
L 2900 3500
L 3475 3500
L 3475 0
L 2900 0
L 2900 538
Q 2691 219 2414 64
Q 2138 -91 1772 -91
Q 1169 -91 856 284
Q 544 659 544 1381
z
M 1991 3584
L 1991 3584
z
" transform="scale(0.015625)"/>
       <path id="DejaVuSans-72" d="M 2631 2963
Q 2534 3019 2420 3045
Q 2306 3072 2169 3072
Q 1681 3072 1420 2755
Q 1159 2438 1159 1844
L 1159 0
L 581 0
L 581 3500
L 1159 3500
L 1159 2956
Q 1341 3275 1631 3429
Q 1922 3584 2338 3584
Q 2397 3584 2469 3576
Q 2541 3569 2628 3553
L 2631 2963
z
" transform="scale(0.015625)"/>
       <path id="DejaVuSans-76" d="M 191 3500
L 800 3500
L 1894 563
L 2988 3500
L 3597 3500
L 2284 0
L 1503 0
L 191 3500
z
" transform="scale(0.015625)"/>
      </defs>
      <use xlink:href="#DejaVuSans-63"/>
      <use xlink:href="#DejaVuSans-75" transform="translate(54.980469 0)"/>
      <use xlink:href="#DejaVuSans-72" transform="translate(118.359375 0)"/>
      <use xlink:href="#DejaVuSans-76" transform="translate(159.472656 0)"/>
      <use xlink:href="#DejaVuSans-65" transform="translate(218.652344 0)"/>
      <use xlink:href="#DejaVuSans-20" transform="translate(280.175781 0)"/>
      <use xlink:href="#DejaVuSans-31" transform="translate(311.962891 0)"/>
     </g>
    </g>
    <g id="line2d_48">
     <path d="M 628.278125 38.576563
L 638.278125 38.576563
L 648.278125 38.576563
" style="fill: none; stroke: #e74c3c; stroke-width: 1.5; stroke-linecap: square"/>
    </g>
    <g id="text_19">
     <!-- curve 2 -->
     <g style="fill: #ffffff" transform="translate(656.278125 42.076563) scale(0.1 -0.1)">
      <use xlink:href="#DejaVuSans-63"/>
      <use xlink:href="#DejaVuSans-75" transform="translate(54.980469 0)"/>
      <use xlink:href="#DejaVuSans-72" transform="translate(118.359375 0)"/>
      <use xlink:href="#DejaVuSans-76" transform="translate(159.472656 0)"/>
      <use xlink:href="#DejaVuSans-65" transform="translate(218.652344 0)"/>
      <use xlink:href="#DejaVuSans-20" transform="translate(280.175781 0)"/>
      <use xlink:href="#DejaVuSans-32" transform="translate(311.962891 0)"/>
     </g>
    </g>
    <g id="line2d_49">
     <path d="M 628.278125 53.254688
L 638.278125 53.254688
L 648.278125 53.254688
" style="fill: none; stroke: #f1c40f; stroke-width: 1.5; stroke-linecap: square"/>
    </g>
    <g id="text_20">
     <!-- curve 3 -->
     <g style="fill: #ffffff" transform="translate(656.278125 56.754688) scale(0.1 -0.1)">
      <use xlink:href="#DejaVuSans-63"/>
      <use xlink:href="#DejaVuSans-75" transform="translate(54.980469 0)"/>
      <use xlink:href="#DejaVuSans-72" transform="translate(118.359375 0)"/>
      <use xlink:href="#DejaVuSans-76" transform="translate(159.472656 0)"/>
      <use xlink:href="#DejaVuSans-65" transform="translate(218.652344 0)"/>
      <use xlink:href="#DejaVuSans-20" transform="translate(280.175781 0)"/>
      <use xlink:href="#DejaVuSans-33" transform="translate(311.962891 0)"/>
     </g>
    </g>
    <g id="line2d_50">
     <path d="M 628.278125 67.932813
L 638.278125 67.932813
L 648.278125 67.932813
" style="fill: none; stroke: #1abc9c; stroke-width: 1.5; stroke-linecap: square"/>
    </g>
    <g id="text_21">
     <!-- curve 4 -->
     <g style="fill: #ffffff" transform="translate(656.278125 71.432813) scale(0.1 -0.1)">
      <use xlink:href="#DejaVuSans-63"/>
      <use xlink:href="#DejaVuSans-75" transform="translate(54.980469 0)"/>
      <use xlink:href="#DejaVuSans-72" transform="translate(118.359375 0)"/>
      <use xlink:href="#DejaVuSans-76" transform="translate(159.472656 0)"/>
      <use xlink:href="#DejaVuSans-65" transform="translate(218.652344 0)"/>
      <use xlink:href="#DejaVuSans-20" transform="translate(280.175781 0)"/>
      <use xlink:href="#DejaVuSans-34" transform="translate(311.962891 0)"/>
     </g>
    </g>
    <g id="line2d_51">
     <path d="M 628.278125 82.610938
L 638.278125 82.610938
L 648.278125 82.610938
" style="fill: none; stroke: #9b59b6; stroke-width: 1.5; stroke-linecap: square"/>
    </g>
    <g id="text_22">
     <!-- curve 5 -->
     <g style="fill: #ffffff" transform="translate(656.278125 86.110938) scale(0.1 -0.1)">
      <use xlink:href="#DejaVuSans-63"/>
      <use xlink:href="#DejaVuSans-75" transform="translate(54.980469 0)"/>
      <use xlink:href="#DejaVuSans-72" transform="translate(118.359375 0)"/>
      <use xlink:href="#DejaVuSans-76" transform="translate(159.472656 0)"/>
      <use xlink:href="#DejaVuSans-65" transform="translate(218.652344 0)"/>
      <use xlink:href="#DejaVuSans-20" transform="translate(280.175781 0)"/>
      <use xlink:href="#DejaVuSans-35" transform="translate(311.962891 0)"/>
     </g>
    </g>
    <g id="line2d_52">
     <path d="M 628.278125 97.289062
L 638.278125 97.289062
L 648.278125 97.289062
" style="fill: none; stroke: #e67e22; stroke-width: 1.5; stroke-linecap: square"/>
    </g>
    <g id="text_23">
     <!-- curve 6 -->
     <g style="fill: #ffffff" transform="translate(656.278125 100.789062) scale(0.1 -0.1)">
      <use xlink:href="#DejaVuSans-63"/>
      <use xlink:href="#DejaVuSans-75" transform="translate(54.980469 0)"/>
      <use xlink:href="#DejaVuSans-72" transform="translate(118.359375 0)"/>
      <use xlink:href="#DejaVuSans-76" transform="translate(159.472656 0)"/>
      <use xlink:href="#DejaVuSans-65" transform="translate(218.652344 0)"/>
      <use xlink:href="#DejaVuSans-20" transform="translate(280.175781 0)"/>
      <use xlink:href="#DejaVuSans-36" transform="translate(311.962891 0)"/>
     </g>
    </g>
    <g id="line2d_53">
     <path d="M 628.278125 111.967188
L 638.278125 111.967188
L 648.278125 111.967188
" style="fill: none; stroke: #4cdc29; stroke-width: 1.5; stroke-linecap: square"/>
    </g>
    <g id="text_24">
     <!-- curve 7 -->
     <g style="fill: #ffffff" transform="translate(656.278125 115.467188) scale(0.1 -0.1)">
      <use xlink:href="#DejaVuSans-63"/>
      <use xlink:href="#DejaVuSans-75" transform="translate(54.980469 0)"/>
      <use xlink:href="#DejaVuSans-72" transform="translate(118.359375 0)"/>
      <use xlink:href="#DejaVuSans-76" transform="translate(159.472656 0)"/>
      <use xlink:href="#DejaVuSans-65" transform="translate(218.652344 0)"/>
      <use xlink:href="#DejaVuSans-20" transform="translate(280.175781 0)"/>
      <use xlink:href="#DejaVuSans-37" transform="translate(311.962891 0)"/>
     </g>
    </g>
    <g id="line2d_54">
     <path d="M 628.278125 126.645312
L 638.278125 126.645312
L 648.278125 126.645312
" style="fill: none; stroke: #dc2994; stroke-width: 1.5; stroke-linecap: square"/>
    </g>
    <g id="text_25">
     <!-- curve 8 -->
     <g style="fill: #ffffff" transform="translate(656.278125 130.145312) scale(0.1 -0.1)">
      <use xlink:href="#DejaVuSans-63"/>
      <use xlink:href="#DejaVuSans-75" transform="translate(54.980469 0)"/>
      <use xlink:href="#DejaVuSans-72" transform="translate(118.359375 0)"/>
      <use xlink:href="#DejaVuSans-76" transform="translate(159.472656 0)"/>
      <use xlink:href="#DejaVuSans-65" transform="translate(218.652344 0)"/>
      <use xlink:href="#DejaVuSans-20" transform="translate(280.175781 0)"/>
      <use xlink:href="#DejaVuSans-38" transform="translate(311.962891 0)"/>
     </g>
    </g>
    <g id="line2d_55">
     <path d="M 628.278125 141.323438
L 638.278125 141.323438
L 648.278125 141.323438
" style="fill: none; stroke: #3329dc; stroke-width: 1.5; stroke-linecap: square"/>
    </g>
    <g id="text_26">
     <!-- curve 9 -->
     <g style="fill: #ffffff" transform="translate(656.278125 144.823438) scale(0.1 -0.1)">
      <defs>
       <path id="DejaVuSans-39" d="M 703 97
L 703 672
Q 941 559 1184 500
Q 1428 441 1663 441
Q 2288 441 2617 861
Q 2947 1281 2994 2138
Q 2813 1869 2534 1725
Q 2256 1581 1919 1581
Q 1219 1581 811 2004
Q 403 2428 403 3163
Q 403 3881 828 4315
Q 1253 4750 1959 4750
Q 2769 4750 3195 4129
Q 3622 3509 3622 2328
Q 3622 1225 3098 567
Q 2575 -91 1691 -91
Q 1453 -91 1209 -44
Q 966 3 703 97
z
M 1959 2075
Q 2384 2075 2632 2365
Q 2881 2656 2881 3163
Q 2881 3666 2632 3958
Q 2384 4250 1959 4250
Q 1534 4250 1286 3958
Q 1038 3666 1038 3163
Q 1038 2656 1286 2365
Q 1534 2075 1959 2075
z
" transform="scale(0.015625)"/>
      </defs>
      <use xlink:href="#DejaVuSans-63"/>
      <use xlink:href="#DejaVuSans-75" transform="translate(54.980469 0)"/>
      <use xlink:href="#DejaVuSans-72" transform="translate(118.359375 0)"/>
      <use xlink:href="#DejaVuSans-76" transform="translate(159.472656 0)"/>
      <use xlink:href="#DejaVuSans-65" transform="translate(218.652344 0)"/>
      <use xlink:href="#DejaVuSans-20" transform="translate(280.175781 0)"/>
      <use xlink:href="#DejaVuSans-39" transform="translate(311.962891 0)"/>
     </g>
    </g>
    <g id="line2d_56">
     <path d="M 628.278125 156.001562
L 638.278125 156.001562
L 648.278125 156.001562
" style="fill: none; stroke: #29c9dc; stroke-width: 1.5; stroke-linecap: square"/>
    </g>
    <g id="text_27">
     <!-- curve 10 -->
     <g style="fill: #ffffff" transform="translate(656.278125 159.501562) scale(0.1 -0.1)">
      <use xlink:href="#DejaVuSans-63"/>
      <use xlink:href="#DejaVuSans-75" transform="translate(54.980469 0)"/>
      <use xlink:href="#DejaVuSans-72" transform="translate(118.359375 0)"/>
      <use xlink:href="#DejaVuSans-76" transform="translate(159.472656 0)"/>
      <use xlink:href="#DejaVuSans-65" transform="translate(218.652344 0)"/>
      <use xlink:href="#DejaVuSans-20" transform="translate(280.175781 0)"/>
      <use xlink:href="#DejaVuSans-31" transform="translate(311.962891 0)"/>
      <use xlink:href="#DejaVuSans-30" transform="translate(375.585938 0)"/>
     </g>
    </g>
    <g id="line2d_57">
     <path d="M 628.278125 170.679687
L 638.278125 170.679687
L 648.278125 170.679687
" style="fill: none; stroke: #dc5b29; stroke-width: 1.5; stroke-linecap: square"/>
    </g>
    <g id="text_28">
     <!-- curve 11 -->
     <g style="fill: #ffffff" transform="translate(656.278125 174.179687) scale(0.1 -0.1)">
      <use xlink:href="#DejaVuSans-63"/>
      <use xlink:href="#DejaVuSans-75" transform="translate(54.980469 0)"/>
      <use xlink:href="#DejaVuSans-72" transform="translate(118.359375 0)"/>
      <use xlink:href="#DejaVuSans-76" transform="translate(159.472656 0)"/>
      <use xlink:href="#DejaVuSans-65" transform="translate(218.652344 0)"/>
      <use xlink:href="#DejaVuSans-20" transform="translate(280.175781 0)"/>
      <use xlink:href="#DejaVuSans-31" transform="translate(311.962891 0)"/>
      <use xlink:href="#DejaVuSans-31" transform="translate(375.585938 0)"/>
     </g>
    </g>
    <g id="line2d_58">
     <path d="M 628.278125 185.357812
L 638.278125 185.357812
L 648.278125 185.357812
" style="fill: none; stroke: #dc9a29; stroke-width: 1.5; stroke-linecap: square"/>
    </g>
    <g id="text_29">
     <!-- curve 12 -->
     <g style="fill: #ffffff" transform="translate(656.278125 188.857812) scale(0.1 -0.1)">
      <use xlink:href="#DejaVuSans-63"/>
      <use xlink:href="#DejaVuSans-75" transform="translate(54.980469 0)"/>
      <use xlink:href="#DejaVuSans-72" transform="translate(118.359375 0)"/>
      <use xlink:href="#DejaVuSans-76" transform="translate(159.472656 0)"/>
      <use xlink:href="#DejaVuSans-65" transform="translate(218.652344 0)"/>
      <use xlink:href="#DejaVuSans-20" transform="translate(280.175781 0)"/>
      <use xlink:href="#DejaVuSans-31" transform="translate(311.962891 0)"/>
      <use xlink:href="#DejaVuSans-32" transform="translate(375.585938 0)"/>
     </g>
    </g>
    <g id="line2d_59">
     <path d="M 628.278125 200.035937
L 638.278125 200.035937
L 648.278125 200.035937
" style="fill: none; stroke: #29dcce; stroke-width: 1.5; stroke-linecap: square"/>
    </g>
    <g id="text_30">
     <!-- curve 13 -->
     <g style="fill: #ffffff" transform="translate(656.278125 203.535937) scale(0.1 -0.1)">
      <use xlink:href="#DejaVuSans-63"/>
      <use xlink:href="#DejaVuSans-75" transform="translate(54.980469 0)"/>
      <use xlink:href="#DejaVuSans-72" transform="translate(118.359375 0)"/>
      <use xlink:href="#DejaVuSans-76" transform="translate(159.472656 0)"/>
      <use xlink:href="#DejaVuSans-65" transform="translate(218.652344 0)"/>
      <use xlink:href="#DejaVuSans-20" transform="translate(280.175781 0)"/>
      <use xlink:href="#DejaVuSans-31" transform="translate(311.962891 0)"/>
      <use xlink:href="#DejaVuSans-33" transform="translate(375.585938 0)"/>
     </g>
    </g>
    <g id="line2d_60">
     <path d="M 628.278125 214.714062
L 638.278125 214.714062
L 648.278125 214.714062
" style="fill: none; stroke: #dc29b6; stroke-width: 1.5; stroke-linecap: square"/>
    </g>
    <g id="text_31">
     <!-- curve 14 -->
     <g style="fill: #ffffff" transform="translate(656.278125 218.214062) scale(0.1 -0.1)">
      <use xlink:href="#DejaVuSans-63"/>
      <use xlink:href="#DejaVuSans-75" transform="translate(54.980469 0)"/>
      <use xlink:href="#DejaVuSans-72" transform="translate(118.359375 0)"/>
      <use xlink:href="#DejaVuSans-76" transform="translate(159.472656 0)"/>
      <use xlink:href="#DejaVuSans-65" transform="translate(218.652344 0)"/>
      <use xlink:href="#DejaVuSans-20" transform="translate(280.175781 0)"/>
      <use xlink:href="#DejaVuSans-31" transform="translate(311.962891 0)"/>
      <use xlink:href="#DejaVuSans-34" transform="translate(375.585938 0)"/>
     </g>
    </g>
   </g>
  </g>
 </g>
 <defs>
  <clipPath id="pd9adba9fc3">
   <rect x="32.56" y="10.8" width="676.64" height="199.24"/>
  </clipPath>
 </defs>
</svg>
