<?xml version="1.0" encoding="utf-8" standalone="no"?>
<!DOCTYPE svg PUBLIC "-//W3C//DTD SVG 1.1//EN"
  "http://www.w3.org/Graphics/SVG/1.1/DTD/svg11.dtd">
<svg xmlns:xlink="http://www.w3.org/1999/xlink" width="720pt" height="252pt" viewBox="0 0 720 252" xmlns="http://www.w3.org/2000/svg" version="1.1">
 <metadata>
  <rdf:RDF xmlns:dc="http://purl.org/dc/elements/1.1/" xmlns:cc="http://creativecommons.org/ns#" xmlns:rdf="http://www.w3.org/1999/02/22-rdf-syntax-ns#">
   <cc:Work>
    <dc:type rdf:resource="http://purl.org/dc/dcmitype/StillImage"/>
    <dc:date>1980-01-01T00:00:00+00:00</dc:date>
    <dc:format>image/svg+xml</dc:format>
    <dc:creator>
     <cc:Agent>
      <dc:title>Matplotlib v3.10.8, https://matplotlib.org/</dc:title>
     </cc:Agent>
    </dc:creator>
   </cc:Work>
  </rdf:RDF>
 </metadata>
 <defs>
  <style type="text/css">*{stroke-linejoin: round; stroke-linecap: butt}</style>
 </defs>
 <g id="figure_1">
  <g id="patch_1">
   <path d="M 0 252
L 720 252
L 720 0
L 0 0
L 0 252
z
" style="fill: none; opacity: 0"/>
  </g>
  <g id="axes_1">
   <g id="patch_2">
    <path d="M 40.03 210.04
L 686.36 210.04
L 686.36 10.8
L 40.03 10.8
z
" style="fill: #16213e"/>
   </g>
   <g id="matplotlib.axis_1">
    <g id="xtick_1">
     <g id="line2d_1">
      <path d="M 73.097995 210.04
L 73.097995 10.8
" clip-path="url(#pc4b5fd8fe3)" style="fill: none; stroke: #2a2a4a; stroke-width: 0.5; stroke-linecap: square"/>
     </g>
     <g id="line2d_2">
      <defs>
       <path id="m5838b3e05b" d="M 0 0
L 0 3.5
" style="stroke: #ffffff"/>
      </defs>
      <g>
       <use xlink:href="#m5838b3e05b" x="73.097995" y="210.04" style="fill: #ffffff; stroke: #ffffff"/>
      </g>
     </g>
     <g id="text_1">
      <!-- 2s -->
      <g style="fill: #ffffff" transform="translate(67.312057 224.638438) scale(0.1 -0.1)">
       <defs>
        <path id="DejaVuSans-32" d="M 1228 531
L 3431 531
L 3431 0
L 469 0
L 469 531
Q 828 903 1448 1529
Q 2069 2156 2228 2338
Q 2531 2678 2651 2914
Q 2772 3150 2772 3378
Q 2772 3750 2511 3984
Q 2250 4219 1831 4219
Q 1534 4219 1204 4116
Q 875 4013 500 3803
L 500 4441
Q 881 4594 1212 4672
Q 1544 4750 1819 4750
Q 2544 4750 2975 4387
Q 3406 4025 3406 3419
Q 3406 3131 3298 2873
Q 3191 2616 2906 2266
Q 2828 2175 2409 1742
Q 1991 1309 1228 531
z
" transform="scale(0.015625)"/>
        <path id="DejaVuSans-73" d="M 2834 3397
L 2834 2853
Q 2591 2978 2328 3040
Q 2066 3103 1784 3103
Q 1356 3103 1142 2972
Q 928 2841 928 2578
Q 928 2378 1081 2264
Q 1234 2150 1697 2047
L 1894 2003
Q 2506 1872 2764 1633
Q 3022 1394 3022 966
Q 3022 478 2636 193
Q 2250 -91 1575 -91
Q 1294 -91 989 -36
Q 684 19 347 128
L 347 722
Q 666 556 975 473
Q 1284 391 1588 391
Q 1994 391 2212 530
Q 2431 669 2431 922
Q 2431 1156 2273 1281
Q 2116 1406 1581 1522
L 1381 1569
Q 847 1681 609 1914
Q 372 2147 372 2553
Q 372 3047 722 3315
Q 1072 3584 1716 3584
Q 2034 3584 2315 3537
Q 2597 3491 2834 3397
z
" transform="scale(0.015625)"/>
       </defs>
       <use xlink:href="#DejaVuSans-32"/>
       <use xlink:href="#DejaVuSans-73" transform="translate(63.623047 0)"/>
      </g>
     </g>
    </g>
    <g id="xtick_2">
     <g id="line2d_3">
      <path d="M 173.556417 210.04
L 173.556417 10.8
" clip-path="url(#pc4b5fd8fe3)" style="fill: none; stroke: #2a2a4a; stroke-width: 0.5; stroke-linecap: square"/>
     </g>
     <g id="line2d_4">
      <g>
       <use xlink:href="#m5838b3e05b" x="173.556417" y="210.04" style="fill: #ffffff; stroke: #ffffff"/>
      </g>
     </g>
     <g id="text_2">
      <!-- 52s -->
      <g style="fill: #ffffff" transform="translate(164.589229 224.638438) scale(0.1 -0.1)">
       <defs>
        <path id="DejaVuSans-35" d="M 691 4666
L 3169 4666
L 3169 4134
L 1269 4134
L 1269 2991
Q 1406 3038 1543 3061
Q 1681 3084 1819 3084
Q 2600 3084 3056 2656
Q 3513 2228 3513 1497
Q 3513 744 3044 326
Q 2575 -91 1722 -91
Q 1428 -91 1123 -41
Q 819 9 494 109
L 494 744
Q 775 591 1075 516
Q 1375 441 1709 441
Q 2250 441 2565 725
Q 2881 1009 2881 1497
Q 2881 1984 2565 2268
Q 2250 2553 1709 2553
Q 1456 2553 1204 2497
Q 953 2441 691 2322
L 691 4666
z
" transform="scale(0.015625)"/>
       </defs>
       <use xlink:href="#DejaVuSans-35"/>
       <use xlink:href="#DejaVuSans-32" transform="translate(63.623047 0)"/>
       <use xlink:href="#DejaVuSans-73" transform="translate(127.246094 0)"/>
      </g>
     </g>
    </g>
    <g id="xtick_3">
     <g id="line2d_5">
      <path d="M 274.014839 210.04
L 274.014839 10.8
" clip-path="url(#pc4b5fd8fe3)" style="fill: none; stroke: #2a2a4a; stroke-width: 0.5; stroke-linecap: square"/>
     </g>
     <g id="line2d_6">
      <g>
       <use xlink:href="#m5838b3e05b" x="274.014839" y="210.04" style="fill: #ffffff; stroke: #ffffff"/>
      </g>
     </g>
     <g id="text_3">
      <!-- 102s -->
      <g style="fill: #ffffff" transform="translate(261.866402 224.638438) scale(0.1 -0.1)">
       <defs>
        <path id="DejaVuSans-31" d="M 794 531
L 1825 531
L 1825 4091
L 703 3866
L 703 4441
L 1819 4666
L 2450 4666
L 2450 531
L 3481 531
L 3481 0
L 794 0
L 794 531
z
" transform="scale(0.015625)"/>
        <path id="DejaVuSans-30" d="M 2034 4250
Q 1547 4250 1301 3770
Q 1056 3291 1056 2328
Q 1056 1369 1301 889
Q 1547 409 2034 409
Q 2525 409 2770 889
Q 3016 1369 3016 2328
Q 3016 3291 2770 3770
Q 2525 4250 2034 4250
z
M 2034 4750
Q 2819 4750 3233 4129
Q 3647 3509 3647 2328
Q 3647 1150 3233 529
Q 2819 -91 2034 -91
Q 1250 -91 836 529
Q 422 1150 422 2328
Q 422 3509 836 4129
Q 1250 4750 2034 4750
z
" transform="scale(0.015625)"/>
       </defs>
       <use xlink:href="#DejaVuSans-31"/>
       <use xlink:href="#DejaVuSans-30" transform="translate(63.623047 0)"/>
       <use xlink:href="#DejaVuSans-32" transform="translate(127.246094 0)"/>
       <use xlink:href="#DejaVuSans-73" transform="translate(190.869141 0)"/>
      </g>
     </g>
    </g>
    <g id="xtick_4">
     <g id="line2d_7">
      <path d="M 374.473262 210.04
L 374.473262 10.8
" clip-path="url(#pc4b5fd8fe3)" style="fill: none; stroke: #2a2a4a; stroke-width: 0.5; stroke-linecap: square"/>
     </g>
     <g id="line2d_8">
      <g>
       <use xlink:href="#m5838b3e05b" x="374.473262" y="210.04" style="fill: #ffffff; stroke: #ffffff"/>
      </g>
     </g>
     <g id="text_4">
      <!-- 152s -->
      <g style="fill: #ffffff" transform="translate(362.324824 224.638438) scale(0.1 -0.1)">
       <use xlink:href="#DejaVuSans-31"/>
       <use xlink:href="#DejaVuSans-35" transform="translate(63.623047 0)"/>
       <use xlink:href="#DejaVuSans-32" transform="translate(127.246094 0)"/>
       <use xlink:href="#DejaVuSans-73" transform="translate(190.869141 0)"/>
      </g>
     </g>
    </g>
    <g id="xtick_5">
     <g id="line2d_9">
      <path d="M 474.931684 210.04
L 474.931684 10.8
" clip-path="url(#pc4b5fd8fe3)" style="fill: none; stroke: #2a2a4a; stroke-width: 0.5; stroke-linecap: square"/>
     </g>
     <g id="line2d_10">
      <g>
       <use xlink:href="#m5838b3e05b" x="474.931684" y="210.04" style="fill: #ffffff; stroke: #ffffff"/>
      </g>
     </g>
     <g id="text_5">
      <!-- 202s -->
      <g style="fill: #ffffff" transform="translate(462.783247 224.638438) scale(0.1 -0.1)">
       <use xlink:href="#DejaVuSans-32"/>
       <use xlink:href="#DejaVuSans-30" transform="translate(63.623047 0)"/>
       <use xlink:href="#DejaVuSans-32" transform="translate(127.246094 0)"/>
       <use xlink:href="#DejaVuSans-73" transform="translate(190.869141 0)"/>
      </g>
     </g>
    </g>
    <g id="xtick_6">
     <g id="line2d_11">
      <path d="M 575.390107 210.04
L 575.390107 10.8
" clip-path="url(#pc4b5fd8fe3)" style="fill: none; stroke: #2a2a4a; stroke-width: 0.5; stroke-linecap: square"/>
     </g>
     <g id="line2d_12">
      <g>
       <use xlink:href="#m5838b3e05b" x="575.390107" y="210.04" style="fill: #ffffff; stroke: #ffffff"/>
      </g>
     </g>
     <g id="text_6">
      <!-- 252s -->
      <g style="fill: #ffffff" transform="translate(563.241669 224.638438) scale(0.1 -0.1)">
       <use xlink:href="#DejaVuSans-32"/>
       <use xlink:href="#DejaVuSans-35" transform="translate(63.623047 0)"/>
       <use xlink:href="#DejaVuSans-32" transform="translate(127.246094 0)"/>
       <use xlink:href="#DejaVuSans-73" transform="translate(190.869141 0)"/>
      </g>
     </g>
    </g>
    <g id="xtick_7">
     <g id="line2d_13">
      <path d="M 675.848529 210.04
L 675.848529 10.8
" clip-path="url(#pc4b5fd8fe3)" style="fill: none; stroke: #2a2a4a; stroke-width: 0.5; stroke-linecap: square"/>
     </g>
     <g id="line2d_14">
      <g>
       <use xlink:href="#m5838b3e05b" x="675.848529" y="210.04" style="fill: #ffffff; stroke: #ffffff"/>
      </g>
     </g>
     <g id="text_7">
      <!-- 302s -->
      <g style="fill: #ffffff" transform="translate(663.700091 224.638438) scale(0.1 -0.1)">
       <defs>
        <path id="DejaVuSans-33" d="M 2597 2516
Q 3050 2419 3304 2112
Q 3559 1806 3559 1356
Q 3559 666 3084 287
Q 2609 -91 1734 -91
Q 1441 -91 1130 -33
Q 819 25 488 141
L 488 750
Q 750 597 1062 519
Q 1375 441 1716 441
Q 2309 441 2620 675
Q 2931 909 2931 1356
Q 2931 1769 2642 2001
Q 2353 2234 1838 2234
L 1294 2234
L 1294 2753
L 1863 2753
Q 2328 2753 2575 2939
Q 2822 3125 2822 3475
Q 2822 3834 2567 4026
Q 2313 4219 1838 4219
Q 1578 4219 1281 4162
Q 984 4106 628 3988
L 628 4550
Q 988 4650 1302 4700
Q 1616 4750 1894 4750
Q 2613 4750 3031 4423
Q 3450 4097 3450 3541
Q 3450 3153 3228 2886
Q 3006 2619 2597 2516
z
" transform="scale(0.015625)"/>
       </defs>
       <use xlink:href="#DejaVuSans-33"/>
       <use xlink:href="#DejaVuSans-30" transform="translate(63.623047 0)"/>
       <use xlink:href="#DejaVuSans-32" transform="translate(127.246094 0)"/>
       <use xlink:href="#DejaVuSans-73" transform="translate(190.869141 0)"/>
      </g>
     </g>
    </g>
    <g id="text_8">
     <!-- time (s) -->
     <g style="fill: #ffffff" transform="translate(343.803594 238.316563) scale(0.1 -0.1)">
      <defs>
       <path id="DejaVuSans-74" d="M 1172 4494
L 1172 3500
L 2356 3500
L 2356 3053
L 1172 3053
L 1172 1153
Q 1172 725 1289 603
Q 1406 481 1766 481
L 2356 481
L 2356 0
L 1766 0
Q 1100 0 847 248
Q 594 497 594 1153
L 594 3053
L 172 3053
L 172 3500
L 594 3500
L 594 4494
L 1172 4494
z
" transform="scale(0.015625)"/>
       <path id="DejaVuSans-69" d="M 603 3500
L 1178 3500
L 1178 0
L 603 0
L 603 3500
z
M 603 4863
L 1178 4863
L 1178 4134
L 603 4134
L 603 4863
z
" transform="scale(0.015625)"/>
       <path id="DejaVuSans-6d" d="M 3328 2828
Q 3544 3216 3844 3400
Q 4144 3584 4550 3584
Q 5097 3584 5394 3201
Q 5691 2819 5691 2113
L 5691 0
L 5113 0
L 5113 2094
Q 5113 2597 4934 2840
Q 4756 3084 4391 3084
Q 3944 3084 3684 2787
Q 3425 2491 3425 1978
L 3425 0
L 2847 0
L 2847 2094
Q 2847 2600 2669 2842
Q 2491 3084 2119 3084
Q 1678 3084 1418 2786
Q 1159 2488 1159 1978
L 1159 0
L 581 0
L 581 3500
L 1159 3500
L 1159 2956
Q 1356 3278 1631 3431
Q 1906 3584 2284 3584
Q 2666 3584 2933 3390
Q 3200 3197 3328 2828
z
" transform="scale(0.015625)"/>
       <path id="DejaVuSans-65" d="M 3597 1894
L 3597 1613
L 953 1613
Q 991 1019 1311 708
Q 1631 397 2203 397
Q 2534 397 2845 478
Q 3156 559 3463 722
L 3463 178
Q 3153 47 2828 -22
Q 2503 -91 2169 -91
Q 1331 -91 842 396
Q 353 884 353 1716
Q 353 2575 817 3079
Q 1281 3584 2069 3584
Q 2775 3584 3186 3129
Q 3597 2675 3597 1894
z
M 3022 2063
Q 3016 2534 2758 2815
Q 2500 3097 2075 3097
Q 1594 3097 1305 2825
Q 1016 2553 972 2059
L 3022 2063
z
" transform="scale(0.015625)"/>
       <path id="DejaVuSans-20" transform="scale(0.015625)"/>
       <path id="DejaVuSans-28" d="M 1984 4856
Q 1566 4138 1362 3434
Q 1159 2731 1159 2009
Q 1159 1288 1364 580
Q 1569 -128 1984 -844
L 1484 -844
Q 1016 -109 783 600
Q 550 1309 550 2009
Q 550 2706 781 3412
Q 1013 4119 1484 4856
L 1984 4856
z
" transform="scale(0.015625)"/>
       <path id="DejaVuSans-29" d="M 513 4856
L 1013 4856
Q 1481 4119 1714 3412
Q 1947 2706 1947 2009
Q 1947 1309 1714 600
Q 1481 -109 1013 -844
L 513 -844
Q 928 -128 1133 580
Q 1338 1288 1338 2009
Q 1338 2731 1133 3434
Q 928 4138 513 4856
z
" transform="scale(0.015625)"/>
      </defs>
      <use xlink:href="#DejaVuSans-74"/>
      <use xlink:href="#DejaVuSans-69" transform="translate(39.208984 0)"/>
      <use xlink:href="#DejaVuSans-6d" transform="translate(66.992188 0)"/>
      <use xlink:href="#DejaVuSans-65" transform="translate(164.404297 0)"/>
      <use xlink:href="#DejaVuSans-20" transform="translate(225.927734 0)"/>
      <use xlink:href="#DejaVuSans-28" transform="translate(257.714844 0)"/>
      <use xlink:href="#DejaVuSans-73" transform="translate(296.728516 0)"/>
      <use xlink:href="#DejaVuSans-29" transform="translate(348.828125 0)"/>
     </g>
    </g>
   </g>
   <g id="matplotlib.axis_2">
    <g id="ytick_1">
     <g id="line2d_15">
      <path d="M 40.03 184.336744
L 686.36 184.336744
" clip-path="url(#pc4b5fd8fe3)" style="fill: none; stroke: #2a2a4a; stroke-width: 0.5; stroke-linecap: square"/>
     </g>
     <g id="line2d_16">
      <defs>
       <path id="mf90e461ad3" d="M 0 0
L -3.5 0
" style="stroke: #ffffff"/>
      </defs>
      <g>
       <use xlink:href="#mf90e461ad3" x="40.03" y="184.336744" style="fill: #ffffff; stroke: #ffffff"/>
      </g>
     </g>
     <g id="text_9">
      <!-- 0.16 -->
      <g style="fill: #ffffff" transform="translate(10.764375 188.135962) scale(0.1 -0.1)">
       <defs>
        <path id="DejaVuSans-2e" d="M 684 794
L 1344 794
L 1344 0
L 684 0
L 684 794
z
" transform="scale(0.015625)"/>
        <path id="DejaVuSans-36" d="M 2113 2584
Q 1688 2584 1439 2293
Q 1191 2003 1191 1497
Q 1191 994 1439 701
Q 1688 409 2113 409
Q 2538 409 2786 701
Q 3034 994 3034 1497
Q 3034 2003 2786 2293
Q 2538 2584 2113 2584
z
M 3366 4563
L 3366 3988
Q 3128 4100 2886 4159
Q 2644 4219 2406 4219
Q 1781 4219 1451 3797
Q 1122 3375 1075 2522
Q 1259 2794 1537 2939
Q 1816 3084 2150 3084
Q 2853 3084 3261 2657
Q 3669 2231 3669 1497
Q 3669 778 3244 343
Q 2819 -91 2113 -91
Q 1303 -91 875 529
Q 447 1150 447 2328
Q 447 3434 972 4092
Q 1497 4750 2381 4750
Q 2619 4750 2861 4703
Q 3103 4656 3366 4563
z
" transform="scale(0.015625)"/>
       </defs>
       <use xlink:href="#DejaVuSans-30"/>
       <use xlink:href="#DejaVuSans-2e" transform="translate(63.623047 0)"/>
       <use xlink:href="#DejaVuSans-31" transform="translate(95.410156 0)"/>
       <use xlink:href="#DejaVuSans-36" transform="translate(159.033203 0)"/>
      </g>
     </g>
    </g>
    <g id="ytick_2">
     <g id="line2d_17">
      <path d="M 40.03 151.042958
L 686.36 151.042958
" clip-path="url(#pc4b5fd8fe3)" style="fill: none; stroke: #2a2a4a; stroke-width: 0.5; stroke-linecap: square"/>
     </g>
     <g id="line2d_18">
      <g>
       <use xlink:href="#mf90e461ad3" x="40.03" y="151.042958" style="fill: #ffffff; stroke: #ffffff"/>
      </g>
     </g>
     <g id="text_10">
      <!-- 0.18 -->
      <g style="fill: #ffffff" transform="translate(10.764375 154.842177) scale(0.1 -0.1)">
       <defs>
        <path id="DejaVuSans-38" d="M 2034 2216
Q 1584 2216 1326 1975
Q 1069 1734 1069 1313
Q 1069 891 1326 650
Q 1584 409 2034 409
Q 2484 409 2743 651
Q 3003 894 3003 1313
Q 3003 1734 2745 1975
Q 2488 2216 2034 2216
z
M 1403 2484
Q 997 2584 770 2862
Q 544 3141 544 3541
Q 544 4100 942 4425
Q 1341 4750 2034 4750
Q 2731 4750 3128 4425
Q 3525 4100 3525 3541
Q 3525 3141 3298 2862
Q 3072 2584 2669 2484
Q 3125 2378 3379 2068
Q 3634 1759 3634 1313
Q 3634 634 3220 271
Q 2806 -91 2034 -91
Q 1263 -91 848 271
Q 434 634 434 1313
Q 434 1759 690 2068
Q 947 2378 1403 2484
z
M 1172 3481
Q 1172 3119 1398 2916
Q 1625 2713 2034 2713
Q 2441 2713 2670 2916
Q 2900 3119 2900 3481
Q 2900 3844 2670 4047
Q 2441 4250 2034 4250
Q 1625 4250 1398 4047
Q 1172 3844 1172 3481
z
" transform="scale(0.015625)"/>
       </defs>
       <use xlink:href="#DejaVuSans-30"/>
       <use xlink:href="#DejaVuSans-2e" transform="translate(63.623047 0)"/>
       <use xlink:href="#DejaVuSans-31" transform="translate(95.410156 0)"/>
       <use xlink:href="#DejaVuSans-38" transform="translate(159.033203 0)"/>
      </g>
     </g>
    </g>
    <g id="ytick_3">
     <g id="line2d_19">
      <path d="M 40.03 117.749172
L 686.36 117.749172
" clip-path="url(#pc4b5fd8fe3)" style="fill: none; stroke: #2a2a4a; stroke-width: 0.5; stroke-linecap: square"/>
     </g>
     <g id="line2d_20">
      <g>
       <use xlink:href="#mf90e461ad3" x="40.03" y="117.749172" style="fill: #ffffff; stroke: #ffffff"/>
      </g>
     </g>
     <g id="text_11">
      <!-- 0.20 -->
      <g style="fill: #ffffff" transform="translate(10.764375 121.548391) scale(0.1 -0.1)">
       <use xlink:href="#DejaVuSans-30"/>
       <use xlink:href="#DejaVuSans-2e" transform="translate(63.623047 0)"/>
       <use xlink:href="#DejaVuSans-32" transform="translate(95.410156 0)"/>
       <use xlink:href="#DejaVuSans-30" transform="translate(159.033203 0)"/>
      </g>
     </g>
    </g>
    <g id="ytick_4">
     <g id="line2d_21">
      <path d="M 40.03 84.455387
L 686.36 84.455387
" clip-path="url(#pc4b5fd8fe3)" style="fill: none; stroke: #2a2a4a; stroke-width: 0.5; stroke-linecap: square"/>
     </g>
     <g id="line2d_22">
      <g>
       <use xlink:href="#mf90e461ad3" x="40.03" y="84.455387" style="fill: #ffffff; stroke: #ffffff"/>
      </g>
     </g>
     <g id="text_12">
      <!-- 0.22 -->
      <g style="fill: #ffffff" transform="translate(10.764375 88.254605) scale(0.1 -0.1)">
       <use xlink:href="#DejaVuSans-30"/>
       <use xlink:href="#DejaVuSans-2e" transform="translate(63.623047 0)"/>
       <use xlink:href="#DejaVuSans-32" transform="translate(95.410156 0)"/>
       <use xlink:href="#DejaVuSans-32" transform="translate(159.033203 0)"/>
      </g>
     </g>
    </g>
    <g id="ytick_5">
     <g id="line2d_23">
      <path d="M 40.03 51.161601
L 686.36 51.161601
" clip-path="url(#pc4b5fd8fe3)" style="fill: none; stroke: #2a2a4a; stroke-width: 0.5; stroke-linecap: square"/>
     </g>
     <g id="line2d_24">
      <g>
       <use xlink:href="#mf90e461ad3" x="40.03" y="51.161601" style="fill: #ffffff; stroke: #ffffff"/>
      </g>
     </g>
     <g id="text_13">
      <!-- 0.24 -->
      <g style="fill: #ffffff" transform="translate(10.764375 54.96082) scale(0.1 -0.1)">
       <defs>
        <path id="DejaVuSans-34" d="M 2419 4116
L 825 1625
L 2419 1625
L 2419 4116
z
M 2253 4666
L 3047 4666
L 3047 1625
L 3713 1625
L 3713 1100
L 3047 1100
L 3047 0
L 2419 0
L 2419 1100
L 313 1100
L 313 1709
L 2253 4666
z
" transform="scale(0.015625)"/>
       </defs>
       <use xlink:href="#DejaVuSans-30"/>
       <use xlink:href="#DejaVuSans-2e" transform="translate(63.623047 0)"/>
       <use xlink:href="#DejaVuSans-32" transform="translate(95.410156 0)"/>
       <use xlink:href="#DejaVuSans-34" transform="translate(159.033203 0)"/>
      </g>
     </g>
    </g>
    <g id="ytick_6">
     <g id="line2d_25">
      <path d="M 40.03 17.867815
L 686.36 17.867815
" clip-path="url(#pc4b5fd8fe3)" style="fill: none; stroke: #2a2a4a; stroke-width: 0.5; stroke-linecap: square"/>
     </g>
     <g id="line2d_26">
      <g>
       <use xlink:href="#mf90e461ad3" x="40.03" y="17.867815" style="fill: #ffffff; stroke: #ffffff"/>
      </g>
     </g>
     <g id="text_14">
      <!-- 0.26 -->
      <g style="fill: #ffffff" transform="translate(10.764375 21.667034) scale(0.1 -0.1)">
       <use xlink:href="#DejaVuSans-30"/>
       <use xlink:href="#DejaVuSans-2e" transform="translate(63.623047 0)"/>
       <use xlink:href="#DejaVuSans-32" transform="translate(95.410156 0)"/>
       <use xlink:href="#DejaVuSans-36" transform="translate(159.033203 0)"/>
      </g>
     </g>
    </g>
   </g>
   <g id="line2d_27">
    <path d="M 77.584987 98.019549
L 78.147872 107.668213
L 79.423368 94.929441
L 80.979211 98.39759
L 81.821269 98.082655
L 83.092034 97.420737
L 84.084827 103.287508
L 84.786388 106.567629
L 86.335817 95.300238
L 87.617923 91.456926
L 88.193073 93.590225
L 89.166345 95.23227
L 90.153182 109.319089
L 91.568147 93.027431
L 93.403381 94.448803
L 94.530261 100.729831
L 95.657104 100.303171
L 96.365077 113.700786
L 97.373959 120.276903
L 98.058223 99.315404
L 99.620443 130.642951
L 100.305065 115.962083
L 101.872684 116.23326
L 103.558028 117.856452
L 104.685533 117.099082
L 104.979978 109.556331
L 105.959679 77.641086
L 107.369651 114.514912
L 108.653176 108.945216
L 109.348868 107.305354
L 111.900555 94.268217
L 112.46286 92.006523
L 113.725519 125.1824
L 114.439474 99.917888
L 115.865122 129.883695
L 116.565994 97.584158
M 123.179743 101.57809
L 123.885871 89.297134
L 127.282372 108.906221
L 127.990946 109.001971
L 129.400462 86.232427
L 130.393105 76.332034
L 131.666708 82.467799
L 132.091897 83.67088
L 133.351289 115.21136
L 134.069213 95.174522
L 135.22259 84.593061
M 142.66316 99.825213
L 143.384621 78.014066
L 144.795694 98.606851
L 146.224821 122.004082
L 147.335693 130.470104
L 148.481637 93.916868
L 148.759626 111.322802
L 150.017223 59.747667
L 151.863043 44.718823
L 152.00635 19.856364
L 154.251984 106.125986
L 155.522941 119.694662
L 156.507265 92.760124
L 157.648411 92.182446
L 159.468117 88.509897
M 172.87822 114.121195
L 173.452715 123.606934
L 175.143826 120.835332
L 175.847657 103.792852
L 177.535161 99.830274
L 178.945582 95.757954
L 180.787873 99.415223
L 181.795702 100.554504
L 182.070853 97.476798
L 184.046988 118.655695
L 185.183839 115.313361
L 185.461742 124.793941
L 187.301504 102.799528
L 188.563103 101.275261
L 189.833372 100.474431
L 190.533687 91.39124
L 192.093091 103.989909
L 193.199142 105.592364
L 194.330052 96.428505
L 194.888833 105.509711
L 195.592872 89.627051
L 196.719831 111.201155
L 198.270777 75.997949
L 199.243371 73.127322
L 201.081352 130.82959
L 201.215921 88.172241
M 216.752053 122.722359
L 219.585907 105.356709
L 220.708329 129.381923
L 221.567729 104.515494
L 222.1232 106.767762
L 223.112724 102.214409
L 224.523526 110.219936
L 225.227155 129.348584
L 226.495569 146.954453
L 228.477091 128.708396
L 229.475923 85.197727
L 230.030264 92.289409
L 230.875714 83.224971
L 232.845524 93.858524
L 233.277847 99.597694
L 234.955801 92.790287
L 235.670701 112.996698
L 237.2045 121.752055
L 237.929892 112.92873
L 239.182293 129.567272
L 239.747932 117.053538
L 241.868494 134.915899
L 242.291125 115.780901
L 243.135731 85.536971
L 245.252935 102.434585
L 246.261446 79.717331
L 247.376222 94.913962
L 247.79995 88.744461
L 250.76974 116.277117
L 251.341824 113.756152
L 252.461626 115.540583
L 253.459059 120.246243
L 254.582626 100.722489
L 255.707767 100.021377
L 256.692709 86.578517
M 289.575699 116.019037
L 290.721445 125.106395
M 334.188569 121.08468
L 334.609069 107.928277
L 335.615047 111.451495
M 396.880339 113.602456
L 397.874714 113.889707
L 398.879847 115.643179
L 399.985176 116.167276
L 401.116643 90.074746
L 402.962267 107.326091
L 404.635419 88.796355
L 404.787404 78.32007
L 406.908595 134.002351
L 408.043685 135.197892
L 408.183879 120.450147
L 409.865116 137.687005
L 410.565041 116.369791
L 412.263684 122.423796
L 413.531332 122.277541
L 414.677816 88.659129
L 415.088712 86.348518
L 416.501846 87.147166
L 417.494496 106.383768
L 419.195545 109.145944
L 419.468891 114.540115
L 421.009335 99.187307
L 422.706325 102.980015
L 423.127778 121.154434
L 423.970862 87.221781
M 446.282175 116.442621
L 447.861451 107.804546
L 448.54613 107.679326
L 450.237555 114.717328
L 450.809903 99.463445
L 451.928347 93.87192
L 452.632267 106.325921
L 454.046912 115.048039
L 455.325566 110.414811
L 456.029408 99.404904
L 457.584513 112.736237
L 458.862013 137.185035
L 459.699391 157.351359
L 460.547681 127.523373
L 462.66213 114.021475
L 462.801979 114.854851
L 463.928348 106.064865
L 465.904785 120.215782
L 468.032555 98.099523
L 468.87837 108.117099
L 469.572721 87.053499
M 524.4845 110.629232
L 524.915943 75.50352
M 549.899818 98.851238
L 550.323919 107.628623
L 551.464576 97.301372
L 553.438877 85.287326
L 553.577943 105.439858
L 554.992911 66.516477
M 560.499462 46.165101
L 562.194345 103.13014
L 563.03507 118.234691
L 564.453084 124.107614
L 565.712332 94.150836
L 566.002102 118.521149
L 567.827652 109.779683
L 568.395957 91.057751
L 570.37566 85.820254
L 571.082627 77.685538
L 572.490032 103.259924
L 572.918565 95.032831
L 574.334386 86.259019
L 575.743291 80.041692
L 576.167473 106.039265
L 577.287713 117.52971
L 578.560364 104.593583
L 579.551544 104.027316
L 580.964363 103.024368
L 583.360945 114.603717
M 592.96214 116.572405
L 593.954158 100.377986
L 595.646109 105.671246
L 596.769818 92.708131
L 597.476779 99.469994
L 598.460033 104.273291
L 600.168892 119.374865
L 600.307549 123.509199
L 601.583961 99.491228
L 602.703118 100.540712
L 604.685149 108.861174
L 605.816901 124.384744
L 606.098657 109.446987
L 607.403103 105.858282
L 609.05943 97.438399
L 609.695831 110.560669
L 610.609365 97.126639
L 612.353838 104.429766
L 613.14731 108.41715
L 613.870041 108.166016
L 615.41625 105.523702
L 616.114373 101.40822
L 617.961515 100.255544
L 619.101805 111.890061
L 620.228992 108.412883
L 621.069998 120.697808
L 622.199136 115.662726
L 623.757034 113.748115
L 624.741256 116.835148
L 625.022681 112.666979
L 626.138703 92.277799
L 627.273711 86.424523
L 629.248848 100.163664
L 629.817827 98.177711
L 631.370642 95.848446
L 631.931163 94.224857
L 633.900941 78.535186
L 634.191685 81.74595
L 635.32093 84.579765
L 636.293381 74.005448
L 637.434315 89.979988
L 639.415327 68.167154
L 639.693489 77.200138
L 641.391597 109.437264
L 642.809618 102.876525
L 643.644751 116.321271
L 645.055216 108.661933
L 646.194772 105.130678
L 647.044552 118.731601
L 647.741405 105.644357
L 648.606667 104.093697
L 649.795373 111.132988
L 651.837286 116.118359
L 652.821197 111.217725
L 653.665502 95.42645
L 655.063102 116.26898
L 656.637209 117.431579
L 656.981364 111.043092
L 656.981364 111.043092
" clip-path="url(#pc4b5fd8fe3)" style="fill: none; stroke: #4cdc29; stroke-width: 1.5; stroke-linecap: square"/>
   </g>
   <g id="line2d_28">
    <path d="M 40.03 200.983636
L 686.36 200.983636
" clip-path="url(#pc4b5fd8fe3)" style="fill: none; stroke-dasharray: 3.7,1.6; stroke-dashoffset: 0; stroke: #e74c3c"/>
   </g>
   <g id="patch_3">
    <path d="M 40.03 210.04
L 40.03 10.8
" style="fill: none; stroke: #ffffff; stroke-linejoin: miter; stroke-linecap: square"/>
   </g>
   <g id="patch_4">
    <path d="M 686.36 210.04
L 686.36 10.8
" style="fill: none; stroke: #ffffff; stroke-linejoin: miter; stroke-linecap: square"/>
   </g>
   <g id="patch_5">
    <path d="M 40.03 210.04
L 686.36 210.04
" style="fill: none; stroke: #ffffff; stroke-linejoin: miter; stroke-linecap: square"/>
   </g>
   <g id="patch_6">
    <path d="M 40.03 10.8
L 686.36 10.8
" style="fill: none; stroke: #ffffff; stroke-linejoin: miter; stroke-linecap: square"/>
   </g>
  </g>
  <g id="axes_2">
   <g id="matplotlib.axis_3">
    <g id="ytick_7">
     <g id="line2d_29">
      <defs>
       <path id="md07e74e756" d="M 0 0
L 3.5 0
" style="stroke: #3498db"/>
      </defs>
      <g>
       <use xlink:href="#md07e74e756" x="686.36" y="200.98445" style="fill: #3498db; stroke: #3498db"/>
      </g>
     </g>
     <g id="text_15">
      <!-- 0.0 -->
      <g style="fill: #3498db" transform="translate(693.36 204.783669) scale(0.1 -0.1)">
       <use xlink:href="#DejaVuSans-30"/>
       <use xlink:href="#DejaVuSans-2e" transform="translate(63.623047 0)"/>
       <use xlink:href="#DejaVuSans-30" transform="translate(95.410156 0)"/>
      </g>
     </g>
    </g>
    <g id="ytick_8">
     <g id="line2d_30">
      <g>
       <use xlink:href="#md07e74e756" x="686.36" y="172.962763" style="fill: #3498db; stroke: #3498db"/>
      </g>
     </g>
     <g id="text_16">
      <!-- 0.1 -->
      <g style="fill: #3498db" transform="translate(693.36 176.761981) scale(0.1 -0.1)">
       <use xlink:href="#DejaVuSans-30"/>
       <use xlink:href="#DejaVuSans-2e" transform="translate(63.623047 0)"/>
       <use xlink:href="#DejaVuSans-31" transform="translate(95.410156 0)"/>
      </g>
     </g>
    </g>
    <g id="ytick_9">
     <g id="line2d_31">
      <g>
       <use xlink:href="#md07e74e756" x="686.36" y="144.941075" style="fill: #3498db; stroke: #3498db"/>
      </g>
     </g>
     <g id="text_17">
      <!-- 0.2 -->
      <g style="fill: #3498db" transform="translate(693.36 148.740294) scale(0.1 -0.1)">
       <use xlink:href="#DejaVuSans-30"/>
       <use xlink:href="#DejaVuSans-2e" transform="translate(63.623047 0)"/>
       <use xlink:href="#DejaVuSans-32" transform="translate(95.410156 0)"/>
      </g>
     </g>
    </g>
    <g id="ytick_10">
     <g id="line2d_32">
      <g>
       <use xlink:href="#md07e74e756" x="686.36" y="116.919388" style="fill: #3498db; stroke: #3498db"/>
      </g>
     </g>
     <g id="text_18">
      <!-- 0.3 -->
      <g style="fill: #3498db" transform="translate(693.36 120.718606) scale(0.1 -0.1)">
       <use xlink:href="#DejaVuSans-30"/>
       <use xlink:href="#DejaVuSans-2e" transform="translate(63.623047 0)"/>
       <use xlink:href="#DejaVuSans-33" transform="translate(95.410156 0)"/>
      </g>
     </g>
    </g>
    <g id="ytick_11">
     <g id="line2d_33">
      <g>
       <use xlink:href="#md07e74e756" x="686.36" y="88.8977" style="fill: #3498db; stroke: #3498db"/>
      </g>
     </g>
     <g id="text_19">
      <!-- 0.4 -->
      <g style="fill: #3498db" transform="translate(693.36 92.696919) scale(0.1 -0.1)">
       <use xlink:href="#DejaVuSans-30"/>
       <use xlink:href="#DejaVuSans-2e" transform="translate(63.623047 0)"/>
       <use xlink:href="#DejaVuSans-34" transform="translate(95.410156 0)"/>
      </g>
     </g>
    </g>
    <g id="ytick_12">
     <g id="line2d_34">
      <g>
       <use xlink:href="#md07e74e756" x="686.36" y="60.876012" style="fill: #3498db; stroke: #3498db"/>
      </g>
     </g>
     <g id="text_20">
      <!-- 0.5 -->
      <g style="fill: #3498db" transform="translate(693.36 64.675231) scale(0.1 -0.1)">
       <use xlink:href="#DejaVuSans-30"/>
       <use xlink:href="#DejaVuSans-2e" transform="translate(63.623047 0)"/>
       <use xlink:href="#DejaVuSans-35" transform="translate(95.410156 0)"/>
      </g>
     </g>
    </g>
    <g id="ytick_13">
     <g id="line2d_35">
      <g>
       <use xlink:href="#md07e74e756" x="686.36" y="32.854325" style="fill: #3498db; stroke: #3498db"/>
      </g>
     </g>
     <g id="text_21">
      <!-- 0.6 -->
      <g style="fill: #3498db" transform="translate(693.36 36.653543) scale(0.1 -0.1)">
       <use xlink:href="#DejaVuSans-30"/>
       <use xlink:href="#DejaVuSans-2e" transform="translate(63.623047 0)"/>
       <use xlink:href="#DejaVuSans-36" transform="translate(95.410156 0)"/>
      </g>
     </g>
    </g>
   </g>
   <g id="line2d_36">
    <path d="M 69.408637 194.517462
L 75.044535 194.502288
L 76.177226 187.683102
L 77.311525 120.943511
L 78.438173 119.267062
L 79.568228 113.297009
L 80.697074 116.421315
L 81.821269 116.052033
L 82.951097 110.762864
L 84.084827 109.252314
L 85.221276 101.251012
L 86.335817 88.170037
L 87.477442 87.353663
L 88.601624 100.914357
L 89.727091 79.258427
L 90.870914 63.32029
L 91.989717 53.280558
L 93.123405 36.554126
L 94.250759 32.448236
L 95.392179 20.18269
L 96.510197 58.256352
L 97.640182 107.008204
L 98.767657 129.682383
L 101.027868 152.168811
L 102.151025 167.586601
L 103.279555 165.130368
L 104.420617 169.475638
L 105.537398 168.163884
L 106.659855 162.005522
L 107.789682 162.636268
L 108.794313 165.07179
L 109.911342 172.380849
L 110.920609 172.236019
L 112.03462 152.143653
L 113.158726 146.842753
L 114.318551 156.148696
L 115.425582 163.367637
L 116.565994 171.943411
L 118.806391 181.858493
L 119.941156 179.714362
L 121.076913 178.555792
L 122.187307 172.98625
L 123.324317 168.266986
L 125.593074 181.692291
L 127.856424 135.0467
L 128.991869 136.292801
L 130.102122 133.373046
L 131.243404 133.331658
L 132.370251 130.127512
L 133.507081 145.354176
L 134.624649 139.983218
L 135.751936 177.530855
L 136.760651 180.011736
L 137.875155 181.603012
L 138.997755 179.995263
L 140.125882 188.679475
L 141.263358 188.731992
L 142.397173 133.143064
L 143.551573 138.625754
L 144.656337 111.22239
L 145.79225 106.524004
L 146.9136 93.584927
L 148.054889 70.43615
L 149.172817 52.569885
L 150.304133 66.659159
L 151.435127 68.154425
L 152.571812 48.829895
L 153.702289 60.670117
L 155.943054 121.392699
L 157.066211 140.50151
L 158.207899 165.396863
L 159.325027 171.226883
L 160.454358 182.901043
L 161.57391 197.25108
L 162.727986 195.935758
L 163.836032 193.035573
L 164.964508 198.8874
L 166.103543 199.634899
L 167.225433 199.225331
L 168.357951 199.459707
L 169.363723 200.952777
L 170.470713 192.824934
L 171.616 176.154736
L 173.864947 131.70066
L 174.872407 134.780922
L 177.118138 143.88809
L 178.247384 147.586936
L 179.378143 153.269227
L 180.508225 110.534791
L 181.658951 101.392093
L 182.772245 98.629935
L 183.781152 109.231769
L 184.891814 92.496059
L 186.029826 78.665387
L 187.154095 91.299147
L 188.297051 81.021495
L 189.406658 91.008071
L 190.533687 99.265818
L 191.663387 99.202548
L 192.780224 101.433986
L 193.908772 96.187765
L 195.026108 94.647382
L 196.157243 103.26249
L 197.290498 103.878
L 198.403858 119.98828
L 199.531109 159.036624
L 200.653384 148.570757
L 201.781795 169.026331
L 202.900268 181.529469
L 204.051344 189.687411
L 205.156993 191.81936
L 206.295371 199.375075
L 207.422051 199.363821
L 208.557157 199.528299
L 209.672712 199.240861
L 210.820237 199.384916
L 211.932967 199.353198
L 213.067745 198.883455
L 214.209725 189.704471
L 215.334326 183.28222
L 216.475745 162.151031
L 217.595947 162.761995
L 218.733781 129.843899
L 219.869648 43.374877
L 220.991708 61.480351
L 222.1232 98.996441
L 223.254235 77.719833
L 224.37661 84.586159
L 225.529211 108.620759
L 226.635273 134.836349
L 227.763511 58.337973
L 228.90715 50.224889
L 230.030264 74.10125
L 231.154779 75.189523
L 232.269235 73.555382
L 233.277847 81.683212
L 234.403986 80.241952
L 235.506239 85.22091
L 236.640661 88.677265
L 237.771465 89.743589
L 238.898597 88.451596
L 240.028443 97.079931
L 241.159859 91.884543
L 242.291125 90.043838
L 243.415846 104.663005
L 244.543569 83.033993
L 245.682271 35.260686
L 246.810388 60.170048
L 247.940308 76.573578
L 248.981641 83.323115
L 250.056852 81.727981
L 251.19443 86.806639
L 252.326344 93.483495
L 253.459059 102.230222
L 254.582626 109.29093
L 255.707767 111.919104
L 256.827924 117.127755
L 257.960562 193.657222
L 259.093315 193.147458
L 260.20805 196.627026
L 261.349095 198.213218
L 262.459138 198.844964
L 263.625003 199.649537
L 264.71947 199.692022
L 265.855008 200.583252
L 266.972916 200.244981
L 268.121974 199.411665
L 269.252094 200.193815
L 270.368028 200.364335
L 274.888562 200.315227
L 276.025764 195.029812
L 277.167708 193.566841
L 279.404699 193.089264
L 280.543039 192.840322
L 281.660644 191.682839
L 282.794821 189.491639
L 283.920331 188.622911
L 285.062771 186.969174
L 286.197372 184.353385
L 288.449896 176.645629
L 289.575699 171.587441
L 290.721445 172.679286
L 291.836037 179.578074
L 292.962754 190.167293
L 294.096222 187.317712
L 295.233403 193.130832
L 296.355054 193.468788
L 297.486408 194.465214
L 298.597315 198.087636
L 299.73661 198.567255
L 300.860667 199.66654
L 301.999529 200.16209
L 303.128533 200.922354
L 305.378931 200.791783
L 306.38357 200.496229
L 307.498501 200.921098
L 310.901249 200.95955
L 316.536654 200.898655
L 317.669226 200.784519
L 321.058757 200.943852
L 322.189127 200.852816
L 323.312623 200.891712
L 325.575795 200.727407
L 326.708407 199.741695
L 327.828183 200.140789
L 328.836879 191.348952
L 331.083313 177.131971
L 332.210494 175.989924
L 333.356318 171.42297
L 334.470306 170.040853
L 335.615047 172.907641
L 336.722248 174.312678
L 337.857865 178.749784
L 338.986988 181.132771
L 340.121814 200.797432
L 341.24879 200.841452
L 342.363499 193.787731
L 343.49724 200.60288
L 344.621593 200.955544
L 353.526 200.889774
L 356.916694 200.808385
L 358.036963 200.614155
L 359.184572 200.754531
L 361.431412 200.528123
L 362.558834 200.830619
L 363.687099 200.67983
L 365.953669 200.810209
L 366.974899 200.733368
L 368.073614 200.963034
L 374.836541 200.977405
L 378.238796 200.966239
L 379.361686 200.503366
L 380.502022 200.484205
L 381.616094 199.546663
L 382.743395 198.834247
L 383.878599 199.475511
L 386.137141 200.001315
L 387.268563 200.542957
L 389.52991 200.582158
L 390.67634 198.046327
L 391.775831 195.303835
L 392.921539 194.488851
L 394.048434 181.629188
L 395.183168 175.653238
L 396.314882 174.281226
L 397.434214 156.701373
L 398.571661 153.194798
L 399.694408 137.023134
L 400.699028 115.957231
L 401.824952 86.666612
L 402.962267 95.621882
L 404.074757 81.917769
L 405.212054 79.748012
L 406.349228 86.016598
L 407.465775 83.664747
L 408.594363 61.897885
L 409.732587 67.450276
L 410.859866 85.2596
L 411.992648 75.0547
L 413.133472 55.523873
L 414.245602 59.573014
L 415.364558 60.640583
L 416.501846 61.535145
L 417.624341 62.801371
L 418.767026 78.183702
L 419.893816 95.560869
L 421.009335 115.978088
L 422.139364 120.589606
L 423.278479 120.644701
L 424.402951 167.041989
L 425.528933 174.46417
L 426.668146 177.121559
L 427.777323 200.21426
L 428.921851 200.374443
L 430.036199 200.319338
L 431.175595 199.946029
L 435.689314 200.097762
L 436.696147 199.251198
L 437.797487 197.309414
L 438.951843 198.63504
L 440.058077 198.492252
L 441.185321 199.014065
L 442.201242 191.201846
L 443.322792 186.618387
L 444.442586 183.943692
L 445.572283 176.072943
L 446.704745 165.853622
L 447.861451 154.361951
L 450.097842 114.209376
L 451.221117 115.114954
L 452.354009 126.20946
L 453.365932 131.864529
L 455.467183 107.048612
L 456.58879 100.436561
L 457.736233 64.876542
L 458.862013 79.15172
L 459.982268 66.031216
L 461.101455 88.596577
L 462.228566 91.729398
L 463.367932 112.968201
L 464.502577 141.467633
L 465.612255 150.890056
L 466.759648 155.945074
L 467.874748 159.594587
L 469.018547 160.024034
L 470.137719 172.908287
L 472.393137 180.537024
L 473.398722 181.374046
L 474.51054 184.217413
L 475.641928 182.342808
L 476.772815 182.403064
L 477.912055 181.925483
L 479.044286 179.313616
L 480.166972 173.270836
L 481.29392 172.321294
L 482.43047 180.066326
L 483.540013 182.281995
L 484.673232 187.789698
L 485.685512 189.770451
L 486.807432 188.11228
L 487.920941 188.379592
L 489.055353 187.954598
L 490.185421 192.375346
L 491.317691 192.803643
L 492.442601 195.639777
L 493.563175 197.308679
L 494.586012 197.563661
L 495.688653 200.210406
L 496.806578 200.848489
L 499.071783 200.787753
L 501.325289 200.328034
L 502.468818 200.946978
L 506.974691 200.853475
L 508.112416 200.777099
L 509.246238 200.410335
L 510.362992 200.944355
L 511.493939 191.703416
L 512.626904 193.212739
L 513.758517 192.750417
L 514.891431 191.41613
L 516.017432 190.327526
L 517.151795 187.514218
L 518.277376 185.070668
L 519.40318 181.976657
L 520.543135 179.394016
L 521.667897 177.783627
L 522.801497 175.271349
L 523.919503 171.905782
L 525.053074 168.965164
L 526.183282 196.225845
L 527.307183 196.360021
L 529.575041 195.913181
L 530.701541 196.181322
L 531.820784 200.018777
L 532.960475 200.4076
L 534.100093 199.296776
L 535.212773 199.680269
L 536.371062 199.891655
L 537.479924 200.901979
L 538.609318 200.867093
L 539.745824 200.960456
L 540.871012 200.4693
L 541.992764 200.830685
L 543.117329 200.838266
L 544.25004 190.446051
L 545.383041 187.204606
L 546.541742 185.91411
L 547.651528 181.448613
L 548.780202 174.192016
L 549.899818 165.677808
L 551.033961 155.90096
L 552.153276 153.872654
L 553.295252 166.986166
L 554.418531 173.334054
L 555.423972 174.466531
L 556.529998 176.404096
L 557.669104 180.246995
L 558.801629 179.761706
L 561.052687 167.914129
L 562.194345 149.517515
L 563.30878 156.552523
L 564.453084 156.429743
L 565.56832 140.376821
L 566.709266 132.169817
L 567.827652 114.531922
L 568.985052 99.503736
L 570.085903 91.899164
L 572.356376 51.658165
L 573.471627 19.856364
L 574.612134 31.807307
L 575.743291 58.486589
L 576.86539 42.133283
L 578.00139 67.502802
L 579.146103 135.860997
L 580.249069 164.366291
L 581.393073 174.648283
L 582.521171 176.216256
L 583.640914 170.261
L 584.763596 186.498359
L 585.905834 194.217984
L 587.021774 197.426591
L 588.164995 198.018028
L 589.285204 196.672218
L 590.29263 192.930946
L 591.424062 175.515082
L 592.544342 172.440134
L 593.665654 162.508982
L 594.673216 166.015881
L 595.793262 162.972725
L 596.922101 155.017979
L 598.040936 164.159291
L 599.187123 152.417658
L 601.437418 124.407906
L 602.578273 113.093667
L 603.69496 105.509681
L 604.828301 109.912718
L 605.964736 140.351131
L 607.110929 144.77669
L 608.219926 152.762836
L 609.346718 135.033731
L 610.359233 116.326078
L 611.473743 118.183709
L 612.609475 115.120591
L 613.726977 135.33989
L 614.844674 151.92535
L 616.007416 156.789033
L 617.105938 154.258293
L 618.234505 146.015513
L 619.402289 130.013111
L 620.509423 117.526175
L 621.638784 120.771699
L 623.901704 152.646655
L 625.022681 158.217705
L 626.138703 157.51554
L 627.273711 148.016362
L 628.396375 141.706729
L 629.527911 148.878666
L 630.662474 156.905766
L 631.78212 148.563992
L 632.929744 147.232544
L 635.176259 119.605664
L 636.293381 127.935929
L 637.434315 131.40085
L 638.555327 132.82709
L 639.693489 124.903421
L 640.819224 121.919674
L 641.828861 123.328494
L 642.947762 130.268853
L 644.075875 129.294774
L 645.229031 122.231954
L 646.32271 112.644157
L 647.471394 111.654459
L 648.606667 114.089414
L 650.85336 131.033461
L 652.161755 132.801973
L 653.246424 132.873373
L 654.587922 131.723877
L 655.658132 131.223674
L 656.961206 131.291172
L 656.961206 131.291172
" clip-path="url(#pc4b5fd8fe3)" style="fill: none; stroke: #3498db; stroke-width: 1.5; stroke-linecap: square"/>
   </g>
   <g id="patch_7">
    <path d="M 40.03 210.04
L 40.03 10.8
" style="fill: none; stroke: #ffffff; stroke-linejoin: miter; stroke-linecap: square"/>
   </g>
   <g id="patch_8">
    <path d="M 686.36 210.04
L 686.36 10.8
" style="fill: none; stroke: #3498db; stroke-linejoin: miter; stroke-linecap: square"/>
   </g>
   <g id="patch_9">
    <path d="M 40.03 210.04
L 686.36 210.04
" style="fill: none; stroke: #ffffff; stroke-linejoin: miter; stroke-linecap: square"/>
   </g>
   <g id="patch_10">
    <path d="M 40.03 10.8
L 686.36 10.8
" style="fill: none; stroke: #ffffff; stroke-linejoin: miter; stroke-linecap: square"/>
   </g>
   <g id="legend_1">
    <g id="patch_11">
     <path d="M 594.606875 48.15625
L 679.36 48.15625
Q 681.36 48.15625 681.36 46.15625
L 681.36 17.8
Q 681.36 15.8 679.36 15.8
L 594.606875 15.8
Q 592.606875 15.8 592.606875 17.8
L 592.606875 46.15625
Q 592.606875 48.15625 594.606875 48.15625
z
" style="fill: #1a1a2e; opacity: 0.9; stroke: #2a2a4a; stroke-linejoin: miter"/>
    </g>
    <g id="line2d_37">
     <path d="M 596.606875 23.898438
L 606.606875 23.898438
L 616.606875 23.898438
" style="fill: none; stroke: #4cdc29; stroke-width: 1.5; stroke-linecap: square"/>
    </g>
    <g id="text_22">
     <!-- plant-ness -->
     <g style="fill: #ffffff" transform="translate(624.606875 27.398438) scale(0.1 -0.1)">
      <defs>
       <path id="DejaVuSans-70" d="M 1159 525
L 1159 -1331
L 581 -1331
L 581 3500
L 1159 3500
L 1159 2969
Q 1341 3281 1617 3432
Q 1894 3584 2278 3584
Q 2916 3584 3314 3078
Q 3713 2572 3713 1747
Q 3713 922 3314 415
Q 2916 -91 2278 -91
Q 1894 -91 1617 61
Q 1341 213 1159 525
z
M 3116 1747
Q 3116 2381 2855 2742
Q 2594 3103 2138 3103
Q 1681 3103 1420 2742
Q 1159 2381 1159 1747
Q 1159 1113 1420 752
Q 1681 391 2138 391
Q 2594 391 2855 752
Q 3116 1113 3116 1747
z
" transform="scale(0.015625)"/>
       <path id="DejaVuSans-6c" d="M 603 4863
L 1178 4863
L 1178 0
L 603 0
L 603 4863
z
" transform="scale(0.015625)"/>
       <path id="DejaVuSans-61" d="M 2194 1759
Q 1497 1759 1228 1600
Q 959 1441 959 1056
Q 959 750 1161 570
Q 1363 391 1709 391
Q 2188 391 2477 730
Q 2766 1069 2766 1631
L 2766 1759
L 2194 1759
z
M 3341 1997
L 3341 0
L 2766 0
L 2766 531
Q 2569 213 2275 61
Q 1981 -91 1556 -91
Q 1019 -91 701 211
Q 384 513 384 1019
Q 384 1609 779 1909
Q 1175 2209 1959 2209
L 2766 2209
L 2766 2266
Q 2766 2663 2505 2880
Q 2244 3097 1772 3097
Q 1472 3097 1187 3025
Q 903 2953 641 2809
L 641 3341
Q 956 3463 1253 3523
Q 1550 3584 1831 3584
Q 2591 3584 2966 3190
Q 3341 2797 3341 1997
z
" transform="scale(0.015625)"/>
       <path id="DejaVuSans-6e" d="M 3513 2113
L 3513 0
L 2938 0
L 2938 2094
Q 2938 2591 2744 2837
Q 2550 3084 2163 3084
Q 1697 3084 1428 2787
Q 1159 2491 1159 1978
L 1159 0
L 581 0
L 581 3500
L 1159 3500
L 1159 2956
Q 1366 3272 1645 3428
Q 1925 3584 2291 3584
Q 2894 3584 3203 3211
Q 3513 2838 3513 2113
z
" transform="scale(0.015625)"/>
       <path id="DejaVuSans-2d" d="M 313 2009
L 1997 2009
L 1997 1497
L 313 1497
L 313 2009
z
" transform="scale(0.015625)"/>
      </defs>
      <use xlink:href="#DejaVuSans-70"/>
      <use xlink:href="#DejaVuSans-6c" transform="translate(63.476562 0)"/>
      <use xlink:href="#DejaVuSans-61" transform="translate(91.259766 0)"/>
      <use xlink:href="#DejaVuSans-6e" transform="translate(152.539062 0)"/>
      <use xlink:href="#DejaVuSans-74" transform="translate(215.917969 0)"/>
      <use xlink:href="#DejaVuSans-2d" transform="translate(255.126953 0)"/>
      <use xlink:href="#DejaVuSans-6e" transform="translate(291.210938 0)"/>
      <use xlink:href="#DejaVuSans-65" transform="translate(354.589844 0)"/>
      <use xlink:href="#DejaVuSans-73" transform="translate(416.113281 0)"/>
      <use xlink:href="#DejaVuSans-73" transform="translate(468.212891 0)"/>
     </g>
    </g>
    <g id="line2d_38">
     <path d="M 596.606875 38.576562
L 606.606875 38.576562
L 616.606875 38.576562
" style="fill: none; stroke: #3498db; stroke-width: 1.5; stroke-linecap: square"/>
    </g>
    <g id="text_23">
     <!-- brightness -->
     <g style="fill: #ffffff" transform="translate(624.606875 42.076562) scale(0.1 -0.1)">
      <defs>
       <path id="DejaVuSans-62" d="M 3116 1747
Q 3116 2381 2855 2742
Q 2594 3103 2138 3103
Q 1681 3103 1420 2742
Q 1159 2381 1159 1747
Q 1159 1113 1420 752
Q 1681 391 2138 391
Q 2594 391 2855 752
Q 3116 1113 3116 1747
z
M 1159 2969
Q 1341 3281 1617 3432
Q 1894 3584 2278 3584
Q 2916 3584 3314 3078
Q 3713 2572 3713 1747
Q 3713 922 3314 415
Q 2916 -91 2278 -91
Q 1894 -91 1617 61
Q 1341 213 1159 525
L 1159 0
L 581 0
L 581 4863
L 1159 4863
L 1159 2969
z
" transform="scale(0.015625)"/>
       <path id="DejaVuSans-72" d="M 2631 2963
Q 2534 3019 2420 3045
Q 2306 3072 2169 3072
Q 1681 3072 1420 2755
Q 1159 2438 1159 1844
L 1159 0
L 581 0
L 581 3500
L 1159 3500
L 1159 2956
Q 1341 3275 1631 3429
Q 1922 3584 2338 3584
Q 2397 3584 2469 3576
Q 2541 3569 2628 3553
L 2631 2963
z
" transform="scale(0.015625)"/>
       <path id="DejaVuSans-67" d="M 2906 1791
Q 2906 2416 2648 2759
Q 2391 3103 1925 3103
Q 1463 3103 1205 2759
Q 947 2416 947 1791
Q 947 1169 1205 825
Q 1463 481 1925 481
Q 2391 481 2648 825
Q 2906 1169 2906 1791
z
M 3481 434
Q 3481 -459 3084 -895
Q 2688 -1331 1869 -1331
Q 1566 -1331 1297 -1286
Q 1028 -1241 775 -1147
L 775 -588
Q 1028 -725 1275 -790
Q 1522 -856 1778 -856
Q 2344 -856 2625 -561
Q 2906 -266 2906 331
L 2906 616
Q 2728 306 2450 153
Q 2172 0 1784 0
Q 1141 0 747 490
Q 353 981 353 1791
Q 353 2603 747 3093
Q 1141 3584 1784 3584
Q 2172 3584 2450 3431
Q 2728 3278 2906 2969
L 2906 3500
L 3481 3500
L 3481 434
z
" transform="scale(0.015625)"/>
       <path id="DejaVuSans-68" d="M 3513 2113
L 3513 0
L 2938 0
L 2938 2094
Q 2938 2591 2744 2837
Q 2550 3084 2163 3084
Q 1697 3084 1428 2787
Q 1159 2491 1159 1978
L 1159 0
L 581 0
L 581 4863
L 1159 4863
L 1159 2956
Q 1366 3272 1645 3428
Q 1925 3584 2291 3584
Q 2894 3584 3203 3211
Q 3513 2838 3513 2113
z
" transform="scale(0.015625)"/>
      </defs>
      <use xlink:href="#DejaVuSans-62"/>
      <use xlink:href="#DejaVuSans-72" transform="translate(63.476562 0)"/>
      <use xlink:href="#DejaVuSans-69" transform="translate(104.589844 0)"/>
      <use xlink:href="#DejaVuSans-67" transform="translate(132.373047 0)"/>
      <use xlink:href="#DejaVuSans-68" transform="translate(195.849609 0)"/>
      <use xlink:href="#DejaVuSans-74" transform="translate(259.228516 0)"/>
      <use xlink:href="#DejaVuSans-6e" transform="translate(298.4375 0)"/>
      <use xlink:href="#DejaVuSans-65" transform="translate(361.816406 0)"/>
      <use xlink:href="#DejaVuSans-73" transform="translate(423.339844 0)"/>
      <use xlink:href="#DejaVuSans-73" transform="translate(475.439453 0)"/>
     </g>
    </g>
   </g>
  </g>
 </g>
 <defs>
  <clipPath id="pc4b5fd8fe3">
   <rect x="40.03" y="10.8" width="646.33" height="199.24"/>
  </clipPath>
 </defs>
</svg>
