<?xml version="1.0" encoding="utf-8" standalone="no"?>
<!DOCTYPE svg PUBLIC "-//W3C//DTD SVG 1.1//EN"
  "http://www.w3.org/Graphics/SVG/1.1/DTD/svg11.dtd">
<svg xmlns:xlink="http://www.w3.org/1999/xlink" width="720pt" height="252pt" viewBox="0 0 720 252" xmlns="http://www.w3.org/2000/svg" version="1.1">
 <metadata>
  <rdf:RDF xmlns:dc="http://purl.org/dc/elements/1.1/" xmlns:cc="http://creativecommons.org/ns#" xmlns:rdf="http://www.w3.org/1999/02/22-rdf-syntax-ns#">
   <cc:Work>
    <dc:type rdf:resource="http://purl.org/dc/dcmitype/StillImage"/>
    <dc:date>1980-01-01T00:00:00+00:00</dc:date>
    <dc:format>image/svg+xml</dc:format>
    <dc:creator>
     <cc:Agent>
      <dc:title>Matplotlib v3.10.8, https://matplotlib.org/</dc:title>
     </cc:Agent>
    </dc:creator>
   </cc:Work>
  </rdf:RDF>
 </metadata>
 <defs>
  <style type="text/css">*{stroke-linejoin: round; stroke-linecap: butt}</style>
 </defs>
 <g id="figure_1">
  <g id="patch_1">
   <path d="M 0 252
L 720 252
L 720 0
L 0 0
L 0 252
z
" style="fill: none; opacity: 0"/>
  </g>
  <g id="axes_1">
   <g id="patch_2">
    <path d="M 33.64 210.04
L 686.36 210.04
L 686.36 10.8
L 33.64 10.8
z
" style="fill: #16213e"/>
   </g>
   <g id="matplotlib.axis_1">
    <g id="xtick_1">
     <g id="line2d_1">
      <path d="M 67.035052 210.04
L 67.035052 10.8
" clip-path="url(#p32c8c17cce)" style="fill: none; stroke: #2a2a4a; stroke-width: 0.5; stroke-linecap: square"/>
     </g>
     <g id="line2d_2">
      <defs>
       <path id="m90fc08bc98" d="M 0 0
L 0 3.5
" style="stroke: #ffffff"/>
      </defs>
      <g>
       <use xlink:href="#m90fc08bc98" x="67.035052" y="210.04" style="fill: #ffffff; stroke: #ffffff"/>
      </g>
     </g>
     <g id="text_1">
      <!-- 2s -->
      <g style="fill: #ffffff" transform="translate(61.249114 224.638438) scale(0.1 -0.1)">
       <defs>
        <path id="DejaVuSans-32" d="M 1228 531
L 3431 531
L 3431 0
L 469 0
L 469 531
Q 828 903 1448 1529
Q 2069 2156 2228 2338
Q 2531 2678 2651 2914
Q 2772 3150 2772 3378
Q 2772 3750 2511 3984
Q 2250 4219 1831 4219
Q 1534 4219 1204 4116
Q 875 4013 500 3803
L 500 4441
Q 881 4594 1212 4672
Q 1544 4750 1819 4750
Q 2544 4750 2975 4387
Q 3406 4025 3406 3419
Q 3406 3131 3298 2873
Q 3191 2616 2906 2266
Q 2828 2175 2409 1742
Q 1991 1309 1228 531
z
" transform="scale(0.015625)"/>
        <path id="DejaVuSans-73" d="M 2834 3397
L 2834 2853
Q 2591 2978 2328 3040
Q 2066 3103 1784 3103
Q 1356 3103 1142 2972
Q 928 2841 928 2578
Q 928 2378 1081 2264
Q 1234 2150 1697 2047
L 1894 2003
Q 2506 1872 2764 1633
Q 3022 1394 3022 966
Q 3022 478 2636 193
Q 2250 -91 1575 -91
Q 1294 -91 989 -36
Q 684 19 347 128
L 347 722
Q 666 556 975 473
Q 1284 391 1588 391
Q 1994 391 2212 530
Q 2431 669 2431 922
Q 2431 1156 2273 1281
Q 2116 1406 1581 1522
L 1381 1569
Q 847 1681 609 1914
Q 372 2147 372 2553
Q 372 3047 722 3315
Q 1072 3584 1716 3584
Q 2034 3584 2315 3537
Q 2597 3491 2834 3397
z
" transform="scale(0.015625)"/>
       </defs>
       <use xlink:href="#DejaVuSans-32"/>
       <use xlink:href="#DejaVuSans-73" transform="translate(63.623047 0)"/>
      </g>
     </g>
    </g>
    <g id="xtick_2">
     <g id="line2d_3">
      <path d="M 168.490146 210.04
L 168.490146 10.8
" clip-path="url(#p32c8c17cce)" style="fill: none; stroke: #2a2a4a; stroke-width: 0.5; stroke-linecap: square"/>
     </g>
     <g id="line2d_4">
      <g>
       <use xlink:href="#m90fc08bc98" x="168.490146" y="210.04" style="fill: #ffffff; stroke: #ffffff"/>
      </g>
     </g>
     <g id="text_2">
      <!-- 52s -->
      <g style="fill: #ffffff" transform="translate(159.522959 224.638438) scale(0.1 -0.1)">
       <defs>
        <path id="DejaVuSans-35" d="M 691 4666
L 3169 4666
L 3169 4134
L 1269 4134
L 1269 2991
Q 1406 3038 1543 3061
Q 1681 3084 1819 3084
Q 2600 3084 3056 2656
Q 3513 2228 3513 1497
Q 3513 744 3044 326
Q 2575 -91 1722 -91
Q 1428 -91 1123 -41
Q 819 9 494 109
L 494 744
Q 775 591 1075 516
Q 1375 441 1709 441
Q 2250 441 2565 725
Q 2881 1009 2881 1497
Q 2881 1984 2565 2268
Q 2250 2553 1709 2553
Q 1456 2553 1204 2497
Q 953 2441 691 2322
L 691 4666
z
" transform="scale(0.015625)"/>
       </defs>
       <use xlink:href="#DejaVuSans-35"/>
       <use xlink:href="#DejaVuSans-32" transform="translate(63.623047 0)"/>
       <use xlink:href="#DejaVuSans-73" transform="translate(127.246094 0)"/>
      </g>
     </g>
    </g>
    <g id="xtick_3">
     <g id="line2d_5">
      <path d="M 269.94524 210.04
L 269.94524 10.8
" clip-path="url(#p32c8c17cce)" style="fill: none; stroke: #2a2a4a; stroke-width: 0.5; stroke-linecap: square"/>
     </g>
     <g id="line2d_6">
      <g>
       <use xlink:href="#m90fc08bc98" x="269.94524" y="210.04" style="fill: #ffffff; stroke: #ffffff"/>
      </g>
     </g>
     <g id="text_3">
      <!-- 102s -->
      <g style="fill: #ffffff" transform="translate(257.796803 224.638438) scale(0.1 -0.1)">
       <defs>
        <path id="DejaVuSans-31" d="M 794 531
L 1825 531
L 1825 4091
L 703 3866
L 703 4441
L 1819 4666
L 2450 4666
L 2450 531
L 3481 531
L 3481 0
L 794 0
L 794 531
z
" transform="scale(0.015625)"/>
        <path id="DejaVuSans-30" d="M 2034 4250
Q 1547 4250 1301 3770
Q 1056 3291 1056 2328
Q 1056 1369 1301 889
Q 1547 409 2034 409
Q 2525 409 2770 889
Q 3016 1369 3016 2328
Q 3016 3291 2770 3770
Q 2525 4250 2034 4250
z
M 2034 4750
Q 2819 4750 3233 4129
Q 3647 3509 3647 2328
Q 3647 1150 3233 529
Q 2819 -91 2034 -91
Q 1250 -91 836 529
Q 422 1150 422 2328
Q 422 3509 836 4129
Q 1250 4750 2034 4750
z
" transform="scale(0.015625)"/>
       </defs>
       <use xlink:href="#DejaVuSans-31"/>
       <use xlink:href="#DejaVuSans-30" transform="translate(63.623047 0)"/>
       <use xlink:href="#DejaVuSans-32" transform="translate(127.246094 0)"/>
       <use xlink:href="#DejaVuSans-73" transform="translate(190.869141 0)"/>
      </g>
     </g>
    </g>
    <g id="xtick_4">
     <g id="line2d_7">
      <path d="M 371.400334 210.04
L 371.400334 10.8
" clip-path="url(#p32c8c17cce)" style="fill: none; stroke: #2a2a4a; stroke-width: 0.5; stroke-linecap: square"/>
     </g>
     <g id="line2d_8">
      <g>
       <use xlink:href="#m90fc08bc98" x="371.400334" y="210.04" style="fill: #ffffff; stroke: #ffffff"/>
      </g>
     </g>
     <g id="text_4">
      <!-- 152s -->
      <g style="fill: #ffffff" transform="translate(359.251897 224.638438) scale(0.1 -0.1)">
       <use xlink:href="#DejaVuSans-31"/>
       <use xlink:href="#DejaVuSans-35" transform="translate(63.623047 0)"/>
       <use xlink:href="#DejaVuSans-32" transform="translate(127.246094 0)"/>
       <use xlink:href="#DejaVuSans-73" transform="translate(190.869141 0)"/>
      </g>
     </g>
    </g>
    <g id="xtick_5">
     <g id="line2d_9">
      <path d="M 472.855428 210.04
L 472.855428 10.8
" clip-path="url(#p32c8c17cce)" style="fill: none; stroke: #2a2a4a; stroke-width: 0.5; stroke-linecap: square"/>
     </g>
     <g id="line2d_10">
      <g>
       <use xlink:href="#m90fc08bc98" x="472.855428" y="210.04" style="fill: #ffffff; stroke: #ffffff"/>
      </g>
     </g>
     <g id="text_5">
      <!-- 202s -->
      <g style="fill: #ffffff" transform="translate(460.706991 224.638438) scale(0.1 -0.1)">
       <use xlink:href="#DejaVuSans-32"/>
       <use xlink:href="#DejaVuSans-30" transform="translate(63.623047 0)"/>
       <use xlink:href="#DejaVuSans-32" transform="translate(127.246094 0)"/>
       <use xlink:href="#DejaVuSans-73" transform="translate(190.869141 0)"/>
      </g>
     </g>
    </g>
    <g id="xtick_6">
     <g id="line2d_11">
      <path d="M 574.310523 210.04
L 574.310523 10.8
" clip-path="url(#p32c8c17cce)" style="fill: none; stroke: #2a2a4a; stroke-width: 0.5; stroke-linecap: square"/>
     </g>
     <g id="line2d_12">
      <g>
       <use xlink:href="#m90fc08bc98" x="574.310523" y="210.04" style="fill: #ffffff; stroke: #ffffff"/>
      </g>
     </g>
     <g id="text_6">
      <!-- 252s -->
      <g style="fill: #ffffff" transform="translate(562.162085 224.638438) scale(0.1 -0.1)">
       <use xlink:href="#DejaVuSans-32"/>
       <use xlink:href="#DejaVuSans-35" transform="translate(63.623047 0)"/>
       <use xlink:href="#DejaVuSans-32" transform="translate(127.246094 0)"/>
       <use xlink:href="#DejaVuSans-73" transform="translate(190.869141 0)"/>
      </g>
     </g>
    </g>
    <g id="xtick_7">
     <g id="line2d_13">
      <path d="M 675.765617 210.04
L 675.765617 10.8
" clip-path="url(#p32c8c17cce)" style="fill: none; stroke: #2a2a4a; stroke-width: 0.5; stroke-linecap: square"/>
     </g>
     <g id="line2d_14">
      <g>
       <use xlink:href="#m90fc08bc98" x="675.765617" y="210.04" style="fill: #ffffff; stroke: #ffffff"/>
      </g>
     </g>
     <g id="text_7">
      <!-- 302s -->
      <g style="fill: #ffffff" transform="translate(663.617179 224.638438) scale(0.1 -0.1)">
       <defs>
        <path id="DejaVuSans-33" d="M 2597 2516
Q 3050 2419 3304 2112
Q 3559 1806 3559 1356
Q 3559 666 3084 287
Q 2609 -91 1734 -91
Q 1441 -91 1130 -33
Q 819 25 488 141
L 488 750
Q 750 597 1062 519
Q 1375 441 1716 441
Q 2309 441 2620 675
Q 2931 909 2931 1356
Q 2931 1769 2642 2001
Q 2353 2234 1838 2234
L 1294 2234
L 1294 2753
L 1863 2753
Q 2328 2753 2575 2939
Q 2822 3125 2822 3475
Q 2822 3834 2567 4026
Q 2313 4219 1838 4219
Q 1578 4219 1281 4162
Q 984 4106 628 3988
L 628 4550
Q 988 4650 1302 4700
Q 1616 4750 1894 4750
Q 2613 4750 3031 4423
Q 3450 4097 3450 3541
Q 3450 3153 3228 2886
Q 3006 2619 2597 2516
z
" transform="scale(0.015625)"/>
       </defs>
       <use xlink:href="#DejaVuSans-33"/>
       <use xlink:href="#DejaVuSans-30" transform="translate(63.623047 0)"/>
       <use xlink:href="#DejaVuSans-32" transform="translate(127.246094 0)"/>
       <use xlink:href="#DejaVuSans-73" transform="translate(190.869141 0)"/>
      </g>
     </g>
    </g>
    <g id="text_8">
     <!-- time (s) -->
     <g style="fill: #ffffff" transform="translate(340.608594 238.316563) scale(0.1 -0.1)">
      <defs>
       <path id="DejaVuSans-74" d="M 1172 4494
L 1172 3500
L 2356 3500
L 2356 3053
L 1172 3053
L 1172 1153
Q 1172 725 1289 603
Q 1406 481 1766 481
L 2356 481
L 2356 0
L 1766 0
Q 1100 0 847 248
Q 594 497 594 1153
L 594 3053
L 172 3053
L 172 3500
L 594 3500
L 594 4494
L 1172 4494
z
" transform="scale(0.015625)"/>
       <path id="DejaVuSans-69" d="M 603 3500
L 1178 3500
L 1178 0
L 603 0
L 603 3500
z
M 603 4863
L 1178 4863
L 1178 4134
L 603 4134
L 603 4863
z
" transform="scale(0.015625)"/>
       <path id="DejaVuSans-6d" d="M 3328 2828
Q 3544 3216 3844 3400
Q 4144 3584 4550 3584
Q 5097 3584 5394 3201
Q 5691 2819 5691 2113
L 5691 0
L 5113 0
L 5113 2094
Q 5113 2597 4934 2840
Q 4756 3084 4391 3084
Q 3944 3084 3684 2787
Q 3425 2491 3425 1978
L 3425 0
L 2847 0
L 2847 2094
Q 2847 2600 2669 2842
Q 2491 3084 2119 3084
Q 1678 3084 1418 2786
Q 1159 2488 1159 1978
L 1159 0
L 581 0
L 581 3500
L 1159 3500
L 1159 2956
Q 1356 3278 1631 3431
Q 1906 3584 2284 3584
Q 2666 3584 2933 3390
Q 3200 3197 3328 2828
z
" transform="scale(0.015625)"/>
       <path id="DejaVuSans-65" d="M 3597 1894
L 3597 1613
L 953 1613
Q 991 1019 1311 708
Q 1631 397 2203 397
Q 2534 397 2845 478
Q 3156 559 3463 722
L 3463 178
Q 3153 47 2828 -22
Q 2503 -91 2169 -91
Q 1331 -91 842 396
Q 353 884 353 1716
Q 353 2575 817 3079
Q 1281 3584 2069 3584
Q 2775 3584 3186 3129
Q 3597 2675 3597 1894
z
M 3022 2063
Q 3016 2534 2758 2815
Q 2500 3097 2075 3097
Q 1594 3097 1305 2825
Q 1016 2553 972 2059
L 3022 2063
z
" transform="scale(0.015625)"/>
       <path id="DejaVuSans-20" transform="scale(0.015625)"/>
       <path id="DejaVuSans-28" d="M 1984 4856
Q 1566 4138 1362 3434
Q 1159 2731 1159 2009
Q 1159 1288 1364 580
Q 1569 -128 1984 -844
L 1484 -844
Q 1016 -109 783 600
Q 550 1309 550 2009
Q 550 2706 781 3412
Q 1013 4119 1484 4856
L 1984 4856
z
" transform="scale(0.015625)"/>
       <path id="DejaVuSans-29" d="M 513 4856
L 1013 4856
Q 1481 4119 1714 3412
Q 1947 2706 1947 2009
Q 1947 1309 1714 600
Q 1481 -109 1013 -844
L 513 -844
Q 928 -128 1133 580
Q 1338 1288 1338 2009
Q 1338 2731 1133 3434
Q 928 4138 513 4856
z
" transform="scale(0.015625)"/>
      </defs>
      <use xlink:href="#DejaVuSans-74"/>
      <use xlink:href="#DejaVuSans-69" transform="translate(39.208984 0)"/>
      <use xlink:href="#DejaVuSans-6d" transform="translate(66.992188 0)"/>
      <use xlink:href="#DejaVuSans-65" transform="translate(164.404297 0)"/>
      <use xlink:href="#DejaVuSans-20" transform="translate(225.927734 0)"/>
      <use xlink:href="#DejaVuSans-28" transform="translate(257.714844 0)"/>
      <use xlink:href="#DejaVuSans-73" transform="translate(296.728516 0)"/>
      <use xlink:href="#DejaVuSans-29" transform="translate(348.828125 0)"/>
     </g>
    </g>
   </g>
   <g id="matplotlib.axis_2">
    <g id="ytick_1">
     <g id="line2d_15">
      <path d="M 33.64 200.98445
L 686.36 200.98445
" clip-path="url(#p32c8c17cce)" style="fill: none; stroke: #2a2a4a; stroke-width: 0.5; stroke-linecap: square"/>
     </g>
     <g id="line2d_16">
      <defs>
       <path id="m7bcbf7aa83" d="M 0 0
L -3.5 0
" style="stroke: #ffffff"/>
      </defs>
      <g>
       <use xlink:href="#m7bcbf7aa83" x="33.64" y="200.98445" style="fill: #ffffff; stroke: #ffffff"/>
      </g>
     </g>
     <g id="text_9">
      <!-- 0.0 -->
      <g style="fill: #ffffff" transform="translate(10.736875 204.783669) scale(0.1 -0.1)">
       <defs>
        <path id="DejaVuSans-2e" d="M 684 794
L 1344 794
L 1344 0
L 684 0
L 684 794
z
" transform="scale(0.015625)"/>
       </defs>
       <use xlink:href="#DejaVuSans-30"/>
       <use xlink:href="#DejaVuSans-2e" transform="translate(63.623047 0)"/>
       <use xlink:href="#DejaVuSans-30" transform="translate(95.410156 0)"/>
      </g>
     </g>
    </g>
    <g id="ytick_2">
     <g id="line2d_17">
      <path d="M 33.64 172.962763
L 686.36 172.962763
" clip-path="url(#p32c8c17cce)" style="fill: none; stroke: #2a2a4a; stroke-width: 0.5; stroke-linecap: square"/>
     </g>
     <g id="line2d_18">
      <g>
       <use xlink:href="#m7bcbf7aa83" x="33.64" y="172.962763" style="fill: #ffffff; stroke: #ffffff"/>
      </g>
     </g>
     <g id="text_10">
      <!-- 0.1 -->
      <g style="fill: #ffffff" transform="translate(10.736875 176.761981) scale(0.1 -0.1)">
       <use xlink:href="#DejaVuSans-30"/>
       <use xlink:href="#DejaVuSans-2e" transform="translate(63.623047 0)"/>
       <use xlink:href="#DejaVuSans-31" transform="translate(95.410156 0)"/>
      </g>
     </g>
    </g>
    <g id="ytick_3">
     <g id="line2d_19">
      <path d="M 33.64 144.941075
L 686.36 144.941075
" clip-path="url(#p32c8c17cce)" style="fill: none; stroke: #2a2a4a; stroke-width: 0.5; stroke-linecap: square"/>
     </g>
     <g id="line2d_20">
      <g>
       <use xlink:href="#m7bcbf7aa83" x="33.64" y="144.941075" style="fill: #ffffff; stroke: #ffffff"/>
      </g>
     </g>
     <g id="text_11">
      <!-- 0.2 -->
      <g style="fill: #ffffff" transform="translate(10.736875 148.740294) scale(0.1 -0.1)">
       <use xlink:href="#DejaVuSans-30"/>
       <use xlink:href="#DejaVuSans-2e" transform="translate(63.623047 0)"/>
       <use xlink:href="#DejaVuSans-32" transform="translate(95.410156 0)"/>
      </g>
     </g>
    </g>
    <g id="ytick_4">
     <g id="line2d_21">
      <path d="M 33.64 116.919388
L 686.36 116.919388
" clip-path="url(#p32c8c17cce)" style="fill: none; stroke: #2a2a4a; stroke-width: 0.5; stroke-linecap: square"/>
     </g>
     <g id="line2d_22">
      <g>
       <use xlink:href="#m7bcbf7aa83" x="33.64" y="116.919388" style="fill: #ffffff; stroke: #ffffff"/>
      </g>
     </g>
     <g id="text_12">
      <!-- 0.3 -->
      <g style="fill: #ffffff" transform="translate(10.736875 120.718606) scale(0.1 -0.1)">
       <use xlink:href="#DejaVuSans-30"/>
       <use xlink:href="#DejaVuSans-2e" transform="translate(63.623047 0)"/>
       <use xlink:href="#DejaVuSans-33" transform="translate(95.410156 0)"/>
      </g>
     </g>
    </g>
    <g id="ytick_5">
     <g id="line2d_23">
      <path d="M 33.64 88.8977
L 686.36 88.8977
" clip-path="url(#p32c8c17cce)" style="fill: none; stroke: #2a2a4a; stroke-width: 0.5; stroke-linecap: square"/>
     </g>
     <g id="line2d_24">
      <g>
       <use xlink:href="#m7bcbf7aa83" x="33.64" y="88.8977" style="fill: #ffffff; stroke: #ffffff"/>
      </g>
     </g>
     <g id="text_13">
      <!-- 0.4 -->
      <g style="fill: #ffffff" transform="translate(10.736875 92.696919) scale(0.1 -0.1)">
       <defs>
        <path id="DejaVuSans-34" d="M 2419 4116
L 825 1625
L 2419 1625
L 2419 4116
z
M 2253 4666
L 3047 4666
L 3047 1625
L 3713 1625
L 3713 1100
L 3047 1100
L 3047 0
L 2419 0
L 2419 1100
L 313 1100
L 313 1709
L 2253 4666
z
" transform="scale(0.015625)"/>
       </defs>
       <use xlink:href="#DejaVuSans-30"/>
       <use xlink:href="#DejaVuSans-2e" transform="translate(63.623047 0)"/>
       <use xlink:href="#DejaVuSans-34" transform="translate(95.410156 0)"/>
      </g>
     </g>
    </g>
    <g id="ytick_6">
     <g id="line2d_25">
      <path d="M 33.64 60.876012
L 686.36 60.876012
" clip-path="url(#p32c8c17cce)" style="fill: none; stroke: #2a2a4a; stroke-width: 0.5; stroke-linecap: square"/>
     </g>
     <g id="line2d_26">
      <g>
       <use xlink:href="#m7bcbf7aa83" x="33.64" y="60.876012" style="fill: #ffffff; stroke: #ffffff"/>
      </g>
     </g>
     <g id="text_14">
      <!-- 0.5 -->
      <g style="fill: #ffffff" transform="translate(10.736875 64.675231) scale(0.1 -0.1)">
       <use xlink:href="#DejaVuSans-30"/>
       <use xlink:href="#DejaVuSans-2e" transform="translate(63.623047 0)"/>
       <use xlink:href="#DejaVuSans-35" transform="translate(95.410156 0)"/>
      </g>
     </g>
    </g>
    <g id="ytick_7">
     <g id="line2d_27">
      <path d="M 33.64 32.854325
L 686.36 32.854325
" clip-path="url(#p32c8c17cce)" style="fill: none; stroke: #2a2a4a; stroke-width: 0.5; stroke-linecap: square"/>
     </g>
     <g id="line2d_28">
      <g>
       <use xlink:href="#m7bcbf7aa83" x="33.64" y="32.854325" style="fill: #ffffff; stroke: #ffffff"/>
      </g>
     </g>
     <g id="text_15">
      <!-- 0.6 -->
      <g style="fill: #ffffff" transform="translate(10.736875 36.653543) scale(0.1 -0.1)">
       <defs>
        <path id="DejaVuSans-36" d="M 2113 2584
Q 1688 2584 1439 2293
Q 1191 2003 1191 1497
Q 1191 994 1439 701
Q 1688 409 2113 409
Q 2538 409 2786 701
Q 3034 994 3034 1497
Q 3034 2003 2786 2293
Q 2538 2584 2113 2584
z
M 3366 4563
L 3366 3988
Q 3128 4100 2886 4159
Q 2644 4219 2406 4219
Q 1781 4219 1451 3797
Q 1122 3375 1075 2522
Q 1259 2794 1537 2939
Q 1816 3084 2150 3084
Q 2853 3084 3261 2657
Q 3669 2231 3669 1497
Q 3669 778 3244 343
Q 2819 -91 2113 -91
Q 1303 -91 875 529
Q 447 1150 447 2328
Q 447 3434 972 4092
Q 1497 4750 2381 4750
Q 2619 4750 2861 4703
Q 3103 4656 3366 4563
z
" transform="scale(0.015625)"/>
       </defs>
       <use xlink:href="#DejaVuSans-30"/>
       <use xlink:href="#DejaVuSans-2e" transform="translate(63.623047 0)"/>
       <use xlink:href="#DejaVuSans-36" transform="translate(95.410156 0)"/>
      </g>
     </g>
    </g>
   </g>
   <g id="line2d_29">
    <path d="M 63.309091 194.454765
L 69.000905 194.44458
L 70.144833 187.635214
L 71.290385 120.852704
L 72.428211 119.199003
L 73.569478 113.274933
L 74.709524 116.389507
L 75.844872 115.845637
L 76.985909 110.469064
L 78.130888 108.950341
L 79.278611 101.00687
L 80.40421 87.89881
L 81.557161 87.220351
L 82.692496 100.511281
L 83.829129 78.83619
L 84.984301 63.217651
L 86.114203 53.15482
L 87.259139 36.753847
L 88.397678 32.859472
L 89.550423 20.453371
L 90.679532 58.710457
L 91.820728 107.448151
L 92.959389 129.9191
L 95.242024 152.143994
L 96.376324 167.639966
L 97.51605 165.061691
L 98.668433 169.427083
L 99.796295 168.100172
L 100.929888 162.052781
L 102.070924 162.719615
L 103.085522 165.148337
L 104.213633 172.454147
L 105.232913 172.16288
L 106.357977 151.93354
L 107.493235 146.438734
L 108.664567 155.89437
L 109.782582 163.174494
L 110.934307 171.728767
L 113.196932 181.824648
L 114.342956 179.65472
L 115.489981 178.476647
L 116.611391 172.950988
L 117.759681 168.0364
L 120.050947 181.506553
L 122.336752 134.489649
L 123.483462 135.794889
L 124.604731 132.823121
L 125.757335 132.859757
L 126.895362 129.662234
L 128.043471 145.074352
L 129.172126 139.883998
L 130.310598 177.251346
L 131.32932 179.741952
L 132.454882 181.34129
L 133.588619 179.751819
L 134.727939 188.662104
L 135.8767 188.684352
L 137.021764 133.107562
L 138.187617 138.367083
L 139.303341 110.811841
L 140.450524 106.420505
L 141.582999 93.455491
L 142.735611 70.552257
L 143.86463 52.477235
L 145.007171 66.7489
L 146.149385 68.596619
L 147.297347 49.280705
L 148.439041 60.83731
L 150.702037 121.635794
L 151.836336 140.471291
L 152.989351 165.283393
L 154.117563 171.258218
L 155.258098 183.025753
L 156.388758 197.281491
L 157.554284 195.896909
L 158.673323 193.068166
L 159.812994 198.992325
L 160.96333 199.592347
L 162.096351 199.306823
L 163.240105 199.434626
L 164.255855 200.955893
L 165.373828 192.778032
L 166.530478 176.009998
L 168.801737 131.898199
L 169.819192 134.951485
L 172.087204 144.0118
L 173.227653 147.5116
L 174.36963 153.082887
L 175.510924 110.504458
L 176.673067 101.538499
L 177.797407 98.750326
L 178.816323 109.500709
L 179.938004 92.767761
L 181.087306 78.89865
L 182.22273 91.550449
L 183.377026 81.298248
L 184.497641 91.264498
L 185.635851 99.462152
L 186.77676 99.455406
L 187.904677 101.729099
L 189.044422 96.345909
L 190.172843 94.984618
L 191.3152 103.716246
L 192.459699 103.924872
L 193.584104 120.144087
L 194.722539 159.129731
L 195.855948 148.58543
L 196.995554 169.184922
L 198.125124 181.73682
L 199.287621 189.645125
L 200.404239 191.969475
L 201.55391 199.342574
L 203.838136 199.602323
L 204.964759 199.22286
L 206.123669 199.356009
L 207.247439 199.300285
L 208.393475 198.846369
L 209.546785 189.743844
L 210.682544 183.380921
L 211.835287 162.04983
L 212.966602 162.61561
L 214.115725 130.134751
L 215.262861 43.544662
L 216.396054 61.35318
L 217.538772 99.114348
L 218.681028 77.94516
L 219.814538 84.840496
L 220.978574 108.953957
L 222.095609 135.355828
L 223.235041 58.709085
L 224.390027 50.557218
L 225.524283 74.314329
L 226.659955 75.436172
L 227.785468 73.707044
L 228.804087 81.947356
L 229.941398 80.468914
L 231.054587 85.58866
L 232.200264 88.888121
L 233.342287 89.899481
L 234.480601 88.454873
L 235.621656 97.004774
L 236.764297 91.779622
L 237.906788 90.013909
L 239.042667 104.631719
L 240.181578 82.81577
L 241.331578 35.390271
L 242.470887 60.535113
L 243.612017 76.839971
L 244.663682 83.667391
L 245.74956 82.07794
L 246.898424 87.141545
L 248.041568 94.005701
L 249.185521 102.597772
L 250.320235 109.33187
L 251.456539 111.843322
L 252.58781 116.772915
L 253.731685 193.729495
L 254.875676 193.14568
L 256.00147 196.585454
L 257.153836 198.166191
L 259.452324 199.653933
L 260.557649 199.687776
L 261.704453 200.572506
L 262.833452 200.241424
L 263.99391 199.415915
L 265.135242 200.192865
L 266.262248 200.360631
L 270.827631 200.311436
L 271.976115 195.093409
L 273.12939 193.554286
L 274.257331 193.398254
L 276.538208 192.844407
L 277.6669 191.672733
L 278.81233 189.441458
L 279.949006 188.574375
L 281.10278 186.929529
L 282.248639 184.311468
L 284.52351 176.533787
L 285.660483 171.460206
L 286.817595 172.677319
L 287.943246 179.542965
L 289.081141 190.147094
L 290.225855 187.270477
L 291.374318 193.102685
L 292.507098 193.456094
L 293.649676 194.440307
L 294.771605 198.036113
L 295.922203 198.503045
L 297.057412 199.659795
L 298.207572 200.154341
L 299.347777 200.921652
L 301.620502 200.789786
L 302.635109 200.491603
L 303.761101 200.921831
L 307.197609 200.95942
L 312.888924 200.90327
L 314.032732 200.772884
L 315.166052 200.885474
L 322.017744 200.724235
L 323.161593 199.702979
L 324.292479 200.102215
L 325.311182 191.148587
L 327.579904 177.168923
L 328.718267 175.928678
L 329.87546 171.377216
L 331.0005 169.976448
L 332.156598 172.87258
L 333.274784 174.252949
L 334.421667 178.722892
L 335.561993 181.098821
L 336.708078 200.792091
L 337.846234 200.84388
L 338.972003 193.61925
L 340.116992 200.582691
L 341.2525 200.955913
L 349.099079 200.894734
L 353.669584 200.802604
L 354.800968 200.5891
L 355.959962 200.748281
L 358.229094 200.573837
L 359.367701 200.847556
L 360.507159 200.684638
L 362.796216 200.835394
L 363.827579 200.736606
L 364.937194 200.963008
L 371.767218 200.977366
L 375.203228 200.967519
L 376.337257 200.502881
L 377.488907 200.495399
L 378.614033 199.531228
L 379.752517 198.806285
L 380.898984 199.426627
L 383.179934 199.968083
L 384.322581 200.527712
L 386.606363 200.577285
L 387.764167 197.960655
L 388.874567 195.082787
L 390.031641 194.282179
L 391.169716 181.567443
L 392.315709 175.618771
L 393.458651 174.26684
L 394.589087 156.661184
L 395.73782 153.192645
L 396.871706 137.053408
L 397.886292 116.033803
L 399.023387 87.090919
L 400.171986 95.826591
L 401.295513 82.156279
L 402.444093 79.836083
L 403.592549 86.359667
L 404.720174 84.287961
L 405.859959 62.319348
L 407.009476 67.734266
L 408.147938 85.467177
L 409.291959 75.006034
L 410.444102 55.58685
L 411.567265 59.797532
L 414.979525 63.039541
L 416.133548 78.350785
L 417.271517 95.638058
L 418.398103 115.991434
L 419.539343 120.434648
L 420.689759 120.576501
L 421.825387 166.904362
L 422.962541 174.401468
L 424.113056 177.149796
L 425.233237 200.170985
L 426.389121 200.36709
L 427.514524 200.321214
L 428.665225 199.938969
L 429.790696 199.957471
L 432.079951 200.120806
L 433.223726 200.058514
L 434.240548 199.272781
L 435.352815 197.276632
L 436.518623 198.603612
L 437.635832 198.459623
L 438.77426 199.00257
L 439.80026 191.205403
L 440.932937 186.562616
L 442.063841 183.88905
L 443.204746 176.024356
L 445.516624 154.418552
L 447.775204 114.277599
L 448.909623 115.164972
L 450.053755 126.167263
L 451.075717 132.011037
L 453.197815 107.281547
L 454.330551 100.691835
L 455.489377 65.316673
L 456.626327 79.691309
L 457.757696 66.398809
L 458.887987 89.075731
L 460.026279 91.944388
L 461.17695 113.309949
L 462.322852 141.522744
L 463.443539 150.751989
L 464.602316 155.769946
L 465.728479 159.312075
L 466.883626 159.649486
L 468.013901 172.607207
L 470.291697 180.320381
L 471.307258 181.181641
L 472.430106 184.076302
L 473.572719 182.25419
L 474.714825 182.369502
L 475.865368 181.915248
L 477.008832 179.333108
L 478.142656 173.317772
L 479.280786 172.288089
L 480.428612 180.05176
L 481.549163 182.249937
L 482.693624 187.761655
L 483.715948 189.773146
L 484.848999 188.108277
L 485.973555 188.361944
L 487.119221 187.909072
L 488.260501 192.326183
L 489.404006 192.751273
L 490.540075 195.622276
L 491.671767 197.295878
L 492.704752 197.559989
L 493.818333 200.210979
L 494.947348 200.849275
L 497.235026 200.785195
L 499.51089 200.358972
L 500.665764 200.947805
L 505.216342 200.851988
L 506.365355 200.771711
L 507.510425 200.412847
L 508.638258 200.942956
L 509.780426 191.712767
L 510.924632 193.232027
L 512.067472 192.76271
L 513.211626 191.428516
L 514.348798 190.356593
L 515.494416 187.52329
L 516.631163 185.100758
L 517.768136 181.965954
L 518.919401 179.405246
L 520.055323 177.71021
L 521.200169 175.240898
L 522.329267 171.821902
L 523.474084 168.922252
L 524.615506 196.22179
L 525.750557 196.326411
L 528.040915 195.917358
L 529.178591 196.170498
L 530.308939 200.015261
L 531.459938 200.57659
L 532.610861 199.218021
L 533.734581 199.647583
L 534.904361 199.896371
L 536.024225 200.908198
L 537.164823 200.878349
L 538.312605 200.960494
L 539.448956 200.469097
L 540.581837 200.833436
L 541.717559 200.846841
L 542.861508 190.443497
L 544.00575 187.203625
L 545.175947 185.913986
L 546.296743 181.407536
L 547.436615 174.144045
L 548.567339 165.606227
L 549.712734 155.761331
L 550.843155 153.729272
L 551.99646 166.895479
L 553.130884 173.251138
L 554.146299 174.407818
L 555.263299 176.300112
L 556.413705 180.054989
L 557.557467 179.701719
L 558.69499 173.428911
L 559.830859 167.800161
L 560.983843 149.328784
L 562.109334 156.383173
L 563.264992 156.356841
L 564.391292 140.344582
L 565.543558 132.215747
L 566.673039 114.519104
L 567.841922 99.384012
L 568.953695 91.792063
L 571.246694 52.015042
L 572.37301 20.271356
L 573.524832 32.105476
L 574.667212 58.923931
L 575.800443 42.708452
L 576.947713 67.865596
L 578.103783 135.981416
L 579.217691 164.503949
L 580.373046 174.716225
L 581.512336 176.303649
L 582.643189 170.51856
L 583.777009 186.724898
L 584.93058 194.378791
L 586.057591 197.482693
L 587.212153 198.006164
L 588.343477 196.635086
L 589.360898 192.862333
L 590.503554 175.521761
L 591.634949 172.521595
L 592.767386 162.698291
L 593.784945 166.209935
L 594.916102 163.141009
L 596.056141 155.184193
L 597.186077 164.270552
L 598.343635 152.496955
L 600.616255 124.592398
L 601.76843 113.347599
L 602.896195 105.823545
L 604.040781 110.285638
L 605.18849 140.708364
L 606.346055 145.061922
L 607.466055 152.880422
L 608.604026 135.135965
L 609.626586 116.524414
L 610.752154 118.501466
L 611.899153 115.483017
L 613.027742 135.740964
L 614.156528 152.210101
L 615.330806 156.962805
L 616.440227 154.31573
L 617.57999 146.047367
L 618.75936 130.102924
L 619.877479 117.734443
L 621.018044 121.157961
L 623.303415 152.924729
L 624.435514 158.3921
L 625.562608 157.614764
L 626.708876 148.155987
L 627.842679 141.890462
L 630.13126 157.044929
L 631.262014 148.677809
L 632.421025 147.293744
L 634.689827 119.902195
L 635.818033 128.274074
L 636.970287 131.692346
L 638.10242 133.03432
L 639.251874 125.007731
L 640.388778 121.98647
L 641.408432 123.372215
L 642.538435 130.267601
L 643.677739 129.259878
L 644.842335 122.15223
L 645.946865 112.665025
L 647.106946 111.614635
L 648.253482 114.027131
L 650.522464 131.088767
L 651.843841 132.806736
L 652.939271 132.857253
L 654.294078 131.621986
L 655.374906 131.223217
L 656.690909 131.341729
L 656.690909 131.341729
" clip-path="url(#p32c8c17cce)" style="fill: none; stroke: #3498db; stroke-width: 1.5; stroke-linecap: square"/>
   </g>
   <g id="line2d_30">
    <path d="M 63.309091 194.517462
L 69.000905 194.502288
L 70.144833 187.683102
L 71.290385 120.943511
L 72.428211 119.267062
L 73.569478 113.297009
L 74.709524 116.421315
L 75.844872 116.052033
L 76.985909 110.762864
L 78.130888 109.252314
L 79.278611 101.251012
L 80.40421 88.170037
L 81.557161 87.353663
L 82.692496 100.914357
L 83.829129 79.258427
L 84.984301 63.32029
L 86.114203 53.280558
L 87.259139 36.554126
L 88.397678 32.448236
L 89.550423 20.18269
L 90.679532 58.256352
L 91.820728 107.008204
L 92.959389 129.682383
L 95.242024 152.168811
L 96.376324 167.586601
L 97.51605 165.130368
L 98.668433 169.475638
L 99.796295 168.163884
L 100.929888 162.005522
L 102.070924 162.636268
L 103.085522 165.07179
L 104.213633 172.380849
L 105.232913 172.236019
L 106.357977 152.143653
L 107.493235 146.842753
L 108.664567 156.148696
L 109.782582 163.367637
L 110.934307 171.943411
L 113.196932 181.858493
L 114.342956 179.714362
L 115.489981 178.555792
L 116.611391 172.98625
L 117.759681 168.266986
L 120.050947 181.692291
L 122.336752 135.0467
L 123.483462 136.292801
L 124.604731 133.373046
L 125.757335 133.331658
L 126.895362 130.127512
L 128.043471 145.354176
L 129.172126 139.983218
L 130.310598 177.530855
L 131.32932 180.011736
L 132.454882 181.603012
L 133.588619 179.995263
L 134.727939 188.679475
L 135.8767 188.731992
L 137.021764 133.143064
L 138.187617 138.625754
L 139.303341 111.22239
L 140.450524 106.524004
L 141.582999 93.584927
L 142.735611 70.43615
L 143.86463 52.569885
L 145.007171 66.659159
L 146.149385 68.154425
L 147.297347 48.829895
L 148.439041 60.670117
L 150.702037 121.392699
L 151.836336 140.50151
L 152.989351 165.396863
L 154.117563 171.226883
L 155.258098 182.901043
L 156.388758 197.25108
L 157.554284 195.935758
L 158.673323 193.035573
L 159.812994 198.8874
L 160.96333 199.634899
L 162.096351 199.225331
L 163.240105 199.459707
L 164.255855 200.952777
L 165.373828 192.824934
L 166.530478 176.154736
L 168.801737 131.70066
L 169.819192 134.780922
L 172.087204 143.88809
L 173.227653 147.586936
L 174.36963 153.269227
L 175.510924 110.534791
L 176.673067 101.392093
L 177.797407 98.629935
L 178.816323 109.231769
L 179.938004 92.496059
L 181.087306 78.665387
L 182.22273 91.299147
L 183.377026 81.021495
L 184.497641 91.008071
L 185.635851 99.265818
L 186.77676 99.202548
L 187.904677 101.433986
L 189.044422 96.187765
L 190.172843 94.647382
L 191.3152 103.26249
L 192.459699 103.878
L 193.584104 119.98828
L 194.722539 159.036624
L 195.855948 148.570757
L 196.995554 169.026331
L 198.125124 181.529469
L 199.287621 189.687411
L 200.404239 191.81936
L 201.55391 199.375075
L 202.69177 199.363821
L 203.838136 199.528299
L 204.964759 199.240861
L 206.123669 199.384916
L 207.247439 199.353198
L 208.393475 198.883455
L 209.546785 189.704471
L 210.682544 183.28222
L 211.835287 162.151031
L 212.966602 162.761995
L 214.115725 129.843899
L 215.262861 43.374877
L 216.396054 61.480351
L 217.538772 98.996441
L 218.681028 77.719833
L 219.814538 84.586159
L 220.978574 108.620759
L 222.095609 134.836349
L 223.235041 58.337973
L 224.390027 50.224889
L 225.524283 74.10125
L 226.659955 75.189523
L 227.785468 73.555382
L 228.804087 81.683212
L 229.941398 80.241952
L 231.054587 85.22091
L 232.200264 88.677265
L 233.342287 89.743589
L 234.480601 88.451596
L 235.621656 97.079931
L 236.764297 91.884543
L 237.906788 90.043838
L 239.042667 104.663005
L 240.181578 83.033993
L 241.331578 35.260686
L 242.470887 60.170048
L 243.612017 76.573578
L 244.663682 83.323115
L 245.74956 81.727981
L 246.898424 86.806639
L 248.041568 93.483495
L 249.185521 102.230222
L 250.320235 109.29093
L 251.456539 111.919104
L 252.58781 117.127755
L 253.731685 193.657222
L 254.875676 193.147458
L 256.00147 196.627026
L 257.153836 198.213218
L 258.274892 198.844964
L 259.452324 199.649537
L 260.557649 199.692022
L 261.704453 200.583252
L 262.833452 200.244981
L 263.99391 199.411665
L 265.135242 200.193815
L 266.262248 200.364335
L 270.827631 200.315227
L 271.976115 195.029812
L 273.12939 193.566841
L 275.388574 193.089264
L 276.538208 192.840322
L 277.6669 191.682839
L 278.81233 189.491639
L 279.949006 188.622911
L 281.10278 186.969174
L 282.248639 184.353385
L 284.52351 176.645629
L 285.660483 171.587441
L 286.817595 172.679286
L 287.943246 179.578074
L 289.081141 190.167293
L 290.225855 187.317712
L 291.374318 193.130832
L 292.507098 193.468788
L 293.649676 194.465214
L 294.771605 198.087636
L 295.922203 198.567255
L 297.057412 199.66654
L 298.207572 200.16209
L 299.347777 200.922354
L 301.620502 200.791783
L 302.635109 200.496229
L 303.761101 200.921098
L 307.197609 200.95955
L 312.888924 200.898655
L 314.032732 200.784519
L 317.455892 200.943852
L 318.597476 200.852816
L 319.732119 200.891712
L 322.017744 200.727407
L 323.161593 199.741695
L 324.292479 200.140789
L 325.311182 191.348952
L 327.579904 177.131971
L 328.718267 175.989924
L 329.87546 171.42297
L 331.0005 170.040853
L 332.156598 172.907641
L 333.274784 174.312678
L 334.421667 178.749784
L 335.561993 181.132771
L 336.708078 200.797432
L 337.846234 200.841452
L 338.972003 193.787731
L 340.116992 200.60288
L 341.2525 200.955544
L 350.245249 200.889774
L 353.669584 200.808385
L 354.800968 200.614155
L 355.959962 200.754531
L 358.229094 200.528123
L 359.367701 200.830619
L 360.507159 200.67983
L 362.796216 200.810209
L 363.827579 200.733368
L 364.937194 200.963034
L 371.767218 200.977405
L 375.203228 200.966239
L 376.337257 200.503366
L 377.488907 200.484205
L 378.614033 199.546663
L 379.752517 198.834247
L 380.898984 199.475511
L 383.179934 200.001315
L 384.322581 200.542957
L 386.606363 200.582158
L 387.764167 198.046327
L 388.874567 195.303835
L 390.031641 194.488851
L 391.169716 181.629188
L 392.315709 175.653238
L 393.458651 174.281226
L 394.589087 156.701373
L 395.73782 153.194798
L 396.871706 137.023134
L 397.886292 115.957231
L 399.023387 86.666612
L 400.171986 95.621882
L 401.295513 81.917769
L 402.444093 79.748012
L 403.592549 86.016598
L 404.720174 83.664747
L 405.859959 61.897885
L 407.009476 67.450276
L 408.147938 85.2596
L 409.291959 75.0547
L 410.444102 55.523873
L 411.567265 59.573014
L 412.697323 60.640583
L 413.845894 61.535145
L 414.979525 62.801371
L 416.133548 78.183702
L 417.271517 95.560869
L 418.398103 115.978088
L 419.539343 120.589606
L 420.689759 120.644701
L 421.825387 167.041989
L 422.962541 174.46417
L 424.113056 177.121559
L 425.233237 200.21426
L 426.389121 200.374443
L 427.514524 200.319338
L 428.665225 199.946029
L 433.223726 200.097762
L 434.240548 199.251198
L 435.352815 197.309414
L 436.518623 198.63504
L 437.635832 198.492252
L 438.77426 199.014065
L 439.80026 191.201846
L 440.932937 186.618387
L 442.063841 183.943692
L 443.204746 176.072943
L 444.348443 165.853622
L 445.516624 154.361951
L 447.775204 114.209376
L 448.909623 115.114954
L 450.053755 126.20946
L 451.075717 131.864529
L 453.197815 107.048612
L 454.330551 100.436561
L 455.489377 64.876542
L 456.626327 79.15172
L 457.757696 66.031216
L 458.887987 88.596577
L 460.026279 91.729398
L 461.17695 112.968201
L 462.322852 141.467633
L 463.443539 150.890056
L 464.602316 155.945074
L 465.728479 159.594587
L 466.883626 160.024034
L 468.013901 172.908287
L 470.291697 180.537024
L 471.307258 181.374046
L 472.430106 184.217413
L 473.572719 182.342808
L 474.714825 182.403064
L 475.865368 181.925483
L 477.008832 179.313616
L 478.142656 173.270836
L 479.280786 172.321294
L 480.428612 180.066326
L 481.549163 182.281995
L 482.693624 187.789698
L 483.715948 189.770451
L 484.848999 188.11228
L 485.973555 188.379592
L 487.119221 187.954598
L 488.260501 192.375346
L 489.404006 192.803643
L 490.540075 195.639777
L 491.671767 197.308679
L 492.704752 197.563661
L 493.818333 200.210406
L 494.947348 200.848489
L 497.235026 200.787753
L 499.51089 200.328034
L 500.665764 200.946978
L 505.216342 200.853475
L 506.365355 200.777099
L 507.510425 200.410335
L 508.638258 200.944355
L 509.780426 191.703416
L 510.924632 193.212739
L 512.067472 192.750417
L 513.211626 191.41613
L 514.348798 190.327526
L 515.494416 187.514218
L 516.631163 185.070668
L 517.768136 181.976657
L 518.919401 179.394016
L 520.055323 177.783627
L 521.200169 175.271349
L 522.329267 171.905782
L 523.474084 168.965164
L 524.615506 196.225845
L 525.750557 196.360021
L 528.040915 195.913181
L 529.178591 196.181322
L 530.308939 200.018777
L 531.459938 200.4076
L 532.610861 199.296776
L 533.734581 199.680269
L 534.904361 199.891655
L 536.024225 200.901979
L 537.164823 200.867093
L 538.312605 200.960456
L 539.448956 200.4693
L 540.581837 200.830685
L 541.717559 200.838266
L 542.861508 190.446051
L 544.00575 187.204606
L 545.175947 185.91411
L 546.296743 181.448613
L 547.436615 174.192016
L 548.567339 165.677808
L 549.712734 155.90096
L 550.843155 153.872654
L 551.99646 166.986166
L 553.130884 173.334054
L 554.146299 174.466531
L 555.263299 176.404096
L 556.413705 180.246995
L 557.557467 179.761706
L 559.830859 167.914129
L 560.983843 149.517515
L 562.109334 156.552523
L 563.264992 156.429743
L 564.391292 140.376821
L 565.543558 132.169817
L 566.673039 114.531922
L 567.841922 99.503736
L 568.953695 91.899164
L 571.246694 51.658165
L 572.37301 19.856364
L 573.524832 31.807307
L 574.667212 58.486589
L 575.800443 42.133283
L 576.947713 67.502802
L 578.103783 135.860997
L 579.217691 164.366291
L 580.373046 174.648283
L 581.512336 176.216256
L 582.643189 170.261
L 583.777009 186.498359
L 584.93058 194.217984
L 586.057591 197.426591
L 587.212153 198.018028
L 588.343477 196.672218
L 589.360898 192.930946
L 590.503554 175.515082
L 591.634949 172.440134
L 592.767386 162.508982
L 593.784945 166.015881
L 594.916102 162.972725
L 596.056141 155.017979
L 597.186077 164.159291
L 598.343635 152.417658
L 600.616255 124.407906
L 601.76843 113.093667
L 602.896195 105.509681
L 604.040781 109.912718
L 605.18849 140.351131
L 606.346055 144.77669
L 607.466055 152.762836
L 608.604026 135.033731
L 609.626586 116.326078
L 610.752154 118.183709
L 611.899153 115.120591
L 613.027742 135.33989
L 614.156528 151.92535
L 615.330806 156.789033
L 616.440227 154.258293
L 617.57999 146.015513
L 618.75936 130.013111
L 619.877479 117.526175
L 621.018044 120.771699
L 623.303415 152.646655
L 624.435514 158.217705
L 625.562608 157.51554
L 626.708876 148.016362
L 627.842679 141.706729
L 628.985441 148.878666
L 630.13126 156.905766
L 631.262014 148.563992
L 632.421025 147.232544
L 634.689827 119.605664
L 635.818033 127.935929
L 636.970287 131.40085
L 638.10242 132.82709
L 639.251874 124.903421
L 640.388778 121.919674
L 641.408432 123.328494
L 642.538435 130.268853
L 643.677739 129.294774
L 644.842335 122.231954
L 645.946865 112.644157
L 647.106946 111.654459
L 648.253482 114.089414
L 650.522464 131.033461
L 651.843841 132.801973
L 652.939271 132.873373
L 654.294078 131.723877
L 655.374906 131.223674
L 656.690909 131.291172
L 656.690909 131.291172
" clip-path="url(#p32c8c17cce)" style="fill: none; stroke-dasharray: 5.55,2.4; stroke-dashoffset: 0; stroke: #e74c3c; stroke-width: 1.5"/>
   </g>
   <g id="patch_3">
    <path d="M 33.64 210.04
L 33.64 10.8
" style="fill: none; stroke: #ffffff; stroke-linejoin: miter; stroke-linecap: square"/>
   </g>
   <g id="patch_4">
    <path d="M 686.36 210.04
L 686.36 10.8
" style="fill: none; stroke: #ffffff; stroke-linejoin: miter; stroke-linecap: square"/>
   </g>
   <g id="patch_5">
    <path d="M 33.64 210.04
L 686.36 210.04
" style="fill: none; stroke: #ffffff; stroke-linejoin: miter; stroke-linecap: square"/>
   </g>
   <g id="patch_6">
    <path d="M 33.64 10.8
L 686.36 10.8
" style="fill: none; stroke: #ffffff; stroke-linejoin: miter; stroke-linecap: square"/>
   </g>
  </g>
  <g id="axes_2">
   <g id="matplotlib.axis_3">
    <g id="ytick_8">
     <g id="line2d_31">
      <defs>
       <path id="m7c54fedf97" d="M 0 0
L 3.5 0
" style="stroke: #3498db; stroke-opacity: 0.5"/>
      </defs>
      <g>
       <use xlink:href="#m7c54fedf97" x="686.36" y="184.36855" style="fill: #3498db; fill-opacity: 0.5; stroke: #3498db; stroke-opacity: 0.5"/>
      </g>
     </g>
     <g id="text_16">
      <!-- 0.5 -->
      <g style="fill: #3498db; opacity: 0.5" transform="translate(693.36 188.167769) scale(0.1 -0.1)">
       <use xlink:href="#DejaVuSans-30"/>
       <use xlink:href="#DejaVuSans-2e" transform="translate(63.623047 0)"/>
       <use xlink:href="#DejaVuSans-35" transform="translate(95.410156 0)"/>
      </g>
     </g>
    </g>
    <g id="ytick_9">
     <g id="line2d_32">
      <g>
       <use xlink:href="#m7c54fedf97" x="686.36" y="154.602544" style="fill: #3498db; fill-opacity: 0.5; stroke: #3498db; stroke-opacity: 0.5"/>
      </g>
     </g>
     <g id="text_17">
      <!-- 1.0 -->
      <g style="fill: #3498db; opacity: 0.5" transform="translate(693.36 158.401763) scale(0.1 -0.1)">
       <use xlink:href="#DejaVuSans-31"/>
       <use xlink:href="#DejaVuSans-2e" transform="translate(63.623047 0)"/>
       <use xlink:href="#DejaVuSans-30" transform="translate(95.410156 0)"/>
      </g>
     </g>
    </g>
    <g id="ytick_10">
     <g id="line2d_33">
      <g>
       <use xlink:href="#m7c54fedf97" x="686.36" y="124.836539" style="fill: #3498db; fill-opacity: 0.5; stroke: #3498db; stroke-opacity: 0.5"/>
      </g>
     </g>
     <g id="text_18">
      <!-- 1.5 -->
      <g style="fill: #3498db; opacity: 0.5" transform="translate(693.36 128.635758) scale(0.1 -0.1)">
       <use xlink:href="#DejaVuSans-31"/>
       <use xlink:href="#DejaVuSans-2e" transform="translate(63.623047 0)"/>
       <use xlink:href="#DejaVuSans-35" transform="translate(95.410156 0)"/>
      </g>
     </g>
    </g>
    <g id="ytick_11">
     <g id="line2d_34">
      <g>
       <use xlink:href="#m7c54fedf97" x="686.36" y="95.070533" style="fill: #3498db; fill-opacity: 0.5; stroke: #3498db; stroke-opacity: 0.5"/>
      </g>
     </g>
     <g id="text_19">
      <!-- 2.0 -->
      <g style="fill: #3498db; opacity: 0.5" transform="translate(693.36 98.869752) scale(0.1 -0.1)">
       <use xlink:href="#DejaVuSans-32"/>
       <use xlink:href="#DejaVuSans-2e" transform="translate(63.623047 0)"/>
       <use xlink:href="#DejaVuSans-30" transform="translate(95.410156 0)"/>
      </g>
     </g>
    </g>
    <g id="ytick_12">
     <g id="line2d_35">
      <g>
       <use xlink:href="#m7c54fedf97" x="686.36" y="65.304528" style="fill: #3498db; fill-opacity: 0.5; stroke: #3498db; stroke-opacity: 0.5"/>
      </g>
     </g>
     <g id="text_20">
      <!-- 2.5 -->
      <g style="fill: #3498db; opacity: 0.5" transform="translate(693.36 69.103747) scale(0.1 -0.1)">
       <use xlink:href="#DejaVuSans-32"/>
       <use xlink:href="#DejaVuSans-2e" transform="translate(63.623047 0)"/>
       <use xlink:href="#DejaVuSans-35" transform="translate(95.410156 0)"/>
      </g>
     </g>
    </g>
    <g id="ytick_13">
     <g id="line2d_36">
      <g>
       <use xlink:href="#m7c54fedf97" x="686.36" y="35.538523" style="fill: #3498db; fill-opacity: 0.5; stroke: #3498db; stroke-opacity: 0.5"/>
      </g>
     </g>
     <g id="text_21">
      <!-- 3.0 -->
      <g style="fill: #3498db; opacity: 0.5" transform="translate(693.36 39.337741) scale(0.1 -0.1)">
       <use xlink:href="#DejaVuSans-33"/>
       <use xlink:href="#DejaVuSans-2e" transform="translate(63.623047 0)"/>
       <use xlink:href="#DejaVuSans-30" transform="translate(95.410156 0)"/>
      </g>
     </g>
    </g>
   </g>
   <g id="line2d_37">
    <path d="M 63.309091 194.010592
L 64.449636 189.789594
L 65.574955 196.584281
L 66.720748 198.965264
L 67.857583 199.87902
L 69.000905 197.192042
L 70.144833 195.50413
L 71.290385 196.995826
L 72.428211 197.806413
L 73.569478 197.986497
L 74.709524 192.2541
L 75.844872 197.559473
L 78.130888 199.011818
L 79.278611 197.710924
L 80.40421 194.710271
L 81.557161 197.83975
L 82.692496 200.32158
L 83.829129 200.032851
L 84.984301 188.902091
L 86.114203 198.195216
L 88.397678 194.466905
L 89.550423 194.481789
L 90.679532 193.880575
L 91.820728 197.432372
L 92.959389 196.811514
L 94.111072 196.940937
L 95.242024 195.618017
L 96.376324 197.349505
L 97.51605 196.210897
L 98.668433 198.12604
L 99.796295 189.141886
L 100.929888 197.953694
L 103.085522 195.168311
L 104.213633 197.727058
L 105.232913 194.128762
L 106.357977 197.960898
L 107.493235 197.668596
L 108.664567 195.8262
L 109.782582 195.405665
L 110.934307 191.321829
L 112.054609 197.913152
L 113.196932 194.923753
L 114.342956 196.248518
L 115.489981 198.275763
L 116.611391 199.041643
L 117.759681 197.135964
L 118.901415 196.592615
L 120.050947 189.273689
L 121.185369 197.993045
L 122.336752 197.106734
L 123.483462 199.712033
L 124.604731 199.116178
L 125.757335 200.004275
L 126.895362 194.543225
L 128.043471 197.130606
L 129.172126 193.058677
L 131.32932 195.313271
L 132.454882 195.675881
L 133.588619 196.606961
L 134.727939 198.067641
L 135.8767 196.658814
L 137.021764 198.859713
L 138.187617 198.958119
L 139.303341 199.687506
L 140.450524 196.296203
L 141.582999 194.194309
L 142.735611 197.83737
L 143.86463 199.445448
L 145.007171 197.255861
L 146.149385 199.099507
L 147.297347 196.362405
L 148.439041 197.242763
L 149.567973 199.969687
L 150.702037 196.624226
L 151.836336 196.417233
L 155.258098 199.058312
L 156.388758 199.790735
L 157.554284 195.358576
L 158.673323 198.846021
L 159.812994 198.03841
L 160.96333 189.841505
L 162.096351 197.490834
L 163.240105 194.496076
L 164.255855 197.164598
L 165.373828 196.684472
L 166.530478 195.891209
L 167.666481 190.294187
L 168.801737 198.406972
L 169.819192 197.976377
L 170.955225 199.296321
L 173.227653 197.075122
L 174.36963 199.8027
L 175.510924 200.095539
L 176.673067 199.633272
L 177.797407 198.251296
L 178.816323 193.318771
L 179.938004 198.444002
L 181.087306 199.851575
L 182.22273 198.353928
L 183.377026 194.647048
L 184.497641 195.716424
L 185.635851 196.635597
L 186.77676 197.212939
L 187.904677 200.685442
L 189.044422 195.696182
L 190.172843 198.223851
L 191.3152 200.366885
L 193.584104 200.47309
L 194.722539 193.85194
L 195.855948 191.084535
L 196.995554 198.188073
L 198.125124 198.407566
L 199.287621 198.101572
L 200.404239 198.323509
L 201.55391 197.381117
L 202.69177 196.668995
L 203.838136 197.404394
L 204.964759 197.06262
L 206.123669 194.369689
L 207.247439 199.327277
L 208.393475 195.448051
L 209.546785 197.15686
L 210.682544 200.264907
L 211.835287 195.964552
L 212.966602 197.37933
L 214.115725 197.348909
L 215.262861 197.74313
L 216.396054 193.150533
L 217.538772 197.842727
L 218.681028 198.600273
L 220.978574 197.300569
L 222.095609 196.548444
L 223.235041 196.818062
L 224.390027 198.76845
L 226.659955 196.533559
L 227.785468 197.863622
L 228.804087 197.055417
L 229.941398 197.424039
L 231.054587 199.178209
L 232.200264 200.550006
L 233.342287 197.949468
L 234.480601 197.963814
L 235.621656 200.116969
L 236.764297 187.796939
L 237.906788 191.945725
L 239.042667 197.595849
L 240.181578 194.711999
L 241.331578 198.207779
L 242.470887 199.805616
L 243.612017 195.221414
L 244.663682 198.3372
L 245.74956 195.278089
L 246.898424 197.554651
L 248.041568 200.08774
L 249.185521 196.145887
L 250.320235 188.653366
L 251.456539 197.641748
L 252.58781 197.920894
L 253.731685 196.882475
L 254.875676 192.88514
L 256.00147 196.308706
L 257.153836 188.4303
L 258.274892 195.590572
L 259.452324 197.141916
L 260.557649 195.797565
L 261.704453 197.818259
L 262.833452 197.777122
L 263.99391 196.338533
L 265.135242 198.290705
L 266.262248 196.427414
L 267.431708 196.326567
L 268.552264 195.332321
L 269.705564 198.26862
L 270.827631 197.076967
L 271.976115 197.747356
L 273.12939 194.41916
L 274.257331 196.58071
L 275.388574 198.013346
L 276.538208 195.474841
L 277.6669 196.186427
L 278.81233 198.388518
L 279.949006 195.109851
L 281.10278 192.931694
L 282.248639 198.203611
L 283.378181 186.953548
L 284.52351 195.32756
L 285.660483 197.529648
L 286.817595 196.840149
L 287.943246 197.652462
L 289.081141 197.115664
L 290.225855 198.752971
L 291.374318 198.158306
L 292.507098 199.9148
L 293.649676 198.367025
L 294.771605 191.454883
L 295.922203 195.968125
L 297.057412 197.351291
L 298.207572 198.93782
L 299.347777 198.976633
L 300.487444 193.148748
L 301.620502 197.261279
L 303.761101 196.337937
L 304.906581 198.467813
L 306.058475 196.720253
L 307.197609 198.093238
L 308.318759 197.858265
L 309.464737 195.064547
L 310.609086 197.582157
L 311.743942 197.321466
L 312.888924 196.445928
L 314.032732 195.827986
L 315.166052 195.618017
L 316.310038 198.453526
L 317.455892 197.328014
L 318.597476 195.601347
L 319.732119 193.379017
L 320.875971 197.288069
L 322.017744 199.845028
L 323.161593 197.328669
L 324.292479 200.183169
L 325.311182 193.841224
L 326.429898 197.920894
L 327.579904 199.409609
L 328.718267 197.935179
L 329.87546 195.310296
L 331.0005 184.350631
L 332.156598 193.020516
L 333.274784 198.879418
L 334.421667 196.685068
L 335.561993 195.337084
L 336.708078 198.064662
L 337.846234 195.187957
L 338.972003 197.509347
L 340.116992 195.10628
L 341.2525 196.080282
L 342.40905 195.652068
L 343.541543 198.207242
L 344.688281 196.870569
L 345.820323 196.159043
L 347.986717 199.948198
L 349.099079 194.580196
L 350.245249 197.681097
L 351.383136 191.268787
L 352.522977 198.162414
L 353.669584 198.416555
L 354.800968 197.574415
L 355.959962 194.572515
L 357.089689 194.215204
L 358.229094 194.955366
L 359.367701 197.821892
L 360.507159 197.818914
L 361.657108 195.989615
L 362.796216 195.755177
L 363.827579 197.751524
L 364.937194 194.503874
L 366.077309 195.857811
L 367.207747 197.597038
L 368.364367 191.651101
L 369.48522 195.244035
L 370.658414 197.70259
L 371.767218 196.929626
L 372.914034 199.593326
L 374.064932 193.433906
L 375.203228 198.84477
L 376.337257 197.762836
L 377.488907 197.257647
L 378.614033 197.422907
L 379.752517 196.342104
L 380.898984 198.277609
L 382.032623 194.365524
L 383.179934 195.768334
L 384.322581 198.544729
L 385.474133 199.196068
L 386.606363 195.211293
L 387.764167 197.351887
L 390.031641 199.132249
L 391.169716 194.79969
L 392.315709 195.847631
L 393.458651 197.671634
L 394.589087 197.176565
L 395.73782 196.406517
L 396.871706 193.642031
L 397.886292 197.440767
L 399.023387 196.89736
L 400.171986 196.712452
L 401.295513 197.101376
L 402.444093 196.305135
L 403.592549 195.754642
L 404.720174 194.497325
L 405.859959 198.134434
L 407.009476 197.696635
L 408.147938 199.870686
L 409.291959 197.264791
L 410.444102 199.014792
L 411.567265 187.236802
L 412.697323 198.173785
L 413.845894 200.189717
L 414.979525 197.593408
L 416.133548 193.123149
L 417.271517 197.985962
L 418.398103 197.897677
L 419.539343 197.046546
L 420.689759 196.031346
L 421.825387 199.537247
L 422.962541 198.618131
L 424.113056 199.122725
L 425.233237 199.164457
L 426.389121 195.480259
L 427.514524 198.916387
L 428.665225 194.613652
L 429.790696 196.337937
L 430.945718 195.489845
L 432.079951 196.734599
L 433.223726 197.407906
L 434.240548 196.928434
L 435.352815 197.795042
L 436.518623 198.064068
L 437.635832 194.088757
L 438.77426 198.88293
L 439.80026 197.085897
L 440.932937 198.86269
L 442.063841 198.235222
L 443.204746 196.247271
L 444.348443 196.061173
L 445.516624 197.231393
L 446.638098 196.853305
L 447.775204 197.025055
L 448.909623 196.423245
L 450.053755 196.846698
L 451.075717 198.377147
L 452.180061 194.63925
L 453.197815 198.080736
L 454.330551 199.340433
L 455.489377 200.050174
L 456.626327 188.023577
L 457.757696 199.082125
L 458.887987 200.417011
L 460.026279 200.832723
L 461.17695 200.983636
L 462.322852 193.897301
L 463.443539 199.361924
L 464.602316 198.517941
L 465.728479 198.195871
L 466.883626 195.158728
L 468.013901 199.285544
L 469.161309 197.841596
L 470.291697 198.873405
L 471.307258 200.271456
L 472.430106 195.223796
L 473.572719 198.616942
L 474.714825 199.877769
L 475.865368 191.423868
L 477.008832 193.249001
L 478.142656 196.321863
L 479.280786 194.969712
L 480.428612 196.869974
L 481.549163 199.784185
L 482.693624 196.533559
L 483.715948 197.533221
L 485.973555 197.987688
L 487.119221 198.905016
L 488.260501 193.513797
L 489.404006 198.488116
L 490.540075 196.846697
L 491.671767 198.055079
L 492.704752 197.573225
L 493.818333 192.377571
L 494.947348 198.73267
L 496.094614 198.175572
L 497.235026 197.858861
L 498.379696 197.242764
L 499.51089 198.637777
L 500.665764 197.28509
L 501.809927 197.300034
L 502.93321 197.849872
L 504.09568 200.141436
L 505.216342 194.788973
L 506.365355 198.035969
L 507.510425 197.377544
L 508.638258 197.838025
L 509.780426 196.965405
L 510.924632 195.145033
L 512.067472 194.78421
L 513.211626 196.284836
L 514.348798 199.080992
L 515.494416 199.246789
L 516.631163 195.105684
L 517.768136 199.238396
L 518.919401 195.888827
L 520.055323 198.459479
L 521.200169 198.905077
L 522.329267 194.825942
L 523.474084 198.659925
L 524.615506 194.697116
L 525.750557 199.306382
L 526.88942 192.075802
L 528.040915 195.492167
L 529.178591 196.610533
L 530.308939 198.124254
L 531.459938 197.712173
L 532.610861 199.95653
L 533.734581 195.624564
L 534.904361 198.469003
L 536.024225 196.490637
L 537.164823 196.916529
L 538.312605 196.564576
L 539.448956 194.972689
L 540.581837 196.987492
L 541.717559 195.617421
L 542.861508 196.725608
L 544.00575 196.191786
L 545.175947 194.572456
L 546.296743 196.136899
L 547.436615 195.848286
L 548.567339 193.956953
L 549.712734 192.881568
L 550.843155 196.212085
L 551.99646 195.533956
L 553.130884 195.382448
L 554.146299 189.634512
L 555.263299 195.717077
L 556.413705 196.008131
L 557.557467 188.058702
L 558.69499 184.978158
L 559.830859 187.762292
L 560.983843 184.602392
L 562.109334 195.347859
L 563.264992 193.562138
L 564.391292 186.387518
L 565.543558 187.474811
L 566.673039 198.623489
L 567.841922 193.87462
L 568.953695 196.329603
L 570.097166 195.660403
L 571.246694 195.89359
L 572.37301 192.845789
L 573.524832 194.793795
L 574.667212 196.329007
L 575.800443 196.579518
L 576.947713 187.021534
L 578.103783 196.901586
L 579.217691 195.631172
L 580.373046 195.830367
L 581.512336 197.945956
L 582.643189 194.657765
L 583.777009 178.181686
L 584.93058 196.660005
L 586.057591 197.842727
L 587.212153 195.889423
L 588.343477 198.078951
L 589.360898 195.53872
L 590.503554 191.479351
L 591.634949 196.523439
L 592.767386 198.166046
L 593.784945 192.444961
L 594.916102 198.460669
L 596.056141 196.135171
L 597.186077 197.812963
L 598.343635 197.367365
L 599.475177 195.923417
L 600.616255 197.565426
L 601.76843 197.509349
L 602.896195 183.525755
L 604.040781 194.130549
L 605.18849 197.211688
L 606.346055 198.311542
L 607.466055 195.479664
L 608.604026 196.152435
L 609.626586 195.455196
L 610.752154 194.453809
L 611.899153 196.606902
L 613.027742 197.383497
L 614.156528 197.965006
L 615.330806 197.14674
L 616.440227 197.233238
L 617.57999 197.602993
L 618.75936 195.113424
L 619.877479 197.613113
L 621.018044 196.949865
L 622.15333 196.92004
L 623.303415 198.909781
L 624.435514 199.683992
L 625.562608 196.981478
L 626.708876 195.785659
L 627.842679 197.150905
L 628.985441 197.859455
L 630.13126 195.79042
L 631.262014 198.109967
L 632.421025 196.414852
L 633.552012 178.470952
L 634.689827 196.382704
L 635.818033 196.794845
L 636.970287 196.216313
L 638.10242 198.782739
L 639.251874 195.791018
L 640.388778 183.942122
L 641.408432 198.067045
L 642.538435 197.939408
L 643.677739 197.350695
L 644.842335 197.020292
L 645.946865 196.345082
L 647.106946 199.081588
L 648.253482 199.695304
L 649.434941 194.85934
L 650.522464 195.125389
L 651.843841 194.084591
L 652.939271 196.908135
L 654.294078 196.528201
L 655.374906 196.928971
L 656.690909 196.995228
L 656.690909 196.995228
" clip-path="url(#p32c8c17cce)" style="fill: none; stroke: #3498db; stroke-opacity: 0.5; stroke-width: 1.5; stroke-linecap: square"/>
   </g>
   <g id="line2d_38">
    <path d="M 63.309091 126.823301
L 64.449636 124.995786
L 65.574955 124.831777
L 66.720748 127.373257
L 67.857583 125.807565
L 69.000905 124.429162
L 70.144833 125.286244
L 71.290385 117.819977
L 72.428211 124.446486
L 73.569478 124.19895
L 74.709524 113.876338
L 75.844872 124.848446
L 76.985909 123.779667
L 78.130888 127.451898
L 79.278611 124.017676
L 80.40421 123.63173
L 81.557161 125.26779
L 82.692496 127.607636
L 83.829129 123.786811
L 84.984301 115.53264
L 86.114203 126.167794
L 87.259139 130.455051
L 88.397678 125.820662
L 89.550423 106.763217
L 90.679532 126.087903
L 91.820728 123.252987
L 92.959389 129.182793
L 94.111072 125.461626
L 95.242024 124.71432
L 96.376324 127.217582
L 97.51605 123.729543
L 98.668433 119.407756
L 99.796295 115.882211
L 100.929888 126.985525
L 102.070924 128.602474
L 103.085522 124.347483
L 104.213633 124.120785
L 105.232913 126.136182
L 106.357977 123.1725
L 107.493235 122.651834
L 108.664567 129.24661
L 109.782582 119.31292
L 110.934307 123.838723
L 112.054609 124.693423
L 113.196932 123.309066
L 114.342956 118.996211
L 115.489981 126.683758
L 116.611391 123.946058
L 117.759681 125.300592
L 118.901415 124.052858
L 120.050947 125.248085
L 121.185369 117.148456
L 122.336752 124.204903
L 123.483462 127.735807
L 124.604731 126.041942
L 125.757335 127.748965
L 126.895362 121.279382
L 128.043471 127.152573
L 129.172126 129.247861
L 130.310598 125.152653
L 131.32932 124.337302
L 132.454882 127.28908
L 133.588619 123.309662
L 134.727939 122.709043
L 135.8767 130.316638
L 137.021764 124.386893
L 138.187617 127.250325
L 139.303341 127.803258
L 140.450524 122.84561
L 141.582999 128.405662
L 142.735611 126.729062
L 143.86463 123.984815
L 146.149385 127.851537
L 147.297347 130.341702
L 148.439041 126.547786
L 149.567973 127.497322
L 150.702037 129.310429
L 151.836336 126.681377
L 152.989351 124.626629
L 154.117563 127.748963
L 155.258098 127.267648
L 156.388758 128.319757
L 157.554284 127.339206
L 158.673323 130.611263
L 159.812994 128.393755
L 160.96333 129.736916
L 162.096351 127.487141
L 163.240105 128.220754
L 164.255855 123.592379
L 165.373828 128.191525
L 166.530478 124.029582
L 167.666481 123.374671
L 168.801737 123.046054
L 169.819192 123.589402
L 170.955225 129.997608
L 172.087204 126.200655
L 173.227653 126.012176
L 174.36963 130.777119
L 175.510924 131.706354
L 176.673067 114.32009
L 177.797407 129.807282
L 178.816323 127.227047
L 179.938004 130.170548
L 181.087306 128.384767
L 182.22273 129.549033
L 183.377026 126.631846
L 184.497641 123.297695
L 185.635851 128.505853
L 186.77676 129.174459
L 187.904677 131.333029
L 189.044422 124.911669
L 190.172843 130.565959
L 191.3152 130.948334
L 192.459699 132.27298
L 193.584104 131.185092
L 194.722539 127.882554
L 195.855948 97.812994
L 196.995554 130.584474
L 198.125124 129.640297
L 199.287621 130.554053
L 200.404239 131.217299
L 201.55391 130.743723
L 202.69177 128.103895
L 203.838136 124.530008
L 204.964759 129.841931
L 206.123669 126.157674
L 207.247439 125.808697
L 208.393475 127.644604
L 209.546785 126.637203
L 210.682544 126.087247
L 211.835287 125.252846
L 212.966602 127.84856
L 214.115725 126.494088
L 215.262861 129.620651
L 216.396054 119.527057
L 217.538772 131.148658
L 218.681028 129.475035
L 219.814538 129.750609
L 220.978574 126.155293
L 222.095609 128.80643
L 223.235041 129.11957
L 224.390027 128.687784
L 225.524283 128.545801
L 226.659955 128.98842
L 227.785468 125.891029
L 228.804087 116.37841
L 229.941398 130.266512
L 231.054587 132.166239
L 233.342287 132.082121
L 234.480601 126.09207
L 235.621656 130.121612
L 236.764297 119.960689
L 237.906788 126.2078
L 239.042667 130.121612
L 240.181578 123.543445
L 241.331578 130.938749
L 242.470887 130.859392
L 243.612017 128.948416
L 244.663682 130.963813
L 245.74956 128.634682
L 246.898424 128.417568
L 248.041568 131.43852
L 249.185521 122.117951
L 250.320235 128.297076
L 251.456539 129.141657
L 252.58781 129.469737
L 253.731685 128.239806
L 254.875676 108.918751
L 256.00147 129.483428
L 257.153836 120.572023
L 258.274892 125.435371
L 259.452324 129.023543
L 260.557649 121.909826
L 261.704453 130.536193
L 262.833452 125.898233
L 263.99391 129.828178
L 265.135242 125.679335
L 266.262248 125.913116
L 267.431708 116.346798
L 268.552264 129.276437
L 269.705564 128.276835
L 270.827631 129.312868
L 271.976115 125.639984
L 273.12939 129.173863
L 275.388574 128.997885
L 276.538208 127.467438
L 277.6669 123.800503
L 278.81233 129.229942
L 279.949006 127.065478
L 281.10278 128.711001
L 282.248639 127.192518
L 283.378181 116.665891
L 284.52351 128.452156
L 285.660483 127.423322
L 286.817595 130.007132
L 287.943246 125.298211
L 289.081141 128.122349
L 290.225855 123.060937
L 291.374318 128.405662
L 292.507098 126.826277
L 293.649676 128.824945
L 294.771605 117.941066
L 295.922203 128.509424
L 297.057412 129.293165
L 299.347777 129.504325
L 300.487444 129.085637
L 301.620502 130.514107
L 302.635109 127.787124
L 303.761101 128.624561
L 304.906581 128.875071
L 306.058475 126.339603
L 307.197609 129.509088
L 308.318759 129.605111
L 309.464737 128.316779
L 310.609086 128.617416
L 311.743942 121.2973
L 312.888924 128.429534
L 314.032732 123.930581
L 315.166052 128.354345
L 316.310038 125.583308
L 317.455892 121.820349
L 318.597476 128.246355
L 319.732119 125.947763
L 320.875971 128.341843
L 322.017744 132.018302
L 323.161593 126.844137
L 324.292479 132.396449
L 325.311182 127.692291
L 326.429898 126.517306
L 327.579904 131.988537
L 328.718267 116.268692
L 329.87546 125.824294
L 331.0005 99.630983
L 332.156598 128.326364
L 333.274784 132.728698
L 334.421667 119.789474
L 335.561993 124.27414
L 336.708078 129.847825
L 337.846234 126.661076
L 338.972003 128.070497
L 340.116992 127.610612
L 341.2525 128.941866
L 342.40905 126.281084
L 344.688281 129.822763
L 345.820323 128.452156
L 346.968771 129.525756
L 347.986717 131.451676
L 349.099079 121.187524
L 350.245249 127.923094
L 351.383136 126.038371
L 353.669584 129.450626
L 354.800968 126.325912
L 355.959962 111.423145
L 357.089689 115.905487
L 358.229094 127.188351
L 359.367701 127.491308
L 360.507159 129.118379
L 361.657108 129.703518
L 362.796216 124.292
L 363.827579 126.924683
L 364.937194 125.857691
L 366.077309 128.623311
L 367.207747 127.236036
L 368.364367 124.872377
L 369.48522 127.855764
L 370.658414 127.444219
L 371.767218 126.572254
L 372.914034 132.181716
L 374.064932 128.111037
L 375.203228 130.404925
L 376.337257 128.886979
L 377.488907 127.985187
L 378.614033 128.103238
L 379.752517 125.344763
L 380.898984 129.871101
L 382.032623 127.967863
L 384.322581 129.184042
L 385.474133 128.985443
L 386.606363 123.775441
L 387.764167 127.681575
L 388.874567 127.8563
L 390.031641 123.90016
L 391.169716 127.491906
L 392.315709 127.796112
L 393.458651 130.198587
L 394.589087 129.037832
L 395.73782 126.236374
L 396.871706 121.609189
L 397.886292 128.745054
L 399.023387 129.868721
L 400.171986 129.184044
L 402.444093 128.150388
L 403.592549 112.413281
L 404.720174 124.33909
L 405.859959 131.870365
L 407.009476 130.360752
L 408.147938 132.364839
L 409.291959 125.214091
L 410.444102 131.337137
L 411.567265 127.648771
L 412.697323 131.496386
L 413.845894 130.549291
L 414.979525 131.146933
L 416.133548 120.073977
L 417.271517 130.492614
L 418.398103 129.488191
L 419.539343 128.814825
L 420.689759 121.617584
L 421.825387 130.328545
L 422.962541 132.500809
L 424.113056 131.180925
L 425.233237 129.642677
L 426.389121 121.229851
L 427.514524 130.308901
L 428.665225 127.347004
L 429.790696 130.132329
L 430.945718 118.38065
L 432.079951 126.035991
L 433.223726 129.587253
L 434.240548 128.884002
L 435.352815 128.254748
L 436.518623 126.277572
L 437.635832 117.437067
L 438.77426 129.643868
L 439.80026 128.029301
L 440.932937 128.418222
L 442.063841 129.591955
L 443.204746 127.076788
L 444.348443 129.812641
L 445.516624 130.678653
L 446.638098 127.951195
L 447.775204 131.916918
L 448.909623 129.600885
L 450.053755 122.952351
L 451.075717 126.077722
L 452.180061 125.1926
L 453.197815 131.863223
L 454.330551 131.99443
L 455.489377 125.317855
L 456.626327 114.011119
L 457.757696 131.25546
L 458.887987 132.388709
L 460.026279 132.299828
L 461.17695 131.77315
L 462.322852 123.958025
L 463.443539 132.629636
L 464.602316 129.946231
L 465.728479 129.75424
L 466.883626 113.090814
L 468.013901 131.158839
L 469.161309 128.158127
L 470.291697 131.313265
L 471.307258 131.742134
L 472.430106 127.788373
L 473.572719 130.430525
L 474.714825 130.592212
L 475.865368 104.110233
L 477.008832 119.800785
L 478.142656 129.263936
L 479.280786 115.960317
L 480.428612 126.692686
L 481.549163 131.307372
L 482.693624 120.72228
L 483.715948 127.731701
L 484.848999 129.49474
L 485.973555 125.634029
L 487.119221 129.788769
L 488.260501 122.837277
L 489.404006 128.892932
L 490.540075 122.174683
L 491.671767 128.543418
L 492.704752 129.385617
L 493.818333 123.834554
L 494.947348 130.549886
L 496.094614 129.676074
L 497.235026 128.582828
L 498.379696 129.119629
L 499.51089 130.54804
L 500.665764 128.029301
L 501.809927 127.239013
L 502.93321 127.524112
L 504.09568 130.868977
L 505.216342 128.626942
L 506.365355 128.517762
L 507.510425 125.100801
L 508.638258 128.551813
L 509.780426 127.311165
L 510.924632 125.019659
L 512.067472 129.940277
L 513.211626 129.526352
L 514.348798 130.082261
L 515.494416 130.345869
L 516.631163 125.493237
L 517.768136 130.427011
L 518.919401 124.99936
L 520.055323 131.565621
L 521.200169 19.856364
L 522.329267 128.676472
L 523.474084 129.139869
L 524.615506 119.921934
L 525.750557 130.839152
L 526.88942 114.742946
L 528.040915 129.487001
L 529.178591 129.297928
L 530.308939 128.66153
L 531.459938 129.794186
L 532.610861 131.708199
L 533.734581 129.02652
L 534.904361 128.909065
L 536.024225 130.289254
L 537.164823 130.38766
L 538.312605 125.602359
L 539.448956 128.244034
L 540.581837 129.692743
L 541.717559 127.726342
L 542.861508 126.516175
L 544.00575 123.864322
L 545.175947 125.345896
L 546.296743 128.858999
L 547.436615 128.042992
L 548.567339 113.282864
L 549.712734 123.869143
L 550.843155 127.94643
L 553.130884 128.443823
L 554.146299 111.536492
L 555.263299 125.795004
L 556.413705 128.45817
L 558.69499 97.359062
L 559.830859 125.257074
L 560.983843 115.725879
L 562.109334 128.947224
L 563.264992 128.569672
L 564.391292 129.305132
L 565.543558 111.934346
L 566.673039 131.398038
L 567.841922 128.857152
L 568.953695 129.70352
L 570.097166 128.943653
L 571.246694 128.733683
L 572.37301 115.425301
L 573.524832 124.989238
L 574.667212 126.257269
L 575.800443 122.317203
L 576.947713 126.662863
L 578.103783 118.981267
L 579.217691 126.63244
L 580.373046 128.898348
L 581.512336 129.963555
L 582.643189 120.213522
L 583.777009 120.097255
L 584.93058 127.138225
L 586.057591 129.031283
L 587.212153 128.345416
L 588.343477 118.48864
L 589.360898 125.48788
L 590.503554 115.760526
L 591.634949 129.071883
L 592.767386 130.107861
L 593.784945 123.498737
L 594.916102 130.132387
L 596.056141 120.065585
L 597.186077 127.157275
L 598.343635 126.588865
L 599.475177 129.065336
L 600.616255 130.069165
L 601.76843 127.716816
L 602.896195 119.649932
L 604.040781 123.801099
L 605.18849 130.023801
L 606.346055 130.186026
L 607.466055 123.622145
L 608.604026 126.454738
L 609.626586 127.902259
L 610.752154 125.86305
L 611.899153 128.733148
L 613.027742 129.823952
L 614.156528 125.152117
L 615.330806 128.304278
L 616.440227 129.27108
L 617.57999 126.695663
L 618.75936 126.969987
L 619.877479 128.626348
L 621.018044 129.728582
L 622.15333 128.98598
L 623.303415 130.230734
L 624.435514 130.007667
L 625.562608 129.578264
L 626.708876 129.260959
L 628.985441 128.852985
L 630.13126 120.651915
L 631.262014 128.376431
L 632.421025 125.930439
L 633.552012 111.601501
L 634.689827 127.409572
L 635.818033 129.32061
L 636.970287 130.461601
L 638.10242 129.650417
L 639.251874 126.020512
L 640.388778 116.526347
L 641.408432 130.465172
L 642.538435 122.428112
L 643.677739 129.76198
L 644.842335 127.169837
L 645.946865 128.223196
L 647.106946 125.663795
L 648.253482 128.96925
L 649.434941 128.363274
L 650.522464 125.073358
L 651.843841 126.404612
L 652.939271 125.916747
L 654.294078 129.09272
L 655.374906 128.875667
L 656.690909 128.978837
L 656.690909 128.978837
" clip-path="url(#p32c8c17cce)" style="fill: none; stroke: #e74c3c; stroke-opacity: 0.5; stroke-width: 1.5; stroke-linecap: square"/>
   </g>
   <g id="patch_7">
    <path d="M 33.64 210.04
L 33.64 10.8
" style="fill: none; stroke: #ffffff; stroke-linejoin: miter; stroke-linecap: square"/>
   </g>
   <g id="patch_8">
    <path d="M 686.36 210.04
L 686.36 10.8
" style="fill: none; stroke: #3498db; stroke-opacity: 0.5; stroke-linejoin: miter; stroke-linecap: square"/>
   </g>
   <g id="patch_9">
    <path d="M 33.64 210.04
L 686.36 210.04
" style="fill: none; stroke: #ffffff; stroke-linejoin: miter; stroke-linecap: square"/>
   </g>
   <g id="patch_10">
    <path d="M 33.64 10.8
L 686.36 10.8
" style="fill: none; stroke: #ffffff; stroke-linejoin: miter; stroke-linecap: square"/>
   </g>
   <g id="legend_1">
    <g id="patch_11">
     <path d="M 541.39125 78.06875
L 679.36 78.06875
Q 681.36 78.06875 681.36 76.06875
L 681.36 17.8
Q 681.36 15.8 679.36 15.8
L 541.39125 15.8
Q 539.39125 15.8 539.39125 17.8
L 539.39125 76.06875
Q 539.39125 78.06875 541.39125 78.06875
z
" style="fill: #1a1a2e; opacity: 0.9; stroke: #2a2a4a; stroke-linejoin: miter"/>
    </g>
    <g id="line2d_39">
     <path d="M 543.39125 23.898438
L 553.39125 23.898438
L 563.39125 23.898438
" style="fill: none; stroke: #3498db; stroke-width: 1.5; stroke-linecap: square"/>
    </g>
    <g id="text_22">
     <!-- brightness -->
     <g style="fill: #ffffff" transform="translate(571.39125 27.398438) scale(0.1 -0.1)">
      <defs>
       <path id="DejaVuSans-62" d="M 3116 1747
Q 3116 2381 2855 2742
Q 2594 3103 2138 3103
Q 1681 3103 1420 2742
Q 1159 2381 1159 1747
Q 1159 1113 1420 752
Q 1681 391 2138 391
Q 2594 391 2855 752
Q 3116 1113 3116 1747
z
M 1159 2969
Q 1341 3281 1617 3432
Q 1894 3584 2278 3584
Q 2916 3584 3314 3078
Q 3713 2572 3713 1747
Q 3713 922 3314 415
Q 2916 -91 2278 -91
Q 1894 -91 1617 61
Q 1341 213 1159 525
L 1159 0
L 581 0
L 581 4863
L 1159 4863
L 1159 2969
z
" transform="scale(0.015625)"/>
       <path id="DejaVuSans-72" d="M 2631 2963
Q 2534 3019 2420 3045
Q 2306 3072 2169 3072
Q 1681 3072 1420 2755
Q 1159 2438 1159 1844
L 1159 0
L 581 0
L 581 3500
L 1159 3500
L 1159 2956
Q 1341 3275 1631 3429
Q 1922 3584 2338 3584
Q 2397 3584 2469 3576
Q 2541 3569 2628 3553
L 2631 2963
z
" transform="scale(0.015625)"/>
       <path id="DejaVuSans-67" d="M 2906 1791
Q 2906 2416 2648 2759
Q 2391 3103 1925 3103
Q 1463 3103 1205 2759
Q 947 2416 947 1791
Q 947 1169 1205 825
Q 1463 481 1925 481
Q 2391 481 2648 825
Q 2906 1169 2906 1791
z
M 3481 434
Q 3481 -459 3084 -895
Q 2688 -1331 1869 -1331
Q 1566 -1331 1297 -1286
Q 1028 -1241 775 -1147
L 775 -588
Q 1028 -725 1275 -790
Q 1522 -856 1778 -856
Q 2344 -856 2625 -561
Q 2906 -266 2906 331
L 2906 616
Q 2728 306 2450 153
Q 2172 0 1784 0
Q 1141 0 747 490
Q 353 981 353 1791
Q 353 2603 747 3093
Q 1141 3584 1784 3584
Q 2172 3584 2450 3431
Q 2728 3278 2906 2969
L 2906 3500
L 3481 3500
L 3481 434
z
" transform="scale(0.015625)"/>
       <path id="DejaVuSans-68" d="M 3513 2113
L 3513 0
L 2938 0
L 2938 2094
Q 2938 2591 2744 2837
Q 2550 3084 2163 3084
Q 1697 3084 1428 2787
Q 1159 2491 1159 1978
L 1159 0
L 581 0
L 581 4863
L 1159 4863
L 1159 2956
Q 1366 3272 1645 3428
Q 1925 3584 2291 3584
Q 2894 3584 3203 3211
Q 3513 2838 3513 2113
z
" transform="scale(0.015625)"/>
       <path id="DejaVuSans-6e" d="M 3513 2113
L 3513 0
L 2938 0
L 2938 2094
Q 2938 2591 2744 2837
Q 2550 3084 2163 3084
Q 1697 3084 1428 2787
Q 1159 2491 1159 1978
L 1159 0
L 581 0
L 581 3500
L 1159 3500
L 1159 2956
Q 1366 3272 1645 3428
Q 1925 3584 2291 3584
Q 2894 3584 3203 3211
Q 3513 2838 3513 2113
z
" transform="scale(0.015625)"/>
      </defs>
      <use xlink:href="#DejaVuSans-62"/>
      <use xlink:href="#DejaVuSans-72" transform="translate(63.476562 0)"/>
      <use xlink:href="#DejaVuSans-69" transform="translate(104.589844 0)"/>
      <use xlink:href="#DejaVuSans-67" transform="translate(132.373047 0)"/>
      <use xlink:href="#DejaVuSans-68" transform="translate(195.849609 0)"/>
      <use xlink:href="#DejaVuSans-74" transform="translate(259.228516 0)"/>
      <use xlink:href="#DejaVuSans-6e" transform="translate(298.4375 0)"/>
      <use xlink:href="#DejaVuSans-65" transform="translate(361.816406 0)"/>
      <use xlink:href="#DejaVuSans-73" transform="translate(423.339844 0)"/>
      <use xlink:href="#DejaVuSans-73" transform="translate(475.439453 0)"/>
     </g>
    </g>
    <g id="line2d_40">
     <path d="M 543.39125 38.576562
L 553.39125 38.576562
L 563.39125 38.576562
" style="fill: none; stroke-dasharray: 5.55,2.4; stroke-dashoffset: 0; stroke: #e74c3c; stroke-width: 1.5"/>
    </g>
    <g id="text_23">
     <!-- slow_brightness -->
     <g style="fill: #ffffff" transform="translate(571.39125 42.076562) scale(0.1 -0.1)">
      <defs>
       <path id="DejaVuSans-6c" d="M 603 4863
L 1178 4863
L 1178 0
L 603 0
L 603 4863
z
" transform="scale(0.015625)"/>
       <path id="DejaVuSans-6f" d="M 1959 3097
Q 1497 3097 1228 2736
Q 959 2375 959 1747
Q 959 1119 1226 758
Q 1494 397 1959 397
Q 2419 397 2687 759
Q 2956 1122 2956 1747
Q 2956 2369 2687 2733
Q 2419 3097 1959 3097
z
M 1959 3584
Q 2709 3584 3137 3096
Q 3566 2609 3566 1747
Q 3566 888 3137 398
Q 2709 -91 1959 -91
Q 1206 -91 779 398
Q 353 888 353 1747
Q 353 2609 779 3096
Q 1206 3584 1959 3584
z
" transform="scale(0.015625)"/>
       <path id="DejaVuSans-77" d="M 269 3500
L 844 3500
L 1563 769
L 2278 3500
L 2956 3500
L 3675 769
L 4391 3500
L 4966 3500
L 4050 0
L 3372 0
L 2619 2869
L 1863 0
L 1184 0
L 269 3500
z
" transform="scale(0.015625)"/>
       <path id="DejaVuSans-5f" d="M 3263 -1063
L 3263 -1509
L -63 -1509
L -63 -1063
L 3263 -1063
z
" transform="scale(0.015625)"/>
      </defs>
      <use xlink:href="#DejaVuSans-73"/>
      <use xlink:href="#DejaVuSans-6c" transform="translate(52.099609 0)"/>
      <use xlink:href="#DejaVuSans-6f" transform="translate(79.882812 0)"/>
      <use xlink:href="#DejaVuSans-77" transform="translate(141.064453 0)"/>
      <use xlink:href="#DejaVuSans-5f" transform="translate(222.851562 0)"/>
      <use xlink:href="#DejaVuSans-62" transform="translate(272.851562 0)"/>
      <use xlink:href="#DejaVuSans-72" transform="translate(336.328125 0)"/>
      <use xlink:href="#DejaVuSans-69" transform="translate(377.441406 0)"/>
      <use xlink:href="#DejaVuSans-67" transform="translate(405.224609 0)"/>
      <use xlink:href="#DejaVuSans-68" transform="translate(468.701172 0)"/>
      <use xlink:href="#DejaVuSans-74" transform="translate(532.080078 0)"/>
      <use xlink:href="#DejaVuSans-6e" transform="translate(571.289062 0)"/>
      <use xlink:href="#DejaVuSans-65" transform="translate(634.667969 0)"/>
      <use xlink:href="#DejaVuSans-73" transform="translate(696.191406 0)"/>
      <use xlink:href="#DejaVuSans-73" transform="translate(748.291016 0)"/>
     </g>
    </g>
    <g id="line2d_41">
     <path d="M 543.39125 53.532813
L 553.39125 53.532813
L 563.39125 53.532813
" style="fill: none; stroke: #3498db; stroke-opacity: 0.5; stroke-width: 1.5; stroke-linecap: square"/>
    </g>
    <g id="text_24">
     <!-- brightness (ms) -->
     <g style="fill: #ffffff" transform="translate(571.39125 57.032813) scale(0.1 -0.1)">
      <use xlink:href="#DejaVuSans-62"/>
      <use xlink:href="#DejaVuSans-72" transform="translate(63.476562 0)"/>
      <use xlink:href="#DejaVuSans-69" transform="translate(104.589844 0)"/>
      <use xlink:href="#DejaVuSans-67" transform="translate(132.373047 0)"/>
      <use xlink:href="#DejaVuSans-68" transform="translate(195.849609 0)"/>
      <use xlink:href="#DejaVuSans-74" transform="translate(259.228516 0)"/>
      <use xlink:href="#DejaVuSans-6e" transform="translate(298.4375 0)"/>
      <use xlink:href="#DejaVuSans-65" transform="translate(361.816406 0)"/>
      <use xlink:href="#DejaVuSans-73" transform="translate(423.339844 0)"/>
      <use xlink:href="#DejaVuSans-73" transform="translate(475.439453 0)"/>
      <use xlink:href="#DejaVuSans-20" transform="translate(527.539062 0)"/>
      <use xlink:href="#DejaVuSans-28" transform="translate(559.326172 0)"/>
      <use xlink:href="#DejaVuSans-6d" transform="translate(598.339844 0)"/>
      <use xlink:href="#DejaVuSans-73" transform="translate(695.751953 0)"/>
      <use xlink:href="#DejaVuSans-29" transform="translate(747.851562 0)"/>
     </g>
    </g>
    <g id="line2d_42">
     <path d="M 543.39125 68.210938
L 553.39125 68.210938
L 563.39125 68.210938
" style="fill: none; stroke: #e74c3c; stroke-opacity: 0.5; stroke-width: 1.5; stroke-linecap: square"/>
    </g>
    <g id="text_25">
     <!-- slow_brightness (ms) -->
     <g style="fill: #ffffff" transform="translate(571.39125 71.710938) scale(0.1 -0.1)">
      <use xlink:href="#DejaVuSans-73"/>
      <use xlink:href="#DejaVuSans-6c" transform="translate(52.099609 0)"/>
      <use xlink:href="#DejaVuSans-6f" transform="translate(79.882812 0)"/>
      <use xlink:href="#DejaVuSans-77" transform="translate(141.064453 0)"/>
      <use xlink:href="#DejaVuSans-5f" transform="translate(222.851562 0)"/>
      <use xlink:href="#DejaVuSans-62" transform="translate(272.851562 0)"/>
      <use xlink:href="#DejaVuSans-72" transform="translate(336.328125 0)"/>
      <use xlink:href="#DejaVuSans-69" transform="translate(377.441406 0)"/>
      <use xlink:href="#DejaVuSans-67" transform="translate(405.224609 0)"/>
      <use xlink:href="#DejaVuSans-68" transform="translate(468.701172 0)"/>
      <use xlink:href="#DejaVuSans-74" transform="translate(532.080078 0)"/>
      <use xlink:href="#DejaVuSans-6e" transform="translate(571.289062 0)"/>
      <use xlink:href="#DejaVuSans-65" transform="translate(634.667969 0)"/>
      <use xlink:href="#DejaVuSans-73" transform="translate(696.191406 0)"/>
      <use xlink:href="#DejaVuSans-73" transform="translate(748.291016 0)"/>
      <use xlink:href="#DejaVuSans-20" transform="translate(800.390625 0)"/>
      <use xlink:href="#DejaVuSans-28" transform="translate(832.177734 0)"/>
      <use xlink:href="#DejaVuSans-6d" transform="translate(871.191406 0)"/>
      <use xlink:href="#DejaVuSans-73" transform="translate(968.603516 0)"/>
      <use xlink:href="#DejaVuSans-29" transform="translate(1020.703125 0)"/>
     </g>
    </g>
   </g>
  </g>
 </g>
 <defs>
  <clipPath id="p32c8c17cce">
   <rect x="33.64" y="10.8" width="652.72" height="199.24"/>
  </clipPath>
 </defs>
</svg>
